<?xml version="1.0" encoding="UTF-8" standalone="no"?>
<!DOCTYPE svg PUBLIC "-//W3C//DTD SVG 1.1//EN"
 "http://www.w3.org/Graphics/SVG/1.1/DTD/svg11.dtd">
<!-- Generated by graphviz version 2.43.0 (0)
 -->
<!-- Title: com.teragrep.buf_01.buffer.pool.DebugMemorySegmentLeasePool.equals Pages: 1 -->
<svg width="518pt" height="62pt"
 viewBox="0.00 0.00 518.00 61.50" xmlns="http://www.w3.org/2000/svg" xmlns:xlink="http://www.w3.org/1999/xlink">
<g id="graph0" class="graph" transform="scale(1 1) rotate(0) translate(4 57.5)">
<title>com.teragrep.buf_01.buffer.pool.DebugMemorySegmentLeasePool.equals</title>
<!-- Node1 -->
<g id="Node000001" class="node">
<title>Node1</title>
<g id="a_Node000001"><a xlink:title=" ">
<polygon fill="#999999" stroke="#666666" points="217,-35.5 0,-35.5 0,-5.5 217,-5.5 217,-35.5"/>
<text text-anchor="start" x="8" y="-23.5" font-family="Helvetica,sans-Serif" font-size="10.00">com.teragrep.buf_01.buffer.pool.</text>
<text text-anchor="middle" x="108.5" y="-12.5" font-family="Helvetica,sans-Serif" font-size="10.00">DebugMemorySegmentLeasePool.equals</text>
</a>
</g>
</g>
<!-- Node1&#45;&gt;Node1 -->
<g id="edge2_Node000001_Node000001" class="edge">
<title>Node1&#45;&gt;Node1</title>
<g id="a_edge2_Node000001_Node000001"><a xlink:title=" ">
<path fill="none" stroke="#63b8ff" d="M60.69,-35.78C50.06,-44.91 66,-53.5 108.5,-53.5 133.73,-53.5 149.6,-50.47 156.11,-46.1"/>
<polygon fill="#63b8ff" stroke="#63b8ff" points="159.62,-45.84 156.31,-35.78 152.62,-45.7 159.62,-45.84"/>
</a>
</g>
</g>
<!-- Node2 -->
<g id="Node000002" class="node">
<title>Node2</title>
<g id="a_Node000002"><a xlink:href="classcom_1_1teragrep_1_1buf__01_1_1buffer_1_1pool_1_1DebugMemorySegmentLeasePool.html#a0313d8cce1c55f5e9aaa24472096ff20" target="_top" xlink:title=" ">
<polygon fill="white" stroke="#666666" points="510,-41 253,-41 253,0 510,0 510,-41"/>
<text text-anchor="start" x="261" y="-29" font-family="Helvetica,sans-Serif" font-size="10.00">com.teragrep.buf_01.buffer.pool.</text>
<text text-anchor="start" x="261" y="-18" font-family="Helvetica,sans-Serif" font-size="10.00">DebugMemorySegmentLeasePool.DebugMemory</text>
<text text-anchor="middle" x="381.5" y="-7" font-family="Helvetica,sans-Serif" font-size="10.00">SegmentLeasePool</text>
</a>
</g>
</g>
<!-- Node1&#45;&gt;Node2 -->
<g id="edge1_Node000001_Node000002" class="edge">
<title>Node1&#45;&gt;Node2</title>
<g id="a_edge1_Node000001_Node000002"><a xlink:title=" ">
<path fill="none" stroke="#63b8ff" d="M217.39,-20.5C225.77,-20.5 234.29,-20.5 242.83,-20.5"/>
<polygon fill="#63b8ff" stroke="#63b8ff" points="242.86,-24 252.86,-20.5 242.86,-17 242.86,-24"/>
</a>
</g>
</g>
</g>
</svg>
