<?xml version="1.0" encoding="UTF-8" standalone="no"?><svg xmlns="http://www.w3.org/2000/svg" xmlns:xlink="http://www.w3.org/1999/xlink" contentScriptType="application/ecmascript" contentStyleType="text/css" height="282px" preserveAspectRatio="none" style="width:960px;height:282px;" version="1.1" viewBox="0 0 960 282" width="960px" zoomAndPan="magnify"><defs><filter height="300%" id="f142ko37i355rq" width="300%" x="-1" y="-1"><feGaussianBlur result="blurOut" stdDeviation="2.0"/><feColorMatrix in="blurOut" result="blurOut2" type="matrix" values="0 0 0 0 0 0 0 0 0 0 0 0 0 0 0 0 0 0 .4 0"/><feOffset dx="4.0" dy="4.0" in="blurOut2" result="blurOut3"/><feBlend in="SourceGraphic" in2="blurOut3" mode="normal"/></filter></defs><g><!--MD5=[6a238c3ff9e730477301de7c2bfcc723]
class Pool--><rect fill="#FEFECE" filter="url(#f142ko37i355rq)" height="48" id="Pool" style="stroke: #A80036; stroke-width: 1.5;" width="58" x="6" y="223"/><ellipse cx="21" cy="239" fill="#B4A7E5" rx="11" ry="11" style="stroke: #A80036; stroke-width: 1.0;"/><path d="M16.9219,234.7656 L16.9219,232.6094 L24.3125,232.6094 L24.3125,234.7656 L21.8438,234.7656 L21.8438,242.8438 L24.3125,242.8438 L24.3125,245 L16.9219,245 L16.9219,242.8438 L19.3906,242.8438 L19.3906,234.7656 L16.9219,234.7656 Z "/><text fill="#000000" font-family="sans-serif" font-size="12" font-style="italic" lengthAdjust="spacingAndGlyphs" textLength="26" x="35" y="243.1543">Pool</text><line style="stroke: #A80036; stroke-width: 1.5;" x1="7" x2="63" y1="255" y2="255"/><line style="stroke: #A80036; stroke-width: 1.5;" x1="7" x2="63" y1="263" y2="263"/><!--MD5=[5f4147abe85723a46671276136bd6156]
class MemorySegmentLease--><rect fill="#FEFECE" filter="url(#f142ko37i355rq)" height="137.6328" id="MemorySegmentLease" style="stroke: #A80036; stroke-width: 1.5;" width="173" x="29.5" y="8"/><ellipse cx="44.5" cy="24" fill="#ADD1B2" rx="11" ry="11" style="stroke: #A80036; stroke-width: 1.0;"/><path d="M47.4688,29.6406 Q46.8906,29.9375 46.25,30.0781 Q45.6094,30.2344 44.9063,30.2344 Q42.4063,30.2344 41.0781,28.5938 Q39.7656,26.9375 39.7656,23.8125 Q39.7656,20.6875 41.0781,19.0313 Q42.4063,17.375 44.9063,17.375 Q45.6094,17.375 46.25,17.5313 Q46.9063,17.6875 47.4688,17.9844 L47.4688,20.7031 Q46.8438,20.125 46.25,19.8594 Q45.6563,19.5781 45.0313,19.5781 Q43.6875,19.5781 43,20.6563 Q42.3125,21.7188 42.3125,23.8125 Q42.3125,25.9063 43,26.9844 Q43.6875,28.0469 45.0313,28.0469 Q45.6563,28.0469 46.25,27.7813 Q46.8438,27.5 47.4688,26.9219 L47.4688,29.6406 Z "/><text fill="#000000" font-family="sans-serif" font-size="12" lengthAdjust="spacingAndGlyphs" textLength="141" x="58.5" y="28.1543">MemorySegmentLease</text><line style="stroke: #A80036; stroke-width: 1.5;" x1="30.5" x2="201.5" y1="40" y2="40"/><line style="stroke: #A80036; stroke-width: 1.5;" x1="30.5" x2="201.5" y1="48" y2="48"/><ellipse cx="40.5" cy="59" fill="#84BE84" rx="3" ry="3" style="stroke: #038048; stroke-width: 1.0;"/><text fill="#000000" font-family="sans-serif" font-size="11" lengthAdjust="spacingAndGlyphs" textLength="82" x="49.5" y="62.2104">sliceAt(offset);</text><ellipse cx="40.5" cy="71.8047" fill="#84BE84" rx="3" ry="3" style="stroke: #038048; stroke-width: 1.0;"/><text fill="#000000" font-family="sans-serif" font-size="11" lengthAdjust="spacingAndGlyphs" textLength="22" x="49.5" y="75.0151">id();</text><ellipse cx="40.5" cy="84.6094" fill="#84BE84" rx="3" ry="3" style="stroke: #038048; stroke-width: 1.0;"/><text fill="#000000" font-family="sans-serif" font-size="11" lengthAdjust="spacingAndGlyphs" textLength="35" x="49.5" y="87.8198">refs();</text><ellipse cx="40.5" cy="97.4141" fill="#84BE84" rx="3" ry="3" style="stroke: #038048; stroke-width: 1.0;"/><text fill="#000000" font-family="sans-serif" font-size="11" lengthAdjust="spacingAndGlyphs" textLength="86" x="49.5" y="100.6245">leasedObject();</text><ellipse cx="40.5" cy="110.2188" fill="#84BE84" rx="3" ry="3" style="stroke: #038048; stroke-width: 1.0;"/><text fill="#000000" font-family="sans-serif" font-size="11" lengthAdjust="spacingAndGlyphs" textLength="86" x="49.5" y="113.4292">hasZeroRefs();</text><ellipse cx="40.5" cy="123.0234" fill="#84BE84" rx="3" ry="3" style="stroke: #038048; stroke-width: 1.0;"/><text fill="#000000" font-family="sans-serif" font-size="11" lengthAdjust="spacingAndGlyphs" textLength="48" x="49.5" y="126.2339">isStub();</text><ellipse cx="40.5" cy="135.8281" fill="#84BE84" rx="3" ry="3" style="stroke: #038048; stroke-width: 1.0;"/><text fill="#000000" font-family="sans-serif" font-size="11" lengthAdjust="spacingAndGlyphs" textLength="42" x="49.5" y="139.0386">close();</text><!--MD5=[2a1de4af88ba61b6ea57fe67241b5324]
class MemorySegmentSubLease--><rect fill="#FEFECE" filter="url(#f142ko37i355rq)" height="48" id="MemorySegmentSubLease" style="stroke: #A80036; stroke-width: 1.5;" width="197" x="99.5" y="223"/><ellipse cx="114.5" cy="239" fill="#ADD1B2" rx="11" ry="11" style="stroke: #A80036; stroke-width: 1.0;"/><path d="M117.4688,244.6406 Q116.8906,244.9375 116.25,245.0781 Q115.6094,245.2344 114.9063,245.2344 Q112.4063,245.2344 111.0781,243.5938 Q109.7656,241.9375 109.7656,238.8125 Q109.7656,235.6875 111.0781,234.0313 Q112.4063,232.375 114.9063,232.375 Q115.6094,232.375 116.25,232.5313 Q116.9063,232.6875 117.4688,232.9844 L117.4688,235.7031 Q116.8438,235.125 116.25,234.8594 Q115.6563,234.5781 115.0313,234.5781 Q113.6875,234.5781 113,235.6563 Q112.3125,236.7188 112.3125,238.8125 Q112.3125,240.9063 113,241.9844 Q113.6875,243.0469 115.0313,243.0469 Q115.6563,243.0469 116.25,242.7813 Q116.8438,242.5 117.4688,241.9219 L117.4688,244.6406 Z "/><text fill="#000000" font-family="sans-serif" font-size="12" lengthAdjust="spacingAndGlyphs" textLength="165" x="128.5" y="243.1543">MemorySegmentSubLease</text><line style="stroke: #A80036; stroke-width: 1.5;" x1="100.5" x2="295.5" y1="255" y2="255"/><line style="stroke: #A80036; stroke-width: 1.5;" x1="100.5" x2="295.5" y1="263" y2="263"/><path d="M238,11.5 L238,73 L202.64,77 L238,81 L238,142.5625 A0,0 0 0 0 238,142.5625 L948,142.5625 A0,0 0 0 0 948,142.5625 L948,21.5 L938,11.5 L238,11.5 A0,0 0 0 0 238,11.5 " fill="#FBFB77" filter="url(#f142ko37i355rq)" style="stroke: #A80036; stroke-width: 1.0;"/><path d="M938,11.5 L938,21.5 L948,21.5 L938,11.5 " fill="#FBFB77" style="stroke: #A80036; stroke-width: 1.0;"/><text fill="#000000" font-family="sans-serif" font-size="13" lengthAdjust="spacingAndGlyphs" textLength="101" x="244" y="28.5669">Responsibilities:</text><text fill="#000000" font-family="sans-serif" font-size="13" lengthAdjust="spacingAndGlyphs" textLength="128" x="244" y="43.6997">- Reference tracking</text><text fill="#000000" font-family="sans-serif" font-size="13" lengthAdjust="spacingAndGlyphs" textLength="689" x="244" y="58.8325">- Provides access to encapsulated MemorySegment - Zero references removes access to MemorySegment</text><text fill="#000000" font-family="sans-serif" font-size="13" lengthAdjust="spacingAndGlyphs" textLength="302" x="244" y="73.9653">- Fills MemorySegment with zeroes (0) on close</text><text fill="#000000" font-family="sans-serif" font-size="13" lengthAdjust="spacingAndGlyphs" textLength="89" x="244" y="89.0981">Collaborators:</text><text fill="#000000" font-family="sans-serif" font-size="13" lengthAdjust="spacingAndGlyphs" textLength="47" x="244" y="104.231">- Lease</text><text fill="#000000" font-family="sans-serif" font-size="13" lengthAdjust="spacingAndGlyphs" textLength="36" x="244" y="119.3638">- Pool</text><text fill="#000000" font-family="sans-serif" font-size="13" lengthAdjust="spacingAndGlyphs" textLength="183" x="244" y="134.4966">- MemorySegmentSubLease</text><!--MD5=[2ad5a1aa9dd8a5a1c5f9889463c043b5]
link MemorySegmentLease to MemorySegmentSubLease--><path d="M149.35,146.33 C161.62,171.46 174.82,198.52 184.38,218.09 " fill="none" id="MemorySegmentLease-&gt;MemorySegmentSubLease" style="stroke: #A80036; stroke-width: 1.0;"/><polygon fill="#A80036" points="186.73,222.9,186.3706,213.0577,184.5339,218.4081,179.1836,216.5714,186.73,222.9" style="stroke: #A80036; stroke-width: 1.0;"/><text fill="#000000" font-family="sans-serif" font-size="13" lengthAdjust="spacingAndGlyphs" textLength="63" x="172" y="189.0669">slices into</text><!--MD5=[516caf3693ab2d8f0d134fe80542a483]
link MemorySegmentLease to Pool--><path d="M83.05,146.33 C70.94,171.46 57.89,198.52 48.45,218.09 " fill="none" id="MemorySegmentLease-&gt;Pool" style="stroke: #A80036; stroke-width: 1.0;"/><polygon fill="#A80036" points="46.14,222.9,53.6538,216.5327,48.3129,218.3969,46.4488,213.056,46.14,222.9" style="stroke: #A80036; stroke-width: 1.0;"/><text fill="#000000" font-family="sans-serif" font-size="13" lengthAdjust="spacingAndGlyphs" textLength="83" x="70" y="189.0669">returned into</text><!--MD5=[99024628d55b110b4e1ca32ab2f8ada4]
@startuml inline_umlgraph_3.svg
interface Pool
class MemorySegmentLease {
+ sliceAt(offset);
+ id();
+ refs();
+ leasedObject();
+ hasZeroRefs();
+ isStub();
+ close();
}
MemorySegmentLease - -> MemorySegmentSubLease : slices into
MemorySegmentLease - -> Pool : returned into
note right of MemorySegmentLease
Responsibilities:
- Reference tracking
- Provides access to encapsulated MemorySegment - Zero references removes access to MemorySegment
- Fills MemorySegment with zeroes (0) on close
Collaborators:
- Lease
- Pool
- MemorySegmentSubLease
end note
@enduml

PlantUML version 1.2020.02(Sun Mar 01 10:22:07 UTC 2020)
(GPL source distribution)
Java Runtime: OpenJDK Runtime Environment
JVM: OpenJDK 64-Bit Server VM
Java Version: 25.0.2+10-LTS
Operating System: Linux
Default Encoding: UTF-8
Language: en
Country: null
--></g></svg>