<?xml version="1.0" encoding="UTF-8" standalone="no"?>
<!DOCTYPE svg PUBLIC "-//W3C//DTD SVG 1.1//EN"
 "http://www.w3.org/Graphics/SVG/1.1/DTD/svg11.dtd">
<!-- Generated by graphviz version 2.43.0 (0)
 -->
<!-- Title: com.teragrep.buf_01.buffer.lease.Lease.leasedObject Pages: 1 -->
<svg width="940pt" height="298pt"
 viewBox="0.00 0.00 940.00 298.00" xmlns="http://www.w3.org/2000/svg" xmlns:xlink="http://www.w3.org/1999/xlink">
<g id="graph0" class="graph" transform="scale(1 1) rotate(0) translate(4 294)">
<title>com.teragrep.buf_01.buffer.lease.Lease.leasedObject</title>
<!-- Node1 -->
<g id="Node000001" class="node">
<title>Node1</title>
<g id="a_Node000001"><a xlink:title=" ">
<polygon fill="#999999" stroke="#666666" points="932,-230 751,-230 751,-200 932,-200 932,-230"/>
<text text-anchor="start" x="759" y="-218" font-family="Helvetica,sans-Serif" font-size="10.00">com.teragrep.buf_01.buffer.lease.</text>
<text text-anchor="middle" x="841.5" y="-207" font-family="Helvetica,sans-Serif" font-size="10.00">Lease.leasedObject</text>
</a>
</g>
</g>
<!-- Node2 -->
<g id="Node000002" class="node">
<title>Node2</title>
<g id="a_Node000002"><a xlink:href="classcom_1_1teragrep_1_1buf__01_1_1buffer_1_1lease_1_1TrackedMemorySegmentLease.html#aff53bdf091bdb827968b7c4e2bed9858" target="_top" xlink:title=" ">
<polygon fill="white" stroke="#666666" points="703,-252 494,-252 494,-222 703,-222 703,-252"/>
<text text-anchor="start" x="502" y="-240" font-family="Helvetica,sans-Serif" font-size="10.00">com.teragrep.buf_01.buffer.lease.</text>
<text text-anchor="middle" x="598.5" y="-229" font-family="Helvetica,sans-Serif" font-size="10.00">TrackedMemorySegmentLease.hasNext</text>
</a>
</g>
</g>
<!-- Node1&#45;&gt;Node2 -->
<g id="edge1_Node000001_Node000002" class="edge">
<title>Node1&#45;&gt;Node2</title>
<g id="a_edge1_Node000001_Node000002"><a xlink:title=" ">
<path fill="none" stroke="#63b8ff" d="M740.48,-224.13C728.14,-225.26 715.51,-226.41 703.13,-227.54"/>
<polygon fill="#63b8ff" stroke="#63b8ff" points="741.12,-227.59 750.76,-223.19 740.48,-220.62 741.12,-227.59"/>
</a>
</g>
</g>
<!-- Node3 -->
<g id="Node000003" class="node">
<title>Node3</title>
<g id="a_Node000003"><a xlink:href="classcom_1_1teragrep_1_1buf__01_1_1buffer_1_1lease_1_1TrackedMemorySegmentLease.html#aa9ba09bfafb6da748dab1b1cbc1764ab" target="_top" xlink:title=" ">
<polygon fill="white" stroke="#666666" points="437.5,-290 246.5,-290 246.5,-260 437.5,-260 437.5,-290"/>
<text text-anchor="start" x="254.5" y="-278" font-family="Helvetica,sans-Serif" font-size="10.00">com.teragrep.buf_01.buffer.lease.</text>
<text text-anchor="middle" x="342" y="-267" font-family="Helvetica,sans-Serif" font-size="10.00">TrackedMemorySegmentLease.next</text>
</a>
</g>
</g>
<!-- Node1&#45;&gt;Node3 -->
<g id="edge11_Node000001_Node000003" class="edge">
<title>Node1&#45;&gt;Node3</title>
<g id="a_edge11_Node000001_Node000003"><a xlink:title=" ">
<path fill="none" stroke="#63b8ff" d="M798.79,-234.03C774.81,-244.02 743.82,-255.32 715,-261 621.94,-279.33 513.33,-281.24 437.58,-279.54"/>
<polygon fill="#63b8ff" stroke="#63b8ff" points="800.45,-237.13 808.28,-230 797.71,-230.69 800.45,-237.13"/>
</a>
</g>
</g>
<!-- Node4 -->
<g id="Node000004" class="node">
<title>Node4</title>
<g id="a_Node000004"><a xlink:href="classcom_1_1teragrep_1_1buf__01_1_1buffer_1_1lease_1_1TrackedMemorySegmentLease.html#ae5b248e69f4661a3f3e94d2c64e4e3dc" target="_top" xlink:title=" ">
<polygon fill="white" stroke="#666666" points="439,-233 245,-233 245,-203 439,-203 439,-233"/>
<text text-anchor="start" x="253" y="-221" font-family="Helvetica,sans-Serif" font-size="10.00">com.teragrep.buf_01.buffer.lease.</text>
<text text-anchor="middle" x="342" y="-210" font-family="Helvetica,sans-Serif" font-size="10.00">TrackedMemorySegmentLease.write</text>
</a>
</g>
</g>
<!-- Node1&#45;&gt;Node4 -->
<g id="edge12_Node000001_Node000004" class="edge">
<title>Node1&#45;&gt;Node4</title>
<g id="a_edge12_Node000001_Node000004"><a xlink:title=" ">
<path fill="none" stroke="#63b8ff" d="M740.55,-213.26C731.91,-213.16 723.3,-213.07 715,-213 611.45,-212.17 585.54,-211.14 482,-213 468.12,-213.25 453.46,-213.64 439.07,-214.09"/>
<polygon fill="#63b8ff" stroke="#63b8ff" points="740.65,-216.76 750.7,-213.4 740.74,-209.77 740.65,-216.76"/>
</a>
</g>
</g>
<!-- Node5 -->
<g id="Node000005" class="node">
<title>Node5</title>
<g id="a_Node000005"><a xlink:href="classcom_1_1teragrep_1_1buf__01_1_1buffer_1_1lease_1_1TrackedMemorySegmentLease.html#a4e3c99ee0f5e4d2daedf21ff0764154f" target="_top" xlink:title=" ">
<polygon fill="white" stroke="#666666" points="715,-166 482,-166 482,-136 715,-136 715,-166"/>
<text text-anchor="start" x="490" y="-154" font-family="Helvetica,sans-Serif" font-size="10.00">com.teragrep.buf_01.buffer.lease.</text>
<text text-anchor="middle" x="598.5" y="-143" font-family="Helvetica,sans-Serif" font-size="10.00">TrackedMemorySegmentLease.leasedObject</text>
</a>
</g>
</g>
<!-- Node1&#45;&gt;Node5 -->
<g id="edge4_Node000001_Node000005" class="edge">
<title>Node1&#45;&gt;Node5</title>
<g id="a_edge4_Node000001_Node000005"><a xlink:title=" ">
<path fill="none" stroke="#63b8ff" d="M778.09,-197.25C757.98,-191.62 735.58,-185.45 715,-180 697.41,-175.34 678.27,-170.46 660.72,-166.06"/>
<polygon fill="#63b8ff" stroke="#63b8ff" points="777.19,-200.63 787.76,-199.96 779.08,-193.89 777.19,-200.63"/>
</a>
</g>
</g>
<!-- Node2&#45;&gt;Node3 -->
<g id="edge2_Node000002_Node000003" class="edge">
<title>Node2&#45;&gt;Node3</title>
<g id="a_edge2_Node000002_Node000003"><a xlink:title=" ">
<path fill="none" stroke="#63b8ff" d="M486.82,-253.53C470.51,-255.96 453.83,-258.45 437.88,-260.83"/>
<polygon fill="#63b8ff" stroke="#63b8ff" points="487.54,-256.96 496.91,-252.02 486.51,-250.03 487.54,-256.96"/>
</a>
</g>
</g>
<!-- Node2&#45;&gt;Node4 -->
<g id="edge3_Node000002_Node000004" class="edge">
<title>Node2&#45;&gt;Node4</title>
<g id="a_edge3_Node000002_Node000004"><a xlink:title=" ">
<path fill="none" stroke="#63b8ff" d="M483.71,-228.5C468.79,-227.39 453.62,-226.26 439.03,-225.17"/>
<polygon fill="#63b8ff" stroke="#63b8ff" points="483.75,-232.02 493.99,-229.27 484.27,-225.04 483.75,-232.02"/>
</a>
</g>
</g>
<!-- Node6 -->
<g id="Node000006" class="node">
<title>Node6</title>
<g id="a_Node000006"><a xlink:href="classcom_1_1teragrep_1_1buf__01_1_1buffer_1_1lease_1_1TrackedMemorySegmentLease.html#a844524847207d55bc758d3e2944ce085" target="_top" xlink:title=" ">
<polygon fill="white" stroke="#666666" points="196.5,-174 5.5,-174 5.5,-144 196.5,-144 196.5,-174"/>
<text text-anchor="start" x="13.5" y="-162" font-family="Helvetica,sans-Serif" font-size="10.00">com.teragrep.buf_01.buffer.lease.</text>
<text text-anchor="middle" x="101" y="-151" font-family="Helvetica,sans-Serif" font-size="10.00">TrackedMemorySegmentLease.limit</text>
</a>
</g>
</g>
<!-- Node5&#45;&gt;Node6 -->
<g id="edge5_Node000005_Node000006" class="edge">
<title>Node5&#45;&gt;Node6</title>
<g id="a_edge5_Node000005_Node000006"><a xlink:title=" ">
<path fill="none" stroke="#63b8ff" d="M471.91,-153.03C386.27,-154.41 274.66,-156.21 196.53,-157.47"/>
<polygon fill="#63b8ff" stroke="#63b8ff" points="472.01,-156.53 481.95,-152.87 471.9,-149.53 472.01,-156.53"/>
</a>
</g>
</g>
<!-- Node7 -->
<g id="Node000007" class="node">
<title>Node7</title>
<g id="a_Node000007"><a xlink:href="classcom_1_1teragrep_1_1buf__01_1_1buffer_1_1lease_1_1TrackedMemorySegmentLease.html#a40d6bf6b0b743c66cca14f0e655a6c08" target="_top" xlink:title=" ">
<polygon fill="white" stroke="#666666" points="446,-126 238,-126 238,-96 446,-96 446,-126"/>
<text text-anchor="start" x="246" y="-114" font-family="Helvetica,sans-Serif" font-size="10.00">com.teragrep.buf_01.buffer.lease.</text>
<text text-anchor="middle" x="342" y="-103" font-family="Helvetica,sans-Serif" font-size="10.00">TrackedMemorySegmentLease.position</text>
</a>
</g>
</g>
<!-- Node5&#45;&gt;Node7 -->
<g id="edge6_Node000005_Node000007" class="edge">
<title>Node5&#45;&gt;Node7</title>
<g id="a_edge6_Node000005_Node000007"><a xlink:title=" ">
<path fill="none" stroke="#63b8ff" d="M491.72,-134.37C474.11,-131.61 455.94,-128.75 438.6,-126.03"/>
<polygon fill="#63b8ff" stroke="#63b8ff" points="491.59,-137.9 502.01,-135.99 492.67,-130.98 491.59,-137.9"/>
</a>
</g>
</g>
<!-- Node7&#45;&gt;Node6 -->
<g id="edge8_Node000007_Node000006" class="edge">
<title>Node7&#45;&gt;Node6</title>
<g id="a_edge8_Node000007_Node000006"><a xlink:title=" ">
<path fill="none" stroke="#63b8ff" d="M256.22,-128.03C230.27,-133.24 201.93,-138.93 176.7,-144"/>
<polygon fill="#63b8ff" stroke="#63b8ff" points="256.92,-131.46 266.03,-126.06 255.54,-124.59 256.92,-131.46"/>
</a>
</g>
</g>
<!-- Node8 -->
<g id="Node000008" class="node">
<title>Node8</title>
<g id="a_Node000008"><a xlink:href="classcom_1_1teragrep_1_1buf__01_1_1buffer_1_1lease_1_1TrackedMemorySegmentLease.html#af2bd0a8507750ee4fce6b1e162e9d9b0" target="_top" xlink:title=" ">
<polygon fill="white" stroke="#666666" points="193,-126 9,-126 9,-96 193,-96 193,-126"/>
<text text-anchor="start" x="17" y="-114" font-family="Helvetica,sans-Serif" font-size="10.00">com.teragrep.buf_01.buffer.lease.</text>
<text text-anchor="middle" x="101" y="-103" font-family="Helvetica,sans-Serif" font-size="10.00">TrackedMemorySegmentLease.flip</text>
</a>
</g>
</g>
<!-- Node7&#45;&gt;Node8 -->
<g id="edge7_Node000007_Node000008" class="edge">
<title>Node7&#45;&gt;Node8</title>
<g id="a_edge7_Node000007_Node000008"><a xlink:title=" ">
<path fill="none" stroke="#63b8ff" d="M227.73,-111C216.12,-111 204.43,-111 193.09,-111"/>
<polygon fill="#63b8ff" stroke="#63b8ff" points="227.91,-114.5 237.91,-111 227.91,-107.5 227.91,-114.5"/>
</a>
</g>
</g>
<!-- Node9 -->
<g id="Node000009" class="node">
<title>Node9</title>
<g id="a_Node000009"><a xlink:href="classcom_1_1teragrep_1_1buf__01_1_1buffer_1_1lease_1_1TrackedMemorySegmentLease.html#aefa10758a28d1a3eb93a38d3ab250909" target="_top" xlink:title=" ">
<polygon fill="white" stroke="#666666" points="198,-78 4,-78 4,-48 198,-48 198,-78"/>
<text text-anchor="start" x="12" y="-66" font-family="Helvetica,sans-Serif" font-size="10.00">com.teragrep.buf_01.buffer.lease.</text>
<text text-anchor="middle" x="101" y="-55" font-family="Helvetica,sans-Serif" font-size="10.00">TrackedMemorySegmentLease.reset</text>
</a>
</g>
</g>
<!-- Node7&#45;&gt;Node9 -->
<g id="edge9_Node000007_Node000009" class="edge">
<title>Node7&#45;&gt;Node9</title>
<g id="a_edge9_Node000007_Node000009"><a xlink:title=" ">
<path fill="none" stroke="#63b8ff" d="M256.22,-93.97C230.27,-88.76 201.93,-83.07 176.7,-78"/>
<polygon fill="#63b8ff" stroke="#63b8ff" points="255.54,-97.41 266.03,-95.94 256.92,-90.54 255.54,-97.41"/>
</a>
</g>
</g>
<!-- Node10 -->
<g id="Node000010" class="node">
<title>Node10</title>
<g id="a_Node000010"><a xlink:href="classcom_1_1teragrep_1_1buf__01_1_1buffer_1_1lease_1_1TrackedMemorySegmentLease.html#a3ef1313248ce4d6af673cab4429767fe" target="_top" xlink:title=" ">
<polygon fill="white" stroke="#666666" points="202,-30 0,-30 0,0 202,0 202,-30"/>
<text text-anchor="start" x="8" y="-18" font-family="Helvetica,sans-Serif" font-size="10.00">com.teragrep.buf_01.buffer.lease.</text>
<text text-anchor="middle" x="101" y="-7" font-family="Helvetica,sans-Serif" font-size="10.00">TrackedMemorySegmentLease.rewind</text>
</a>
</g>
</g>
<!-- Node7&#45;&gt;Node10 -->
<g id="edge10_Node000007_Node000010" class="edge">
<title>Node7&#45;&gt;Node10</title>
<g id="a_edge10_Node000007_Node000010"><a xlink:title=" ">
<path fill="none" stroke="#63b8ff" d="M307.41,-90.66C279.9,-74.72 239.52,-52.98 202,-39 193.05,-35.66 183.47,-32.67 173.92,-30.03"/>
<polygon fill="#63b8ff" stroke="#63b8ff" points="305.83,-93.79 316.23,-95.82 309.37,-87.74 305.83,-93.79"/>
</a>
</g>
</g>
</g>
</svg>
