<?xml version="1.0" encoding="UTF-8" standalone="no"?>
<!DOCTYPE svg PUBLIC "-//W3C//DTD SVG 1.1//EN"
 "http://www.w3.org/Graphics/SVG/1.1/DTD/svg11.dtd">
<!-- Generated by graphviz version 2.43.0 (0)
 -->
<!-- Title: com.teragrep.buf_01.buffer.lease.TrackedMemorySegmentLease Pages: 1 -->
<svg width="444pt" height="86pt"
 viewBox="0.00 0.00 444.00 86.00" xmlns="http://www.w3.org/2000/svg" xmlns:xlink="http://www.w3.org/1999/xlink">
<g id="graph0" class="graph" transform="scale(1 1) rotate(0) translate(4 82)">
<title>com.teragrep.buf_01.buffer.lease.TrackedMemorySegmentLease</title>
<!-- Node1 -->
<g id="Node000001" class="node">
<title>Node1</title>
<g id="a_Node000001"><a xlink:title="Decorates a MemorySegmentLease, providing position, limit and iteration methods.">
<polygon fill="#999999" stroke="#666666" points="436,-54 255,-54 255,-24 436,-24 436,-54"/>
<text text-anchor="start" x="263" y="-42" font-family="Helvetica,sans-Serif" font-size="10.00">com.teragrep.buf_01.buffer.lease.</text>
<text text-anchor="middle" x="345.5" y="-31" font-family="Helvetica,sans-Serif" font-size="10.00">TrackedMemorySegmentLease</text>
</a>
</g>
</g>
<!-- Node2 -->
<g id="Node000002" class="node">
<title>Node2</title>
<g id="a_Node000002"><a xlink:href="interfacecom_1_1teragrep_1_1buf__01_1_1buffer_1_1lease_1_1TrackedLease.html" target="_top" xlink:title=" ">
<polygon fill="white" stroke="#666666" points="188,-78 0,-78 0,-48 188,-48 188,-78"/>
<text text-anchor="start" x="8" y="-66" font-family="Helvetica,sans-Serif" font-size="10.00">com.teragrep.buf_01.buffer.lease.</text>
<text text-anchor="middle" x="94" y="-55" font-family="Helvetica,sans-Serif" font-size="10.00">TrackedLease&lt; MemorySegment &gt;</text>
</a>
</g>
</g>
<!-- Node2&#45;&gt;Node1 -->
<g id="edge1_Node000001_Node000002" class="edge">
<title>Node2&#45;&gt;Node1</title>
<g id="a_edge1_Node000001_Node000002"><a xlink:title=" ">
<path fill="none" stroke="#63b8ff" d="M198.28,-53.07C216.99,-51.27 236.37,-49.4 254.66,-47.64"/>
<polygon fill="#63b8ff" stroke="#63b8ff" points="197.88,-49.59 188.26,-54.03 198.55,-56.56 197.88,-49.59"/>
</a>
</g>
</g>
<!-- Node3 -->
<g id="Node000003" class="node">
<title>Node3</title>
<g id="a_Node000003"><a xlink:href="interfacecom_1_1teragrep_1_1buf__01_1_1buffer_1_1lease_1_1Lease.html" target="_top" xlink:title=" ">
<polygon fill="white" stroke="#666666" points="184.5,-30 3.5,-30 3.5,0 184.5,0 184.5,-30"/>
<text text-anchor="start" x="11.5" y="-18" font-family="Helvetica,sans-Serif" font-size="10.00">com.teragrep.buf_01.buffer.lease.</text>
<text text-anchor="middle" x="94" y="-7" font-family="Helvetica,sans-Serif" font-size="10.00">Lease&lt; MemorySegment &gt;</text>
</a>
</g>
</g>
<!-- Node3&#45;&gt;Node1 -->
<g id="edge2_Node000001_Node000003" class="edge">
<title>Node3&#45;&gt;Node1</title>
<g id="a_edge2_Node000001_Node000003"><a xlink:title=" ">
<path fill="none" stroke="#9a32cd" stroke-dasharray="5,2" d="M194.69,-24.59C214.53,-26.5 235.25,-28.49 254.74,-30.37"/>
<polygon fill="#9a32cd" stroke="#9a32cd" points="195.01,-21.1 184.72,-23.63 194.34,-28.07 195.01,-21.1"/>
</a>
</g>
<text text-anchor="middle" x="221.5" y="-31" font-family="Helvetica,sans-Serif" font-size="10.00" fill="grey"> origin</text>
</g>
</g>
</svg>
