<?xml version="1.0" encoding="UTF-8" standalone="no"?>
<!DOCTYPE svg PUBLIC "-//W3C//DTD SVG 1.1//EN"
 "http://www.w3.org/Graphics/SVG/1.1/DTD/svg11.dtd">
<!-- Generated by graphviz version 2.43.0 (0)
 -->
<!-- Title: com.teragrep.buf_01.buffer.lease.TrackedMemorySegmentLease.leasedObject Pages: 1 -->
<svg width="712pt" height="59pt"
 viewBox="0.00 0.00 712.00 59.00" xmlns="http://www.w3.org/2000/svg" xmlns:xlink="http://www.w3.org/1999/xlink">
<g id="graph0" class="graph" transform="scale(1 1) rotate(0) translate(4 55)">
<title>com.teragrep.buf_01.buffer.lease.TrackedMemorySegmentLease.leasedObject</title>
<!-- Node1 -->
<g id="Node000001" class="node">
<title>Node1</title>
<g id="a_Node000001"><a xlink:title=" ">
<polygon fill="#999999" stroke="#666666" points="704,-51 471,-51 471,-21 704,-21 704,-51"/>
<text text-anchor="start" x="479" y="-39" font-family="Helvetica,sans-Serif" font-size="10.00">com.teragrep.buf_01.buffer.lease.</text>
<text text-anchor="middle" x="587.5" y="-28" font-family="Helvetica,sans-Serif" font-size="10.00">TrackedMemorySegmentLease.leasedObject</text>
</a>
</g>
</g>
<!-- Node2 -->
<g id="Node000002" class="node">
<title>Node2</title>
<g id="a_Node000002"><a xlink:href="classcom_1_1teragrep_1_1buf__01_1_1buffer_1_1lease_1_1TrackedMemorySegmentLease.html#a844524847207d55bc758d3e2944ce085" target="_top" xlink:title=" ">
<polygon fill="white" stroke="#666666" points="191,-51 0,-51 0,-21 191,-21 191,-51"/>
<text text-anchor="start" x="8" y="-39" font-family="Helvetica,sans-Serif" font-size="10.00">com.teragrep.buf_01.buffer.lease.</text>
<text text-anchor="middle" x="95.5" y="-28" font-family="Helvetica,sans-Serif" font-size="10.00">TrackedMemorySegmentLease.limit</text>
</a>
</g>
</g>
<!-- Node1&#45;&gt;Node2 -->
<g id="edge1_Node000001_Node000002" class="edge">
<title>Node1&#45;&gt;Node2</title>
<g id="a_edge1_Node000001_Node000002"><a xlink:title=" ">
<path fill="none" stroke="#63b8ff" d="M460.54,-38.68C451.9,-38.81 443.32,-38.92 435,-39 342.56,-39.92 319.44,-40.06 227,-39 215.44,-38.87 203.31,-38.67 191.29,-38.43"/>
<polygon fill="#63b8ff" stroke="#63b8ff" points="460.76,-42.18 470.7,-38.53 460.65,-35.18 460.76,-42.18"/>
</a>
</g>
</g>
<!-- Node3 -->
<g id="Node000003" class="node">
<title>Node3</title>
<g id="a_Node000003"><a xlink:href="classcom_1_1teragrep_1_1buf__01_1_1buffer_1_1lease_1_1TrackedMemorySegmentLease.html#a40d6bf6b0b743c66cca14f0e655a6c08" target="_top" xlink:title=" ">
<polygon fill="white" stroke="#666666" points="435,-30 227,-30 227,0 435,0 435,-30"/>
<text text-anchor="start" x="235" y="-18" font-family="Helvetica,sans-Serif" font-size="10.00">com.teragrep.buf_01.buffer.lease.</text>
<text text-anchor="middle" x="331" y="-7" font-family="Helvetica,sans-Serif" font-size="10.00">TrackedMemorySegmentLease.position</text>
</a>
</g>
</g>
<!-- Node1&#45;&gt;Node3 -->
<g id="edge2_Node000001_Node000003" class="edge">
<title>Node1&#45;&gt;Node3</title>
<g id="a_edge2_Node000001_Node000003"><a xlink:title=" ">
<path fill="none" stroke="#63b8ff" d="M460.8,-25.63C452.27,-24.92 443.74,-24.22 435.35,-23.53"/>
<polygon fill="#63b8ff" stroke="#63b8ff" points="460.54,-29.12 470.79,-26.45 461.11,-22.14 460.54,-29.12"/>
</a>
</g>
</g>
<!-- Node3&#45;&gt;Node2 -->
<g id="edge3_Node000003_Node000002" class="edge">
<title>Node3&#45;&gt;Node2</title>
<g id="a_edge3_Node000003_Node000002"><a xlink:title=" ">
<path fill="none" stroke="#63b8ff" d="M216.87,-25.17C208.3,-25.94 199.71,-26.72 191.28,-27.48"/>
<polygon fill="#63b8ff" stroke="#63b8ff" points="217.26,-28.65 226.9,-24.27 216.63,-21.68 217.26,-28.65"/>
</a>
</g>
</g>
</g>
</svg>
