<?xml version="1.0" encoding="UTF-8" standalone="no"?><svg xmlns="http://www.w3.org/2000/svg" xmlns:xlink="http://www.w3.org/1999/xlink" contentScriptType="application/ecmascript" contentStyleType="text/css" height="320px" preserveAspectRatio="none" style="width:538px;height:320px;" version="1.1" viewBox="0 0 538 320" width="538px" zoomAndPan="magnify"><defs><filter height="300%" id="fg451makt6lyx" width="300%" x="-1" y="-1"><feGaussianBlur result="blurOut" stdDeviation="2.0"/><feColorMatrix in="blurOut" result="blurOut2" type="matrix" values="0 0 0 0 0 0 0 0 0 0 0 0 0 0 0 0 0 0 .4 0"/><feOffset dx="4.0" dy="4.0" in="blurOut2" result="blurOut3"/><feBlend in="SourceGraphic" in2="blurOut3" mode="normal"/></filter></defs><g><!--MD5=[646e4dd7a5c347f1ee4b10dc64fad4e6]
class Lease--><rect fill="#FEFECE" filter="url(#fg451makt6lyx)" height="48" id="Lease" style="stroke: #A80036; stroke-width: 1.5;" width="69" x="33.5" y="261"/><ellipse cx="48.5" cy="277" fill="#B4A7E5" rx="11" ry="11" style="stroke: #A80036; stroke-width: 1.0;"/><path d="M44.4219,272.7656 L44.4219,270.6094 L51.8125,270.6094 L51.8125,272.7656 L49.3438,272.7656 L49.3438,280.8438 L51.8125,280.8438 L51.8125,283 L44.4219,283 L44.4219,280.8438 L46.8906,280.8438 L46.8906,272.7656 L44.4219,272.7656 Z "/><text fill="#000000" font-family="sans-serif" font-size="12" font-style="italic" lengthAdjust="spacingAndGlyphs" textLength="37" x="62.5" y="281.1543">Lease</text><line style="stroke: #A80036; stroke-width: 1.5;" x1="34.5" x2="101.5" y1="293" y2="293"/><line style="stroke: #A80036; stroke-width: 1.5;" x1="34.5" x2="101.5" y1="301" y2="301"/><!--MD5=[da72dfd2a36830e305ac35ec0dcdab8c]
class TrackedLease--><rect fill="#FEFECE" filter="url(#fg451makt6lyx)" height="137.6328" id="TrackedLease" style="stroke: #A80036; stroke-width: 1.5;" width="124" x="6" y="27"/><ellipse cx="23.25" cy="43" fill="#B4A7E5" rx="11" ry="11" style="stroke: #A80036; stroke-width: 1.0;"/><path d="M19.1719,38.7656 L19.1719,36.6094 L26.5625,36.6094 L26.5625,38.7656 L24.0938,38.7656 L24.0938,46.8438 L26.5625,46.8438 L26.5625,49 L19.1719,49 L19.1719,46.8438 L21.6406,46.8438 L21.6406,38.7656 L19.1719,38.7656 Z "/><text fill="#000000" font-family="sans-serif" font-size="12" font-style="italic" lengthAdjust="spacingAndGlyphs" textLength="87" x="37.75" y="47.1543">TrackedLease</text><line style="stroke: #A80036; stroke-width: 1.5;" x1="7" x2="129" y1="59" y2="59"/><line style="stroke: #A80036; stroke-width: 1.5;" x1="7" x2="129" y1="67" y2="67"/><ellipse cx="17" cy="78" fill="#84BE84" rx="3" ry="3" style="stroke: #038048; stroke-width: 1.0;"/><text fill="#000000" font-family="sans-serif" font-size="11" lengthAdjust="spacingAndGlyphs" textLength="58" x="26" y="81.2104">hasNext();</text><ellipse cx="17" cy="90.8047" fill="#84BE84" rx="3" ry="3" style="stroke: #038048; stroke-width: 1.0;"/><text fill="#000000" font-family="sans-serif" font-size="11" lengthAdjust="spacingAndGlyphs" textLength="36" x="26" y="94.0151">next();</text><ellipse cx="17" cy="103.6094" fill="#84BE84" rx="3" ry="3" style="stroke: #038048; stroke-width: 1.0;"/><text fill="#000000" font-family="sans-serif" font-size="11" lengthAdjust="spacingAndGlyphs" textLength="47" x="26" y="106.8198">write(b);</text><ellipse cx="17" cy="116.4141" fill="#84BE84" rx="3" ry="3" style="stroke: #038048; stroke-width: 1.0;"/><text fill="#000000" font-family="sans-serif" font-size="11" lengthAdjust="spacingAndGlyphs" textLength="98" x="26" y="119.6245">currentPosition();</text><ellipse cx="17" cy="129.2188" fill="#84BE84" rx="3" ry="3" style="stroke: #038048; stroke-width: 1.0;"/><text fill="#000000" font-family="sans-serif" font-size="11" lengthAdjust="spacingAndGlyphs" textLength="64" x="26" y="132.4292">position(p);</text><ellipse cx="17" cy="142.0234" fill="#84BE84" rx="3" ry="3" style="stroke: #038048; stroke-width: 1.0;"/><text fill="#000000" font-family="sans-serif" font-size="11" lengthAdjust="spacingAndGlyphs" textLength="80" x="26" y="145.2339">currentLimit();</text><ellipse cx="17" cy="154.8281" fill="#84BE84" rx="3" ry="3" style="stroke: #038048; stroke-width: 1.0;"/><text fill="#000000" font-family="sans-serif" font-size="11" lengthAdjust="spacingAndGlyphs" textLength="39" x="26" y="158.0386">limit(l);</text><path d="M165.5,8 L165.5,92 L130.17,96 L165.5,100 L165.5,184.4609 A0,0 0 0 0 165.5,184.4609 L526.5,184.4609 A0,0 0 0 0 526.5,184.4609 L526.5,18 L516.5,8 L165.5,8 A0,0 0 0 0 165.5,8 " fill="#FBFB77" filter="url(#fg451makt6lyx)" style="stroke: #A80036; stroke-width: 1.0;"/><path d="M516.5,8 L516.5,18 L526.5,18 L516.5,8 " fill="#FBFB77" style="stroke: #A80036; stroke-width: 1.0;"/><text fill="#000000" font-family="sans-serif" font-size="13" lengthAdjust="spacingAndGlyphs" textLength="101" x="171.5" y="25.0669">Responsibilities:</text><text fill="#000000" font-family="sans-serif" font-size="13" lengthAdjust="spacingAndGlyphs" textLength="161" x="171.5" y="40.1997">- Retain state for position</text><text fill="#000000" font-family="sans-serif" font-size="13" lengthAdjust="spacingAndGlyphs" textLength="138" x="171.5" y="55.3325">- Retain state for limit</text><text fill="#000000" font-family="sans-serif" font-size="13" lengthAdjust="spacingAndGlyphs" textLength="182" x="171.5" y="70.4653">- Advance or modify position</text><text fill="#000000" font-family="sans-serif" font-size="13" lengthAdjust="spacingAndGlyphs" textLength="158" x="171.5" y="85.5981">- Advance of modify limit</text><text fill="#000000" font-family="sans-serif" font-size="13" lengthAdjust="spacingAndGlyphs" textLength="120" x="171.5" y="100.731">- Provide next byte</text><text fill="#000000" font-family="sans-serif" font-size="13" lengthAdjust="spacingAndGlyphs" textLength="105" x="171.5" y="115.8638">- Write next byte</text><text fill="#000000" font-family="sans-serif" font-size="13" lengthAdjust="spacingAndGlyphs" textLength="340" x="171.5" y="130.9966">- Check if more bytes are available in current position</text><text fill="#000000" font-family="sans-serif" font-size="13" lengthAdjust="spacingAndGlyphs" textLength="0" x="175.5" y="146.1294"/><text fill="#000000" font-family="sans-serif" font-size="13" lengthAdjust="spacingAndGlyphs" textLength="89" x="171.5" y="161.2622">Collaborators:</text><text fill="#000000" font-family="sans-serif" font-size="13" lengthAdjust="spacingAndGlyphs" textLength="47" x="171.5" y="176.395">- Lease</text><!--MD5=[42f1d466138144a4bfd34b38c2c93f55]
link TrackedLease to Lease--><path d="M68,165.04 C68,196.3 68,231.67 68,255.66 " fill="none" id="TrackedLease-&gt;Lease" style="stroke: #A80036; stroke-width: 1.0;"/><polygon fill="#A80036" points="68,260.9,72,251.9,68,255.9,64,251.9,68,260.9" style="stroke: #A80036; stroke-width: 1.0;"/><text fill="#000000" font-family="sans-serif" font-size="13" lengthAdjust="spacingAndGlyphs" textLength="321" x="69" y="227.0669">provides read/write functionality and position state</text><!--MD5=[f5fb517c36d2cad49b7dd9d1ada5f488]
@startuml inline_umlgraph_6.svg
interface Lease
interface TrackedLease {
+ hasNext();
+ next();
+ write(b);
+ currentPosition();
+ position(p);
+ currentLimit();
+ limit(l);
}

TrackedLease - -> Lease : provides read/write functionality and position state

note right of TrackedLease
Responsibilities:
- Retain state for position
- Retain state for limit
- Advance or modify position
- Advance of modify limit
- Provide next byte
- Write next byte
- Check if more bytes are available in current position

Collaborators:
- Lease
end note
@enduml

PlantUML version 1.2020.02(Sun Mar 01 10:22:07 UTC 2020)
(GPL source distribution)
Java Runtime: OpenJDK Runtime Environment
JVM: OpenJDK 64-Bit Server VM
Java Version: 25.0.3+9-LTS
Operating System: Linux
Default Encoding: UTF-8
Language: en
Country: null
--></g></svg>