<?xml version="1.0" encoding="UTF-8" standalone="no"?>
<!DOCTYPE svg PUBLIC "-//W3C//DTD SVG 1.1//EN"
 "http://www.w3.org/Graphics/SVG/1.1/DTD/svg11.dtd">
<!-- Generated by graphviz version 2.43.0 (0)
 -->
<!-- Title: com.teragrep.buf_01.buffer.lease.Lease&lt; T &gt; Pages: 1 -->
<svg width="529pt" height="86pt"
 viewBox="0.00 0.00 529.00 86.00" xmlns="http://www.w3.org/2000/svg" xmlns:xlink="http://www.w3.org/1999/xlink">
<g id="graph0" class="graph" transform="scale(1 1) rotate(0) translate(4 82)">
<title>com.teragrep.buf_01.buffer.lease.Lease&lt; T &gt;</title>
<!-- Node1 -->
<g id="Node000001" class="node">
<title>Node1</title>
<g id="a_Node000001"><a xlink:title="Contains reference tracking and slicing functionality for the type T encapsulated object.">
<polygon fill="#999999" stroke="#666666" points="304,-54 123,-54 123,-24 304,-24 304,-54"/>
<text text-anchor="start" x="131" y="-42" font-family="Helvetica,sans-Serif" font-size="10.00">com.teragrep.buf_01.buffer.lease.</text>
<text text-anchor="middle" x="213.5" y="-31" font-family="Helvetica,sans-Serif" font-size="10.00">Lease&lt; T &gt;</text>
</a>
</g>
</g>
<!-- Node4 -->
<g id="Node000004" class="node">
<title>Node4</title>
<g id="a_Node000004"><a xlink:href="interfacecom_1_1teragrep_1_1buf__01_1_1buffer_1_1lease_1_1OpenableLease.html" target="_top" xlink:title="Lease that can be opened via the open() method provided by the Openable interface.">
<polygon fill="white" stroke="#666666" points="521,-78 340,-78 340,-48 521,-48 521,-78"/>
<text text-anchor="start" x="348" y="-66" font-family="Helvetica,sans-Serif" font-size="10.00">com.teragrep.buf_01.buffer.lease.</text>
<text text-anchor="middle" x="430.5" y="-55" font-family="Helvetica,sans-Serif" font-size="10.00">OpenableLease&lt; T &gt;</text>
</a>
</g>
</g>
<!-- Node1&#45;&gt;Node4 -->
<g id="edge3_Node000001_Node000004" class="edge">
<title>Node1&#45;&gt;Node4</title>
<g id="a_edge3_Node000001_Node000004"><a xlink:title=" ">
<path fill="none" stroke="#63b8ff" d="M314.1,-50.12C322.63,-51.07 331.23,-52.03 339.68,-52.97"/>
<polygon fill="#63b8ff" stroke="#63b8ff" points="314.45,-46.64 304.12,-49 313.67,-53.59 314.45,-46.64"/>
</a>
</g>
</g>
<!-- Node5 -->
<g id="Node000005" class="node">
<title>Node5</title>
<g id="a_Node000005"><a xlink:href="interfacecom_1_1teragrep_1_1buf__01_1_1buffer_1_1lease_1_1TrackedLease.html" target="_top" xlink:title="Provides an interface to read and write bytes from Lease with state for position and limit.">
<polygon fill="white" stroke="#666666" points="521,-30 340,-30 340,0 521,0 521,-30"/>
<text text-anchor="start" x="348" y="-18" font-family="Helvetica,sans-Serif" font-size="10.00">com.teragrep.buf_01.buffer.lease.</text>
<text text-anchor="middle" x="430.5" y="-7" font-family="Helvetica,sans-Serif" font-size="10.00">TrackedLease&lt; T &gt;</text>
</a>
</g>
</g>
<!-- Node1&#45;&gt;Node5 -->
<g id="edge4_Node000001_Node000005" class="edge">
<title>Node1&#45;&gt;Node5</title>
<g id="a_edge4_Node000001_Node000005"><a xlink:title=" ">
<path fill="none" stroke="#63b8ff" d="M314.1,-27.88C322.63,-26.93 331.23,-25.97 339.68,-25.03"/>
<polygon fill="#63b8ff" stroke="#63b8ff" points="313.67,-24.41 304.12,-29 314.45,-31.36 313.67,-24.41"/>
</a>
</g>
</g>
<!-- Node2 -->
<g id="Node000002" class="node">
<title>Node2</title>
<g id="a_Node000002"><a xlink:title=" ">
<polygon fill="white" stroke="#666666" points="87,-67.5 0,-67.5 0,-48.5 87,-48.5 87,-67.5"/>
<text text-anchor="middle" x="43.5" y="-55.5" font-family="Helvetica,sans-Serif" font-size="10.00">AutoCloseable</text>
</a>
</g>
</g>
<!-- Node2&#45;&gt;Node1 -->
<g id="edge1_Node000001_Node000002" class="edge">
<title>Node2&#45;&gt;Node1</title>
<g id="a_edge1_Node000001_Node000002"><a xlink:title=" ">
<path fill="none" stroke="#63b8ff" d="M97.41,-52.02C105.59,-51.09 114.23,-50.11 122.94,-49.13"/>
<polygon fill="#63b8ff" stroke="#63b8ff" points="96.87,-48.55 87.33,-53.16 97.66,-55.51 96.87,-48.55"/>
</a>
</g>
</g>
<!-- Node3 -->
<g id="Node000003" class="node">
<title>Node3</title>
<g id="a_Node000003"><a xlink:title=" ">
<polygon fill="white" stroke="#666666" points="73,-30.5 14,-30.5 14,-11.5 73,-11.5 73,-30.5"/>
<text text-anchor="middle" x="43.5" y="-18.5" font-family="Helvetica,sans-Serif" font-size="10.00">Stubable</text>
</a>
</g>
</g>
<!-- Node3&#45;&gt;Node1 -->
<g id="edge2_Node000001_Node000003" class="edge">
<title>Node3&#45;&gt;Node1</title>
<g id="a_edge2_Node000001_Node000003"><a xlink:title=" ">
<path fill="none" stroke="#63b8ff" d="M83.4,-25.17C95.36,-26.45 109.05,-27.92 122.95,-29.41"/>
<polygon fill="#63b8ff" stroke="#63b8ff" points="83.7,-21.68 73.38,-24.09 82.95,-28.64 83.7,-21.68"/>
</a>
</g>
</g>
</g>
</svg>
