<?xml version="1.0" encoding="UTF-8" standalone="no"?>
<!DOCTYPE svg PUBLIC "-//W3C//DTD SVG 1.1//EN"
 "http://www.w3.org/Graphics/SVG/1.1/DTD/svg11.dtd">
<!-- Generated by graphviz version 2.43.0 (0)
 -->
<!-- Title: com.teragrep.buf_01.buffer.lease.Lease&lt; T &gt; Pages: 1 -->
<svg width="189pt" height="93pt"
 viewBox="0.00 0.00 189.00 93.00" xmlns="http://www.w3.org/2000/svg" xmlns:xlink="http://www.w3.org/1999/xlink">
<g id="graph0" class="graph" transform="scale(1 1) rotate(0) translate(4 89)">
<title>com.teragrep.buf_01.buffer.lease.Lease&lt; T &gt;</title>
<!-- Node1 -->
<g id="Node000001" class="node">
<title>Node1</title>
<g id="a_Node000001"><a xlink:title="Contains reference tracking and slicing functionality for the type T encapsulated object.">
<polygon fill="#999999" stroke="#666666" points="181,-30 0,-30 0,0 181,0 181,-30"/>
<text text-anchor="start" x="8" y="-18" font-family="Helvetica,sans-Serif" font-size="10.00">com.teragrep.buf_01.buffer.lease.</text>
<text text-anchor="middle" x="90.5" y="-7" font-family="Helvetica,sans-Serif" font-size="10.00">Lease&lt; T &gt;</text>
</a>
</g>
</g>
<!-- Node2 -->
<g id="Node000002" class="node">
<title>Node2</title>
<g id="a_Node000002"><a xlink:title=" ">
<polygon fill="white" stroke="#666666" points="89,-85 2,-85 2,-66 89,-66 89,-85"/>
<text text-anchor="middle" x="45.5" y="-73" font-family="Helvetica,sans-Serif" font-size="10.00">AutoCloseable</text>
</a>
</g>
</g>
<!-- Node2&#45;&gt;Node1 -->
<g id="edge1_Node000001_Node000002" class="edge">
<title>Node2&#45;&gt;Node1</title>
<g id="a_edge1_Node000001_Node000002"><a xlink:title=" ">
<path fill="none" stroke="#63b8ff" d="M58.28,-57.88C65.03,-49.11 73.21,-38.48 79.64,-30.11"/>
<polygon fill="#63b8ff" stroke="#63b8ff" points="55.46,-55.81 52.14,-65.87 61.01,-60.08 55.46,-55.81"/>
</a>
</g>
</g>
<!-- Node3 -->
<g id="Node000003" class="node">
<title>Node3</title>
<g id="a_Node000003"><a xlink:title=" ">
<polygon fill="white" stroke="#666666" points="166,-85 107,-85 107,-66 166,-66 166,-85"/>
<text text-anchor="middle" x="136.5" y="-73" font-family="Helvetica,sans-Serif" font-size="10.00">Stubable</text>
</a>
</g>
</g>
<!-- Node3&#45;&gt;Node1 -->
<g id="edge2_Node000001_Node000003" class="edge">
<title>Node3&#45;&gt;Node1</title>
<g id="a_edge2_Node000001_Node000003"><a xlink:title=" ">
<path fill="none" stroke="#63b8ff" d="M123.43,-57.88C116.54,-49.11 108.17,-38.48 101.6,-30.11"/>
<polygon fill="#63b8ff" stroke="#63b8ff" points="120.78,-60.17 129.71,-65.87 126.28,-55.84 120.78,-60.17"/>
</a>
</g>
</g>
</g>
</svg>
