<?xml version="1.0" encoding="UTF-8" standalone="no"?>
<!DOCTYPE svg PUBLIC "-//W3C//DTD SVG 1.1//EN"
 "http://www.w3.org/Graphics/SVG/1.1/DTD/svg11.dtd">
<!-- Generated by graphviz version 2.43.0 (0)
 -->
<!-- Title: com.teragrep.buf_01.buffer.pool.DebugMemorySegmentLeasePool Pages: 1 -->
<svg width="476pt" height="86pt"
 viewBox="0.00 0.00 476.00 86.00" xmlns="http://www.w3.org/2000/svg" xmlns:xlink="http://www.w3.org/1999/xlink">
<g id="graph0" class="graph" transform="scale(1 1) rotate(0) translate(4 82)">
<title>com.teragrep.buf_01.buffer.pool.DebugMemorySegmentLeasePool</title>
<!-- Node1 -->
<g id="Node000001" class="node">
<title>Node1</title>
<g id="a_Node000001"><a xlink:title="(Only for testing) Pool that uses a separate Arena for all MemorySegments.">
<polygon fill="#999999" stroke="#666666" points="468,-54 286,-54 286,-24 468,-24 468,-54"/>
<text text-anchor="start" x="294" y="-42" font-family="Helvetica,sans-Serif" font-size="10.00">com.teragrep.buf_01.buffer.pool.</text>
<text text-anchor="middle" x="377" y="-31" font-family="Helvetica,sans-Serif" font-size="10.00">DebugMemorySegmentLeasePool</text>
</a>
</g>
</g>
<!-- Node2 -->
<g id="Node000002" class="node">
<title>Node2</title>
<g id="a_Node000002"><a xlink:title=" ">
<polygon fill="white" stroke="#666666" points="166,-78 32,-78 32,-48 166,-48 166,-78"/>
<text text-anchor="start" x="40" y="-66" font-family="Helvetica,sans-Serif" font-size="10.00">Pool&lt; OpenableLease</text>
<text text-anchor="middle" x="99" y="-55" font-family="Helvetica,sans-Serif" font-size="10.00">&lt; MemorySegment &gt; &gt;</text>
</a>
</g>
</g>
<!-- Node2&#45;&gt;Node1 -->
<g id="edge1_Node000001_Node000002" class="edge">
<title>Node2&#45;&gt;Node1</title>
<g id="a_edge1_Node000001_Node000002"><a xlink:title=" ">
<path fill="none" stroke="#63b8ff" d="M176.43,-56.35C210.35,-53.4 250.53,-49.91 285.91,-46.83"/>
<polygon fill="#63b8ff" stroke="#63b8ff" points="175.77,-52.9 166.11,-57.25 176.37,-59.87 175.77,-52.9"/>
</a>
</g>
</g>
<!-- Node3 -->
<g id="Node000003" class="node">
<title>Node3</title>
<g id="a_Node000003"><a xlink:href="interfacecom_1_1teragrep_1_1buf__01_1_1buffer_1_1lease_1_1OpenableLease.html" target="_top" xlink:title=" ">
<polygon fill="white" stroke="#666666" points="198,-30 0,-30 0,0 198,0 198,-30"/>
<text text-anchor="start" x="8" y="-18" font-family="Helvetica,sans-Serif" font-size="10.00">com.teragrep.buf_01.buffer.lease.</text>
<text text-anchor="middle" x="99" y="-7" font-family="Helvetica,sans-Serif" font-size="10.00">OpenableLease&lt; MemorySegment &gt;</text>
</a>
</g>
</g>
<!-- Node3&#45;&gt;Node1 -->
<g id="edge2_Node000001_Node000003" class="edge">
<title>Node3&#45;&gt;Node1</title>
<g id="a_edge2_Node000001_Node000003"><a xlink:title=" ">
<path fill="none" stroke="#9a32cd" stroke-dasharray="5,2" d="M208.2,-24.41C233.82,-26.64 260.87,-28.99 285.6,-31.14"/>
<polygon fill="#9a32cd" stroke="#9a32cd" points="208.35,-20.91 198.08,-23.53 207.74,-27.88 208.35,-20.91"/>
</a>
</g>
<text text-anchor="middle" x="242" y="-32" font-family="Helvetica,sans-Serif" font-size="10.00" fill="grey"> leaseStub</text>
</g>
</g>
</svg>
