<?xml version="1.0" encoding="UTF-8" standalone="no"?>
<!DOCTYPE svg PUBLIC "-//W3C//DTD SVG 1.1//EN"
 "http://www.w3.org/Graphics/SVG/1.1/DTD/svg11.dtd">
<!-- Generated by graphviz version 2.43.0 (0)
 -->
<!-- Title: com.teragrep.buf_01.buffer.lease.TrackedMemorySegmentLease.write Pages: 1 -->
<svg width="664pt" height="60pt"
 viewBox="0.00 0.00 664.00 60.00" xmlns="http://www.w3.org/2000/svg" xmlns:xlink="http://www.w3.org/1999/xlink">
<g id="graph0" class="graph" transform="scale(1 1) rotate(0) translate(4 56)">
<title>com.teragrep.buf_01.buffer.lease.TrackedMemorySegmentLease.write</title>
<!-- Node1 -->
<g id="Node000001" class="node">
<title>Node1</title>
<g id="a_Node000001"><a xlink:title=" ">
<polygon fill="#999999" stroke="#666666" points="194,-30 0,-30 0,0 194,0 194,-30"/>
<text text-anchor="start" x="8" y="-18" font-family="Helvetica,sans-Serif" font-size="10.00">com.teragrep.buf_01.buffer.lease.</text>
<text text-anchor="middle" x="97" y="-7" font-family="Helvetica,sans-Serif" font-size="10.00">TrackedMemorySegmentLease.write</text>
</a>
</g>
</g>
<!-- Node2 -->
<g id="Node000002" class="node">
<title>Node2</title>
<g id="a_Node000002"><a xlink:href="classcom_1_1teragrep_1_1buf__01_1_1buffer_1_1lease_1_1TrackedMemorySegmentLease.html#aff53bdf091bdb827968b7c4e2bed9858" target="_top" xlink:title=" ">
<polygon fill="white" stroke="#666666" points="439,-52 230,-52 230,-22 439,-22 439,-52"/>
<text text-anchor="start" x="238" y="-40" font-family="Helvetica,sans-Serif" font-size="10.00">com.teragrep.buf_01.buffer.lease.</text>
<text text-anchor="middle" x="334.5" y="-29" font-family="Helvetica,sans-Serif" font-size="10.00">TrackedMemorySegmentLease.hasNext</text>
</a>
</g>
</g>
<!-- Node1&#45;&gt;Node2 -->
<g id="edge1_Node000001_Node000002" class="edge">
<title>Node1&#45;&gt;Node2</title>
<g id="a_edge1_Node000001_Node000002"><a xlink:title=" ">
<path fill="none" stroke="#63b8ff" d="M194.13,-23.98C202.54,-24.77 211.1,-25.57 219.63,-26.36"/>
<polygon fill="#63b8ff" stroke="#63b8ff" points="219.35,-29.85 229.63,-27.3 220,-22.88 219.35,-29.85"/>
</a>
</g>
</g>
<!-- Node3 -->
<g id="Node000003" class="node">
<title>Node3</title>
<g id="a_Node000003"><a xlink:href="interfacecom_1_1teragrep_1_1buf__01_1_1buffer_1_1lease_1_1Lease.html#aafa073cb18228967f4c82f84a623a94e" target="_top" xlink:title=" ">
<polygon fill="white" stroke="#666666" points="656,-30 475,-30 475,0 656,0 656,-30"/>
<text text-anchor="start" x="483" y="-18" font-family="Helvetica,sans-Serif" font-size="10.00">com.teragrep.buf_01.buffer.lease.</text>
<text text-anchor="middle" x="565.5" y="-7" font-family="Helvetica,sans-Serif" font-size="10.00">Lease.leasedObject</text>
</a>
</g>
</g>
<!-- Node1&#45;&gt;Node3 -->
<g id="edge3_Node000001_Node000003" class="edge">
<title>Node1&#45;&gt;Node3</title>
<g id="a_edge3_Node000001_Node000003"><a xlink:title=" ">
<path fill="none" stroke="#63b8ff" d="M194.24,-13.37C206.28,-13.22 218.43,-13.09 230,-13 322.89,-12.3 346.11,-12.26 439,-13 447.3,-13.07 455.91,-13.16 464.55,-13.26"/>
<polygon fill="#63b8ff" stroke="#63b8ff" points="464.65,-16.76 474.7,-13.4 464.74,-9.77 464.65,-16.76"/>
</a>
</g>
</g>
<!-- Node2&#45;&gt;Node3 -->
<g id="edge2_Node000002_Node000003" class="edge">
<title>Node2&#45;&gt;Node3</title>
<g id="a_edge2_Node000002_Node000003"><a xlink:title=" ">
<path fill="none" stroke="#63b8ff" d="M439.28,-27.03C447.69,-26.22 456.18,-25.41 464.57,-24.6"/>
<polygon fill="#63b8ff" stroke="#63b8ff" points="465.11,-28.06 474.73,-23.62 464.44,-21.1 465.11,-28.06"/>
</a>
</g>
</g>
</g>
</svg>
