<?xml version="1.0" encoding="UTF-8" standalone="no"?>
<!DOCTYPE svg PUBLIC "-//W3C//DTD SVG 1.1//EN"
 "http://www.w3.org/Graphics/SVG/1.1/DTD/svg11.dtd">
<!-- Generated by graphviz version 2.43.0 (0)
 -->
<!-- Title: com.teragrep.buf_01.buffer.lease.TrackedMemorySegmentLease.limit Pages: 1 -->
<svg width="963pt" height="129pt"
 viewBox="0.00 0.00 963.00 129.00" xmlns="http://www.w3.org/2000/svg" xmlns:xlink="http://www.w3.org/1999/xlink">
<g id="graph0" class="graph" transform="scale(1 1) rotate(0) translate(4 125)">
<title>com.teragrep.buf_01.buffer.lease.TrackedMemorySegmentLease.limit</title>
<!-- Node1 -->
<g id="Node000001" class="node">
<title>Node1</title>
<g id="a_Node000001"><a xlink:title=" ">
<polygon fill="#999999" stroke="#666666" points="191,-78 0,-78 0,-48 191,-48 191,-78"/>
<text text-anchor="start" x="8" y="-66" font-family="Helvetica,sans-Serif" font-size="10.00">com.teragrep.buf_01.buffer.lease.</text>
<text text-anchor="middle" x="95.5" y="-55" font-family="Helvetica,sans-Serif" font-size="10.00">TrackedMemorySegmentLease.limit</text>
</a>
</g>
</g>
<!-- Node2 -->
<g id="Node000002" class="node">
<title>Node2</title>
<g id="a_Node000002"><a xlink:href="classcom_1_1teragrep_1_1buf__01_1_1buffer_1_1lease_1_1TrackedMemorySegmentLease.html#a66942cd255e8a4b5a12f27c11eea50f0" target="_top" xlink:title=" ">
<polygon fill="white" stroke="#666666" points="469,-121 227,-121 227,-91 469,-91 469,-121"/>
<text text-anchor="start" x="235" y="-109" font-family="Helvetica,sans-Serif" font-size="10.00">com.teragrep.buf_01.buffer.lease.</text>
<text text-anchor="middle" x="348" y="-98" font-family="Helvetica,sans-Serif" font-size="10.00">TrackedMemorySegmentLease.currentPosition</text>
</a>
</g>
</g>
<!-- Node1&#45;&gt;Node2 -->
<g id="edge1_Node000001_Node000002" class="edge">
<title>Node1&#45;&gt;Node2</title>
<g id="a_edge1_Node000001_Node000002"><a xlink:title=" ">
<path fill="none" stroke="#63b8ff" d="M184.11,-78.04C205.18,-81.66 227.82,-85.54 249.32,-89.23"/>
<polygon fill="#63b8ff" stroke="#63b8ff" points="248.99,-92.73 259.44,-90.97 250.17,-85.83 248.99,-92.73"/>
</a>
</g>
</g>
<!-- Node3 -->
<g id="Node000003" class="node">
<title>Node3</title>
<g id="a_Node000003"><a xlink:href="classcom_1_1teragrep_1_1buf__01_1_1buffer_1_1lease_1_1TrackedMemorySegmentLease.html#a4e3c99ee0f5e4d2daedf21ff0764154f" target="_top" xlink:title=" ">
<polygon fill="white" stroke="#666666" points="738,-78 505,-78 505,-48 738,-48 738,-78"/>
<text text-anchor="start" x="513" y="-66" font-family="Helvetica,sans-Serif" font-size="10.00">com.teragrep.buf_01.buffer.lease.</text>
<text text-anchor="middle" x="621.5" y="-55" font-family="Helvetica,sans-Serif" font-size="10.00">TrackedMemorySegmentLease.leasedObject</text>
</a>
</g>
</g>
<!-- Node1&#45;&gt;Node3 -->
<g id="edge2_Node000001_Node000003" class="edge">
<title>Node1&#45;&gt;Node3</title>
<g id="a_edge2_Node000001_Node000003"><a xlink:title=" ">
<path fill="none" stroke="#63b8ff" d="M191.09,-63C275.99,-63 401.25,-63 494.6,-63"/>
<polygon fill="#63b8ff" stroke="#63b8ff" points="494.67,-66.5 504.67,-63 494.67,-59.5 494.67,-66.5"/>
</a>
</g>
</g>
<!-- Node5 -->
<g id="Node000005" class="node">
<title>Node5</title>
<g id="a_Node000005"><a xlink:href="classcom_1_1teragrep_1_1buf__01_1_1buffer_1_1lease_1_1TrackedMemorySegmentLease.html#a40d6bf6b0b743c66cca14f0e655a6c08" target="_top" xlink:title=" ">
<polygon fill="white" stroke="#666666" points="452,-35 244,-35 244,-5 452,-5 452,-35"/>
<text text-anchor="start" x="252" y="-23" font-family="Helvetica,sans-Serif" font-size="10.00">com.teragrep.buf_01.buffer.lease.</text>
<text text-anchor="middle" x="348" y="-12" font-family="Helvetica,sans-Serif" font-size="10.00">TrackedMemorySegmentLease.position</text>
</a>
</g>
</g>
<!-- Node1&#45;&gt;Node5 -->
<g id="edge4_Node000001_Node000005" class="edge">
<title>Node1&#45;&gt;Node5</title>
<g id="a_edge4_Node000001_Node000005"><a xlink:title=" ">
<path fill="none" stroke="#63b8ff" d="M184.11,-47.96C205.18,-44.34 227.82,-40.46 249.32,-36.77"/>
<polygon fill="#63b8ff" stroke="#63b8ff" points="250.17,-40.17 259.44,-35.03 248.99,-33.27 250.17,-40.17"/>
</a>
</g>
</g>
<!-- Node4 -->
<g id="Node000004" class="node">
<title>Node4</title>
<g id="a_Node000004"><a xlink:href="interfacecom_1_1teragrep_1_1buf__01_1_1buffer_1_1lease_1_1Lease.html#aafa073cb18228967f4c82f84a623a94e" target="_top" xlink:title=" ">
<polygon fill="white" stroke="#666666" points="955,-78 774,-78 774,-48 955,-48 955,-78"/>
<text text-anchor="start" x="782" y="-66" font-family="Helvetica,sans-Serif" font-size="10.00">com.teragrep.buf_01.buffer.lease.</text>
<text text-anchor="middle" x="864.5" y="-55" font-family="Helvetica,sans-Serif" font-size="10.00">Lease.leasedObject</text>
</a>
</g>
</g>
<!-- Node3&#45;&gt;Node4 -->
<g id="edge3_Node000003_Node000004" class="edge">
<title>Node3&#45;&gt;Node4</title>
<g id="a_edge3_Node000003_Node000004"><a xlink:title=" ">
<path fill="none" stroke="#63b8ff" d="M738.06,-63C746.56,-63 755.1,-63 763.5,-63"/>
<polygon fill="#63b8ff" stroke="#63b8ff" points="763.66,-66.5 773.66,-63 763.66,-59.5 763.66,-66.5"/>
</a>
</g>
</g>
<!-- Node5&#45;&gt;Node3 -->
<g id="edge6_Node000005_Node000003" class="edge">
<title>Node5&#45;&gt;Node3</title>
<g id="a_edge6_Node000005_Node000003"><a xlink:title=" ">
<path fill="none" stroke="#63b8ff" d="M443.96,-35.04C467.11,-38.71 492,-42.65 515.58,-46.38"/>
<polygon fill="#63b8ff" stroke="#63b8ff" points="515.17,-49.86 525.6,-47.97 516.27,-42.95 515.17,-49.86"/>
</a>
</g>
</g>
<!-- Node6 -->
<g id="Node000006" class="node">
<title>Node6</title>
<g id="a_Node000006"><a xlink:href="classcom_1_1teragrep_1_1buf__01_1_1buffer_1_1lease_1_1TrackedMemorySegmentLease.html#ae02ea964432c1932f34ea83cbcc88d94" target="_top" xlink:title=" ">
<polygon fill="white" stroke="#666666" points="735.5,-30 507.5,-30 507.5,0 735.5,0 735.5,-30"/>
<text text-anchor="start" x="515.5" y="-18" font-family="Helvetica,sans-Serif" font-size="10.00">com.teragrep.buf_01.buffer.lease.</text>
<text text-anchor="middle" x="621.5" y="-7" font-family="Helvetica,sans-Serif" font-size="10.00">TrackedMemorySegmentLease.currentLimit</text>
</a>
</g>
</g>
<!-- Node5&#45;&gt;Node6 -->
<g id="edge5_Node000005_Node000006" class="edge">
<title>Node5&#45;&gt;Node6</title>
<g id="a_edge5_Node000005_Node000006"><a xlink:title=" ">
<path fill="none" stroke="#63b8ff" d="M452.03,-18.1C466.66,-17.83 481.82,-17.55 496.79,-17.28"/>
<polygon fill="#63b8ff" stroke="#63b8ff" points="497.18,-20.77 507.11,-17.09 497.05,-13.77 497.18,-20.77"/>
</a>
</g>
</g>
</g>
</svg>
