<?xml version="1.0" encoding="UTF-8" standalone="no"?>
<!DOCTYPE svg PUBLIC "-//W3C//DTD SVG 1.1//EN"
 "http://www.w3.org/Graphics/SVG/1.1/DTD/svg11.dtd">
<!-- Generated by graphviz version 2.43.0 (0)
 -->
<!-- Title: Graphical Class Hierarchy Pages: 1 -->
<svg width="264pt" height="86pt"
 viewBox="0.00 0.00 264.00 86.00" xmlns="http://www.w3.org/2000/svg" xmlns:xlink="http://www.w3.org/1999/xlink">
<g id="graph0" class="graph" transform="scale(1 1) rotate(0) translate(4 82)">
<title>Graphical Class Hierarchy</title>
<!-- Node0 -->
<g id="Node000000" class="node">
<title>Node0</title>
<g id="a_Node000000"><a xlink:title=" ">
<polygon fill="#e0e0e0" stroke="#999999" points="38,-48.5 0,-48.5 0,-29.5 38,-29.5 38,-48.5"/>
<text text-anchor="middle" x="19" y="-36.5" font-family="Helvetica,sans-Serif" font-size="10.00">Pool</text>
</a>
</g>
</g>
<!-- Node1 -->
<g id="Node000001" class="node">
<title>Node1</title>
<g id="a_Node000001"><a xlink:href="classcom_1_1teragrep_1_1buf__01_1_1buffer_1_1pool_1_1DebugMemorySegmentLeasePool.html" target="_top" xlink:title="(Only for testing) Pool that uses a separate Arena for all MemorySegments.">
<polygon fill="white" stroke="#666666" points="256,-78 74,-78 74,-48 256,-48 256,-78"/>
<text text-anchor="start" x="82" y="-66" font-family="Helvetica,sans-Serif" font-size="10.00">com.teragrep.buf_01.buffer.pool.</text>
<text text-anchor="middle" x="165" y="-55" font-family="Helvetica,sans-Serif" font-size="10.00">DebugMemorySegmentLeasePool</text>
</a>
</g>
</g>
<!-- Node0&#45;&gt;Node1 -->
<g id="edge19_Node000000_Node000001" class="edge">
<title>Node0&#45;&gt;Node1</title>
<g id="a_edge19_Node000000_Node000001"><a xlink:title=" ">
<path fill="none" stroke="#63b8ff" d="M48.32,-43.72C56,-45 64.75,-46.46 73.92,-47.99"/>
<polygon fill="#63b8ff" stroke="#63b8ff" points="48.68,-40.23 38.24,-42.04 47.53,-47.14 48.68,-40.23"/>
</a>
</g>
</g>
<!-- Node2 -->
<g id="Node000002" class="node">
<title>Node2</title>
<g id="a_Node000002"><a xlink:href="classcom_1_1teragrep_1_1buf__01_1_1buffer_1_1pool_1_1OpeningPool.html" target="_top" xlink:title="Decorator for the actual Pool implementation.">
<polygon fill="white" stroke="#666666" points="253,-30 77,-30 77,0 253,0 253,-30"/>
<text text-anchor="start" x="85" y="-18" font-family="Helvetica,sans-Serif" font-size="10.00">com.teragrep.buf_01.buffer.pool.</text>
<text text-anchor="middle" x="165" y="-7" font-family="Helvetica,sans-Serif" font-size="10.00">OpeningPool</text>
</a>
</g>
</g>
<!-- Node0&#45;&gt;Node2 -->
<g id="edge20_Node000000_Node000002" class="edge">
<title>Node0&#45;&gt;Node2</title>
<g id="a_edge20_Node000000_Node000002"><a xlink:title=" ">
<path fill="none" stroke="#63b8ff" d="M48.24,-34.29C56.74,-32.88 66.55,-31.24 76.8,-29.53"/>
<polygon fill="#63b8ff" stroke="#63b8ff" points="47.53,-30.86 38.24,-35.96 48.68,-37.77 47.53,-30.86"/>
</a>
</g>
</g>
</g>
</svg>
