<?xml version="1.0" encoding="UTF-8" standalone="no"?><svg xmlns="http://www.w3.org/2000/svg" xmlns:xlink="http://www.w3.org/1999/xlink" contentScriptType="application/ecmascript" contentStyleType="text/css" height="245px" preserveAspectRatio="none" style="width:476px;height:245px;" version="1.1" viewBox="0 0 476 245" width="476px" zoomAndPan="magnify"><defs><filter height="300%" id="f1blmdmymbfv0e" width="300%" x="-1" y="-1"><feGaussianBlur result="blurOut" stdDeviation="2.0"/><feColorMatrix in="blurOut" result="blurOut2" type="matrix" values="0 0 0 0 0 0 0 0 0 0 0 0 0 0 0 0 0 0 .4 0"/><feOffset dx="4.0" dy="4.0" in="blurOut2" result="blurOut3"/><feBlend in="SourceGraphic" in2="blurOut3" mode="normal"/></filter></defs><g><!--MD5=[243b7bee447fe7adb0b85af03775761f]
class MemorySegmentContainer--><rect fill="#FEFECE" filter="url(#f1blmdmymbfv0e)" height="86.4141" id="MemorySegmentContainer" style="stroke: #A80036; stroke-width: 1.5;" width="197" x="6" y="15.5"/><ellipse cx="21" cy="31.5" fill="#ADD1B2" rx="11" ry="11" style="stroke: #A80036; stroke-width: 1.0;"/><path d="M23.9688,37.1406 Q23.3906,37.4375 22.75,37.5781 Q22.1094,37.7344 21.4063,37.7344 Q18.9063,37.7344 17.5781,36.0938 Q16.2656,34.4375 16.2656,31.3125 Q16.2656,28.1875 17.5781,26.5313 Q18.9063,24.875 21.4063,24.875 Q22.1094,24.875 22.75,25.0313 Q23.4063,25.1875 23.9688,25.4844 L23.9688,28.2031 Q23.3438,27.625 22.75,27.3594 Q22.1563,27.0781 21.5313,27.0781 Q20.1875,27.0781 19.5,28.1563 Q18.8125,29.2188 18.8125,31.3125 Q18.8125,33.4063 19.5,34.4844 Q20.1875,35.5469 21.5313,35.5469 Q22.1563,35.5469 22.75,35.2813 Q23.3438,35 23.9688,34.4219 L23.9688,37.1406 Z "/><text fill="#000000" font-family="sans-serif" font-size="12" lengthAdjust="spacingAndGlyphs" textLength="165" x="35" y="35.6543">MemorySegmentContainer</text><line style="stroke: #A80036; stroke-width: 1.5;" x1="7" x2="202" y1="47.5" y2="47.5"/><line style="stroke: #A80036; stroke-width: 1.5;" x1="7" x2="202" y1="55.5" y2="55.5"/><ellipse cx="17" cy="66.5" fill="#84BE84" rx="3" ry="3" style="stroke: #038048; stroke-width: 1.0;"/><text fill="#000000" font-family="sans-serif" font-size="11" lengthAdjust="spacingAndGlyphs" textLength="22" x="26" y="69.7104">id();</text><ellipse cx="17" cy="79.3047" fill="#84BE84" rx="3" ry="3" style="stroke: #038048; stroke-width: 1.0;"/><text fill="#000000" font-family="sans-serif" font-size="11" lengthAdjust="spacingAndGlyphs" textLength="110" x="26" y="82.5151">memorySegment();</text><ellipse cx="17" cy="92.1094" fill="#84BE84" rx="3" ry="3" style="stroke: #038048; stroke-width: 1.0;"/><text fill="#000000" font-family="sans-serif" font-size="11" lengthAdjust="spacingAndGlyphs" textLength="48" x="26" y="95.3198">isStub();</text><!--MD5=[5f4147abe85723a46671276136bd6156]
class MemorySegmentLease--><rect fill="#FEFECE" filter="url(#f1blmdmymbfv0e)" height="48" id="MemorySegmentLease" style="stroke: #A80036; stroke-width: 1.5;" width="173" x="18" y="186"/><ellipse cx="33" cy="202" fill="#ADD1B2" rx="11" ry="11" style="stroke: #A80036; stroke-width: 1.0;"/><path d="M35.9688,207.6406 Q35.3906,207.9375 34.75,208.0781 Q34.1094,208.2344 33.4063,208.2344 Q30.9063,208.2344 29.5781,206.5938 Q28.2656,204.9375 28.2656,201.8125 Q28.2656,198.6875 29.5781,197.0313 Q30.9063,195.375 33.4063,195.375 Q34.1094,195.375 34.75,195.5313 Q35.4063,195.6875 35.9688,195.9844 L35.9688,198.7031 Q35.3438,198.125 34.75,197.8594 Q34.1563,197.5781 33.5313,197.5781 Q32.1875,197.5781 31.5,198.6563 Q30.8125,199.7188 30.8125,201.8125 Q30.8125,203.9063 31.5,204.9844 Q32.1875,206.0469 33.5313,206.0469 Q34.1563,206.0469 34.75,205.7813 Q35.3438,205.5 35.9688,204.9219 L35.9688,207.6406 Z "/><text fill="#000000" font-family="sans-serif" font-size="12" lengthAdjust="spacingAndGlyphs" textLength="141" x="47" y="206.1543">MemorySegmentLease</text><line style="stroke: #A80036; stroke-width: 1.5;" x1="19" x2="190" y1="218" y2="218"/><line style="stroke: #A80036; stroke-width: 1.5;" x1="19" x2="190" y1="226" y2="226"/><path d="M238.5,8 L238.5,54.5 L203.4,58.5 L238.5,62.5 L238.5,108.7969 A0,0 0 0 0 238.5,108.7969 L464.5,108.7969 A0,0 0 0 0 464.5,108.7969 L464.5,18 L454.5,8 L238.5,8 A0,0 0 0 0 238.5,8 " fill="#FBFB77" filter="url(#f1blmdmymbfv0e)" style="stroke: #A80036; stroke-width: 1.0;"/><path d="M454.5,8 L454.5,18 L464.5,18 L454.5,8 " fill="#FBFB77" style="stroke: #A80036; stroke-width: 1.0;"/><text fill="#000000" font-family="sans-serif" font-size="13" lengthAdjust="spacingAndGlyphs" textLength="101" x="244.5" y="25.0669">Responsibilities:</text><text fill="#000000" font-family="sans-serif" font-size="13" lengthAdjust="spacingAndGlyphs" textLength="205" x="244.5" y="40.1997">- Contains the MemorySegment</text><text fill="#000000" font-family="sans-serif" font-size="13" lengthAdjust="spacingAndGlyphs" textLength="90" x="244.5" y="55.3325">- Identification</text><text fill="#000000" font-family="sans-serif" font-size="13" lengthAdjust="spacingAndGlyphs" textLength="76" x="244.5" y="70.4653">- Stubability</text><text fill="#000000" font-family="sans-serif" font-size="13" lengthAdjust="spacingAndGlyphs" textLength="89" x="244.5" y="85.5981">Collaborators:</text><text fill="#000000" font-family="sans-serif" font-size="13" lengthAdjust="spacingAndGlyphs" textLength="158" x="244.5" y="100.731">- MemorySegmentLease</text><!--MD5=[d1010c18ce360e8df93da85b0afff752]
link MemorySegmentContainer to MemorySegmentLease--><path d="M104.5,101.54 C104.5,126.81 104.5,158.28 104.5,180.62 " fill="none" id="MemorySegmentContainer-&gt;MemorySegmentLease" style="stroke: #A80036; stroke-width: 1.0;"/><polygon fill="#A80036" points="104.5,185.81,108.5,176.81,104.5,180.81,100.5,176.81,104.5,185.81" style="stroke: #A80036; stroke-width: 1.0;"/><text fill="#000000" font-family="sans-serif" font-size="13" lengthAdjust="spacingAndGlyphs" textLength="113" x="105.5" y="152.0669">memorySegment</text><!--MD5=[fe1b3b6941e3c507c488386366fa8ad9]
@startuml inline_umlgraph_1.svg
class MemorySegmentContainer {
+ id();
+ memorySegment();
+ isStub();
}
MemorySegmentContainer - -> MemorySegmentLease : memorySegment
note right of MemorySegmentContainer
Responsibilities:
- Contains the MemorySegment
- Identification
- Stubability
Collaborators:
- MemorySegmentLease
end note
@enduml

PlantUML version 1.2020.02(Sun Mar 01 10:22:07 UTC 2020)
(GPL source distribution)
Java Runtime: OpenJDK Runtime Environment
JVM: OpenJDK 64-Bit Server VM
Java Version: 25.0.3+9-LTS
Operating System: Linux
Default Encoding: UTF-8
Language: en
Country: null
--></g></svg>