<?xml version="1.0" encoding="UTF-8" standalone="no"?>
<!DOCTYPE svg PUBLIC "-//W3C//DTD SVG 1.1//EN"
 "http://www.w3.org/Graphics/SVG/1.1/DTD/svg11.dtd">
<!-- Generated by graphviz version 2.43.0 (0)
 -->
<!-- Title: com.teragrep.buf_01.buffer.lease.Lease.leasedObject Pages: 1 -->
<svg width="929pt" height="200pt"
 viewBox="0.00 0.00 929.00 200.00" xmlns="http://www.w3.org/2000/svg" xmlns:xlink="http://www.w3.org/1999/xlink">
<g id="graph0" class="graph" transform="scale(1 1) rotate(0) translate(4 196)">
<title>com.teragrep.buf_01.buffer.lease.Lease.leasedObject</title>
<!-- Node1 -->
<g id="Node000001" class="node">
<title>Node1</title>
<g id="a_Node000001"><a xlink:title=" ">
<polygon fill="#999999" stroke="#666666" points="921,-132 740,-132 740,-102 921,-102 921,-132"/>
<text text-anchor="start" x="748" y="-120" font-family="Helvetica,sans-Serif" font-size="10.00">com.teragrep.buf_01.buffer.lease.</text>
<text text-anchor="middle" x="830.5" y="-109" font-family="Helvetica,sans-Serif" font-size="10.00">Lease.leasedObject</text>
</a>
</g>
</g>
<!-- Node2 -->
<g id="Node000002" class="node">
<title>Node2</title>
<g id="a_Node000002"><a xlink:href="classcom_1_1teragrep_1_1buf__01_1_1buffer_1_1lease_1_1TrackedMemorySegmentLease.html#aff53bdf091bdb827968b7c4e2bed9858" target="_top" xlink:title=" ">
<polygon fill="white" stroke="#666666" points="692,-154 483,-154 483,-124 692,-124 692,-154"/>
<text text-anchor="start" x="491" y="-142" font-family="Helvetica,sans-Serif" font-size="10.00">com.teragrep.buf_01.buffer.lease.</text>
<text text-anchor="middle" x="587.5" y="-131" font-family="Helvetica,sans-Serif" font-size="10.00">TrackedMemorySegmentLease.hasNext</text>
</a>
</g>
</g>
<!-- Node1&#45;&gt;Node2 -->
<g id="edge1_Node000001_Node000002" class="edge">
<title>Node1&#45;&gt;Node2</title>
<g id="a_edge1_Node000001_Node000002"><a xlink:title=" ">
<path fill="none" stroke="#63b8ff" d="M729.48,-126.13C717.14,-127.26 704.51,-128.41 692.13,-129.54"/>
<polygon fill="#63b8ff" stroke="#63b8ff" points="730.12,-129.59 739.76,-125.19 729.48,-122.62 730.12,-129.59"/>
</a>
</g>
</g>
<!-- Node3 -->
<g id="Node000003" class="node">
<title>Node3</title>
<g id="a_Node000003"><a xlink:href="classcom_1_1teragrep_1_1buf__01_1_1buffer_1_1lease_1_1TrackedMemorySegmentLease.html#aa9ba09bfafb6da748dab1b1cbc1764ab" target="_top" xlink:title=" ">
<polygon fill="white" stroke="#666666" points="426.5,-192 235.5,-192 235.5,-162 426.5,-162 426.5,-192"/>
<text text-anchor="start" x="243.5" y="-180" font-family="Helvetica,sans-Serif" font-size="10.00">com.teragrep.buf_01.buffer.lease.</text>
<text text-anchor="middle" x="331" y="-169" font-family="Helvetica,sans-Serif" font-size="10.00">TrackedMemorySegmentLease.next</text>
</a>
</g>
</g>
<!-- Node1&#45;&gt;Node3 -->
<g id="edge8_Node000001_Node000003" class="edge">
<title>Node1&#45;&gt;Node3</title>
<g id="a_edge8_Node000001_Node000003"><a xlink:title=" ">
<path fill="none" stroke="#63b8ff" d="M787.79,-136.03C763.81,-146.02 732.82,-157.32 704,-163 610.94,-181.33 502.33,-183.24 426.58,-181.54"/>
<polygon fill="#63b8ff" stroke="#63b8ff" points="789.45,-139.13 797.28,-132 786.71,-132.69 789.45,-139.13"/>
</a>
</g>
</g>
<!-- Node4 -->
<g id="Node000004" class="node">
<title>Node4</title>
<g id="a_Node000004"><a xlink:href="classcom_1_1teragrep_1_1buf__01_1_1buffer_1_1lease_1_1TrackedMemorySegmentLease.html#ae5b248e69f4661a3f3e94d2c64e4e3dc" target="_top" xlink:title=" ">
<polygon fill="white" stroke="#666666" points="428,-135 234,-135 234,-105 428,-105 428,-135"/>
<text text-anchor="start" x="242" y="-123" font-family="Helvetica,sans-Serif" font-size="10.00">com.teragrep.buf_01.buffer.lease.</text>
<text text-anchor="middle" x="331" y="-112" font-family="Helvetica,sans-Serif" font-size="10.00">TrackedMemorySegmentLease.write</text>
</a>
</g>
</g>
<!-- Node1&#45;&gt;Node4 -->
<g id="edge9_Node000001_Node000004" class="edge">
<title>Node1&#45;&gt;Node4</title>
<g id="a_edge9_Node000001_Node000004"><a xlink:title=" ">
<path fill="none" stroke="#63b8ff" d="M729.55,-115.26C720.91,-115.16 712.3,-115.07 704,-115 600.45,-114.17 574.54,-113.14 471,-115 457.12,-115.25 442.46,-115.64 428.07,-116.09"/>
<polygon fill="#63b8ff" stroke="#63b8ff" points="729.65,-118.76 739.7,-115.4 729.74,-111.77 729.65,-118.76"/>
</a>
</g>
</g>
<!-- Node5 -->
<g id="Node000005" class="node">
<title>Node5</title>
<g id="a_Node000005"><a xlink:href="classcom_1_1teragrep_1_1buf__01_1_1buffer_1_1lease_1_1TrackedMemorySegmentLease.html#a4e3c99ee0f5e4d2daedf21ff0764154f" target="_top" xlink:title=" ">
<polygon fill="white" stroke="#666666" points="704,-68 471,-68 471,-38 704,-38 704,-68"/>
<text text-anchor="start" x="479" y="-56" font-family="Helvetica,sans-Serif" font-size="10.00">com.teragrep.buf_01.buffer.lease.</text>
<text text-anchor="middle" x="587.5" y="-45" font-family="Helvetica,sans-Serif" font-size="10.00">TrackedMemorySegmentLease.leasedObject</text>
</a>
</g>
</g>
<!-- Node1&#45;&gt;Node5 -->
<g id="edge4_Node000001_Node000005" class="edge">
<title>Node1&#45;&gt;Node5</title>
<g id="a_edge4_Node000001_Node000005"><a xlink:title=" ">
<path fill="none" stroke="#63b8ff" d="M767.09,-99.25C746.98,-93.62 724.58,-87.45 704,-82 686.41,-77.34 667.27,-72.46 649.72,-68.06"/>
<polygon fill="#63b8ff" stroke="#63b8ff" points="766.19,-102.63 776.76,-101.96 768.08,-95.89 766.19,-102.63"/>
</a>
</g>
</g>
<!-- Node2&#45;&gt;Node3 -->
<g id="edge2_Node000002_Node000003" class="edge">
<title>Node2&#45;&gt;Node3</title>
<g id="a_edge2_Node000002_Node000003"><a xlink:title=" ">
<path fill="none" stroke="#63b8ff" d="M475.82,-155.53C459.51,-157.96 442.83,-160.45 426.88,-162.83"/>
<polygon fill="#63b8ff" stroke="#63b8ff" points="476.54,-158.96 485.91,-154.02 475.51,-152.03 476.54,-158.96"/>
</a>
</g>
</g>
<!-- Node2&#45;&gt;Node4 -->
<g id="edge3_Node000002_Node000004" class="edge">
<title>Node2&#45;&gt;Node4</title>
<g id="a_edge3_Node000002_Node000004"><a xlink:title=" ">
<path fill="none" stroke="#63b8ff" d="M472.71,-130.5C457.79,-129.39 442.62,-128.26 428.03,-127.17"/>
<polygon fill="#63b8ff" stroke="#63b8ff" points="472.75,-134.02 482.99,-131.27 473.27,-127.04 472.75,-134.02"/>
</a>
</g>
</g>
<!-- Node6 -->
<g id="Node000006" class="node">
<title>Node6</title>
<g id="a_Node000006"><a xlink:href="classcom_1_1teragrep_1_1buf__01_1_1buffer_1_1lease_1_1TrackedMemorySegmentLease.html#a844524847207d55bc758d3e2944ce085" target="_top" xlink:title=" ">
<polygon fill="white" stroke="#666666" points="191,-51 0,-51 0,-21 191,-21 191,-51"/>
<text text-anchor="start" x="8" y="-39" font-family="Helvetica,sans-Serif" font-size="10.00">com.teragrep.buf_01.buffer.lease.</text>
<text text-anchor="middle" x="95.5" y="-28" font-family="Helvetica,sans-Serif" font-size="10.00">TrackedMemorySegmentLease.limit</text>
</a>
</g>
</g>
<!-- Node5&#45;&gt;Node6 -->
<g id="edge5_Node000005_Node000006" class="edge">
<title>Node5&#45;&gt;Node6</title>
<g id="a_edge5_Node000005_Node000006"><a xlink:title=" ">
<path fill="none" stroke="#63b8ff" d="M460.87,-48.64C376.78,-45.72 267.87,-41.95 191.1,-39.28"/>
<polygon fill="#63b8ff" stroke="#63b8ff" points="460.88,-52.14 471,-48.99 461.12,-45.15 460.88,-52.14"/>
</a>
</g>
</g>
<!-- Node7 -->
<g id="Node000007" class="node">
<title>Node7</title>
<g id="a_Node000007"><a xlink:href="classcom_1_1teragrep_1_1buf__01_1_1buffer_1_1lease_1_1TrackedMemorySegmentLease.html#a40d6bf6b0b743c66cca14f0e655a6c08" target="_top" xlink:title=" ">
<polygon fill="white" stroke="#666666" points="435,-30 227,-30 227,0 435,0 435,-30"/>
<text text-anchor="start" x="235" y="-18" font-family="Helvetica,sans-Serif" font-size="10.00">com.teragrep.buf_01.buffer.lease.</text>
<text text-anchor="middle" x="331" y="-7" font-family="Helvetica,sans-Serif" font-size="10.00">TrackedMemorySegmentLease.position</text>
</a>
</g>
</g>
<!-- Node5&#45;&gt;Node7 -->
<g id="edge6_Node000005_Node000007" class="edge">
<title>Node5&#45;&gt;Node7</title>
<g id="a_edge6_Node000005_Node000007"><a xlink:title=" ">
<path fill="none" stroke="#63b8ff" d="M476,-36.5C461.6,-34.35 446.91,-32.16 432.69,-30.03"/>
<polygon fill="#63b8ff" stroke="#63b8ff" points="475.51,-39.97 485.91,-37.98 476.54,-33.04 475.51,-39.97"/>
</a>
</g>
</g>
<!-- Node7&#45;&gt;Node6 -->
<g id="edge7_Node000007_Node000006" class="edge">
<title>Node7&#45;&gt;Node6</title>
<g id="a_edge7_Node000007_Node000006"><a xlink:title=" ">
<path fill="none" stroke="#63b8ff" d="M216.87,-25.17C208.3,-25.94 199.71,-26.72 191.28,-27.48"/>
<polygon fill="#63b8ff" stroke="#63b8ff" points="217.26,-28.65 226.9,-24.27 216.63,-21.68 217.26,-28.65"/>
</a>
</g>
</g>
</g>
</svg>
