<?xml version="1.0" encoding="UTF-8" standalone="no"?>
<!DOCTYPE svg PUBLIC "-//W3C//DTD SVG 1.1//EN"
 "http://www.w3.org/Graphics/SVG/1.1/DTD/svg11.dtd">
<!-- Generated by graphviz version 2.43.0 (0)
 -->
<!-- Title: com.teragrep.buf_01.buffer.lease.TrackedMemorySegmentLease.flip Pages: 1 -->
<svg width="956pt" height="110pt"
 viewBox="0.00 0.00 956.00 110.00" xmlns="http://www.w3.org/2000/svg" xmlns:xlink="http://www.w3.org/1999/xlink">
<g id="graph0" class="graph" transform="scale(1 1) rotate(0) translate(4 106)">
<title>com.teragrep.buf_01.buffer.lease.TrackedMemorySegmentLease.flip</title>
<!-- Node1 -->
<g id="Node000001" class="node">
<title>Node1</title>
<g id="a_Node000001"><a xlink:title=" ">
<polygon fill="#999999" stroke="#666666" points="184,-78 0,-78 0,-48 184,-48 184,-78"/>
<text text-anchor="start" x="8" y="-66" font-family="Helvetica,sans-Serif" font-size="10.00">com.teragrep.buf_01.buffer.lease.</text>
<text text-anchor="middle" x="92" y="-55" font-family="Helvetica,sans-Serif" font-size="10.00">TrackedMemorySegmentLease.flip</text>
</a>
</g>
</g>
<!-- Node2 -->
<g id="Node000002" class="node">
<title>Node2</title>
<g id="a_Node000002"><a xlink:href="classcom_1_1teragrep_1_1buf__01_1_1buffer_1_1lease_1_1TrackedMemorySegmentLease.html#a66942cd255e8a4b5a12f27c11eea50f0" target="_top" xlink:title=" ">
<polygon fill="white" stroke="#666666" points="462,-102 220,-102 220,-72 462,-72 462,-102"/>
<text text-anchor="start" x="228" y="-90" font-family="Helvetica,sans-Serif" font-size="10.00">com.teragrep.buf_01.buffer.lease.</text>
<text text-anchor="middle" x="341" y="-79" font-family="Helvetica,sans-Serif" font-size="10.00">TrackedMemorySegmentLease.currentPosition</text>
</a>
</g>
</g>
<!-- Node1&#45;&gt;Node2 -->
<g id="edge1_Node000001_Node000002" class="edge">
<title>Node1&#45;&gt;Node2</title>
<g id="a_edge1_Node000001_Node000002"><a xlink:title=" ">
<path fill="none" stroke="#63b8ff" d="M184.27,-71.87C192.57,-72.67 201.07,-73.5 209.62,-74.33"/>
<polygon fill="#63b8ff" stroke="#63b8ff" points="209.38,-77.82 219.67,-75.31 210.06,-70.86 209.38,-77.82"/>
</a>
</g>
</g>
<!-- Node3 -->
<g id="Node000003" class="node">
<title>Node3</title>
<g id="a_Node000003"><a xlink:href="classcom_1_1teragrep_1_1buf__01_1_1buffer_1_1lease_1_1TrackedMemorySegmentLease.html#a40d6bf6b0b743c66cca14f0e655a6c08" target="_top" xlink:title=" ">
<polygon fill="white" stroke="#666666" points="445,-54 237,-54 237,-24 445,-24 445,-54"/>
<text text-anchor="start" x="245" y="-42" font-family="Helvetica,sans-Serif" font-size="10.00">com.teragrep.buf_01.buffer.lease.</text>
<text text-anchor="middle" x="341" y="-31" font-family="Helvetica,sans-Serif" font-size="10.00">TrackedMemorySegmentLease.position</text>
</a>
</g>
</g>
<!-- Node1&#45;&gt;Node3 -->
<g id="edge2_Node000001_Node000003" class="edge">
<title>Node1&#45;&gt;Node3</title>
<g id="a_edge2_Node000001_Node000003"><a xlink:title=" ">
<path fill="none" stroke="#63b8ff" d="M184.27,-54.13C197.98,-52.8 212.27,-51.41 226.38,-50.04"/>
<polygon fill="#63b8ff" stroke="#63b8ff" points="226.99,-53.5 236.61,-49.05 226.32,-46.53 226.99,-53.5"/>
</a>
</g>
</g>
<!-- Node4 -->
<g id="Node000004" class="node">
<title>Node4</title>
<g id="a_Node000004"><a xlink:href="classcom_1_1teragrep_1_1buf__01_1_1buffer_1_1lease_1_1TrackedMemorySegmentLease.html#ae02ea964432c1932f34ea83cbcc88d94" target="_top" xlink:title=" ">
<polygon fill="white" stroke="#666666" points="728.5,-78 500.5,-78 500.5,-48 728.5,-48 728.5,-78"/>
<text text-anchor="start" x="508.5" y="-66" font-family="Helvetica,sans-Serif" font-size="10.00">com.teragrep.buf_01.buffer.lease.</text>
<text text-anchor="middle" x="614.5" y="-55" font-family="Helvetica,sans-Serif" font-size="10.00">TrackedMemorySegmentLease.currentLimit</text>
</a>
</g>
</g>
<!-- Node3&#45;&gt;Node4 -->
<g id="edge3_Node000003_Node000004" class="edge">
<title>Node3&#45;&gt;Node4</title>
<g id="a_edge3_Node000003_Node000004"><a xlink:title=" ">
<path fill="none" stroke="#63b8ff" d="M445.03,-48.11C459.66,-49.4 474.82,-50.74 489.79,-52.06"/>
<polygon fill="#63b8ff" stroke="#63b8ff" points="489.84,-55.58 500.11,-52.98 490.46,-48.61 489.84,-55.58"/>
</a>
</g>
</g>
<!-- Node5 -->
<g id="Node000005" class="node">
<title>Node5</title>
<g id="a_Node000005"><a xlink:href="classcom_1_1teragrep_1_1buf__01_1_1buffer_1_1lease_1_1TrackedMemorySegmentLease.html#a4e3c99ee0f5e4d2daedf21ff0764154f" target="_top" xlink:title=" ">
<polygon fill="white" stroke="#666666" points="731,-30 498,-30 498,0 731,0 731,-30"/>
<text text-anchor="start" x="506" y="-18" font-family="Helvetica,sans-Serif" font-size="10.00">com.teragrep.buf_01.buffer.lease.</text>
<text text-anchor="middle" x="614.5" y="-7" font-family="Helvetica,sans-Serif" font-size="10.00">TrackedMemorySegmentLease.leasedObject</text>
</a>
</g>
</g>
<!-- Node3&#45;&gt;Node5 -->
<g id="edge4_Node000003_Node000005" class="edge">
<title>Node3&#45;&gt;Node5</title>
<g id="a_edge4_Node000003_Node000005"><a xlink:title=" ">
<path fill="none" stroke="#63b8ff" d="M445.03,-29.89C458.91,-28.67 473.28,-27.4 487.5,-26.14"/>
<polygon fill="#63b8ff" stroke="#63b8ff" points="488.17,-29.59 497.83,-25.23 487.56,-22.62 488.17,-29.59"/>
</a>
</g>
</g>
<!-- Node6 -->
<g id="Node000006" class="node">
<title>Node6</title>
<g id="a_Node000006"><a xlink:href="interfacecom_1_1teragrep_1_1buf__01_1_1buffer_1_1lease_1_1Lease.html#aafa073cb18228967f4c82f84a623a94e" target="_top" xlink:title=" ">
<polygon fill="white" stroke="#666666" points="948,-30 767,-30 767,0 948,0 948,-30"/>
<text text-anchor="start" x="775" y="-18" font-family="Helvetica,sans-Serif" font-size="10.00">com.teragrep.buf_01.buffer.lease.</text>
<text text-anchor="middle" x="857.5" y="-7" font-family="Helvetica,sans-Serif" font-size="10.00">Lease.leasedObject</text>
</a>
</g>
</g>
<!-- Node5&#45;&gt;Node6 -->
<g id="edge5_Node000005_Node000006" class="edge">
<title>Node5&#45;&gt;Node6</title>
<g id="a_edge5_Node000005_Node000006"><a xlink:title=" ">
<path fill="none" stroke="#63b8ff" d="M731.06,-15C739.56,-15 748.1,-15 756.5,-15"/>
<polygon fill="#63b8ff" stroke="#63b8ff" points="756.66,-18.5 766.66,-15 756.66,-11.5 756.66,-18.5"/>
</a>
</g>
</g>
</g>
</svg>
