<?xml version="1.0" encoding="UTF-8" standalone="no"?>
<!DOCTYPE svg PUBLIC "-//W3C//DTD SVG 1.1//EN"
 "http://www.w3.org/Graphics/SVG/1.1/DTD/svg11.dtd">
<!-- Generated by graphviz version 2.43.0 (0)
 -->
<!-- Title: com.teragrep.buf_01.buffer.lease.TrackedMemorySegmentLease.position Pages: 1 -->
<svg width="702pt" height="86pt"
 viewBox="0.00 0.00 702.00 86.00" xmlns="http://www.w3.org/2000/svg" xmlns:xlink="http://www.w3.org/1999/xlink">
<g id="graph0" class="graph" transform="scale(1 1) rotate(0) translate(4 82)">
<title>com.teragrep.buf_01.buffer.lease.TrackedMemorySegmentLease.position</title>
<!-- Node1 -->
<g id="Node000001" class="node">
<title>Node1</title>
<g id="a_Node000001"><a xlink:title=" ">
<polygon fill="#999999" stroke="#666666" points="208,-54 0,-54 0,-24 208,-24 208,-54"/>
<text text-anchor="start" x="8" y="-42" font-family="Helvetica,sans-Serif" font-size="10.00">com.teragrep.buf_01.buffer.lease.</text>
<text text-anchor="middle" x="104" y="-31" font-family="Helvetica,sans-Serif" font-size="10.00">TrackedMemorySegmentLease.position</text>
</a>
</g>
</g>
<!-- Node2 -->
<g id="Node000002" class="node">
<title>Node2</title>
<g id="a_Node000002"><a xlink:href="classcom_1_1teragrep_1_1buf__01_1_1buffer_1_1lease_1_1TrackedMemorySegmentLease.html#ae02ea964432c1932f34ea83cbcc88d94" target="_top" xlink:title=" ">
<polygon fill="white" stroke="#666666" points="474.5,-78 246.5,-78 246.5,-48 474.5,-48 474.5,-78"/>
<text text-anchor="start" x="254.5" y="-66" font-family="Helvetica,sans-Serif" font-size="10.00">com.teragrep.buf_01.buffer.lease.</text>
<text text-anchor="middle" x="360.5" y="-55" font-family="Helvetica,sans-Serif" font-size="10.00">TrackedMemorySegmentLease.currentLimit</text>
</a>
</g>
</g>
<!-- Node1&#45;&gt;Node2 -->
<g id="edge1_Node000001_Node000002" class="edge">
<title>Node1&#45;&gt;Node2</title>
<g id="a_edge1_Node000001_Node000002"><a xlink:title=" ">
<path fill="none" stroke="#63b8ff" d="M208.15,-48.73C217.36,-49.6 226.74,-50.48 236.09,-51.36"/>
<polygon fill="#63b8ff" stroke="#63b8ff" points="235.94,-54.86 246.22,-52.32 236.6,-47.89 235.94,-54.86"/>
</a>
</g>
</g>
<!-- Node3 -->
<g id="Node000003" class="node">
<title>Node3</title>
<g id="a_Node000003"><a xlink:href="classcom_1_1teragrep_1_1buf__01_1_1buffer_1_1lease_1_1TrackedMemorySegmentLease.html#a4e3c99ee0f5e4d2daedf21ff0764154f" target="_top" xlink:title=" ">
<polygon fill="white" stroke="#666666" points="477,-30 244,-30 244,0 477,0 477,-30"/>
<text text-anchor="start" x="252" y="-18" font-family="Helvetica,sans-Serif" font-size="10.00">com.teragrep.buf_01.buffer.lease.</text>
<text text-anchor="middle" x="360.5" y="-7" font-family="Helvetica,sans-Serif" font-size="10.00">TrackedMemorySegmentLease.leasedObject</text>
</a>
</g>
</g>
<!-- Node1&#45;&gt;Node3 -->
<g id="edge2_Node000001_Node000003" class="edge">
<title>Node1&#45;&gt;Node3</title>
<g id="a_edge2_Node000001_Node000003"><a xlink:title=" ">
<path fill="none" stroke="#63b8ff" d="M208.15,-29.27C216.57,-28.48 225.13,-27.67 233.69,-26.86"/>
<polygon fill="#63b8ff" stroke="#63b8ff" points="234.09,-30.34 243.72,-25.92 233.43,-23.37 234.09,-30.34"/>
</a>
</g>
</g>
<!-- Node4 -->
<g id="Node000004" class="node">
<title>Node4</title>
<g id="a_Node000004"><a xlink:href="interfacecom_1_1teragrep_1_1buf__01_1_1buffer_1_1lease_1_1Lease.html#aafa073cb18228967f4c82f84a623a94e" target="_top" xlink:title=" ">
<polygon fill="white" stroke="#666666" points="694,-30 513,-30 513,0 694,0 694,-30"/>
<text text-anchor="start" x="521" y="-18" font-family="Helvetica,sans-Serif" font-size="10.00">com.teragrep.buf_01.buffer.lease.</text>
<text text-anchor="middle" x="603.5" y="-7" font-family="Helvetica,sans-Serif" font-size="10.00">Lease.leasedObject</text>
</a>
</g>
</g>
<!-- Node3&#45;&gt;Node4 -->
<g id="edge3_Node000003_Node000004" class="edge">
<title>Node3&#45;&gt;Node4</title>
<g id="a_edge3_Node000003_Node000004"><a xlink:title=" ">
<path fill="none" stroke="#63b8ff" d="M477.06,-15C485.56,-15 494.1,-15 502.5,-15"/>
<polygon fill="#63b8ff" stroke="#63b8ff" points="502.66,-18.5 512.66,-15 502.66,-11.5 502.66,-18.5"/>
</a>
</g>
</g>
</g>
</svg>
