<?xml version="1.0" encoding="UTF-8" standalone="no"?><svg xmlns="http://www.w3.org/2000/svg" xmlns:xlink="http://www.w3.org/1999/xlink" contentScriptType="application/ecmascript" contentStyleType="text/css" height="371px" preserveAspectRatio="none" style="width:834px;height:371px;" version="1.1" viewBox="0 0 834 371" width="834px" zoomAndPan="magnify"><defs><filter height="300%" id="focjgr76yuz1l" width="300%" x="-1" y="-1"><feGaussianBlur result="blurOut" stdDeviation="2.0"/><feColorMatrix in="blurOut" result="blurOut2" type="matrix" values="0 0 0 0 0 0 0 0 0 0 0 0 0 0 0 0 0 0 .4 0"/><feOffset dx="4.0" dy="4.0" in="blurOut2" result="blurOut3"/><feBlend in="SourceGraphic" in2="blurOut3" mode="normal"/></filter></defs><g><!--MD5=[ae464e92ad864e68c44612095e503b3c]
class TrackedMemorySegmentLease--><rect fill="#FEFECE" filter="url(#focjgr76yuz1l)" height="227.2656" id="TrackedMemorySegmentLease" style="stroke: #A80036; stroke-width: 1.5;" width="223" x="71" y="8"/><ellipse cx="86" cy="24" fill="#ADD1B2" rx="11" ry="11" style="stroke: #A80036; stroke-width: 1.0;"/><path d="M88.9688,29.6406 Q88.3906,29.9375 87.75,30.0781 Q87.1094,30.2344 86.4063,30.2344 Q83.9063,30.2344 82.5781,28.5938 Q81.2656,26.9375 81.2656,23.8125 Q81.2656,20.6875 82.5781,19.0313 Q83.9063,17.375 86.4063,17.375 Q87.1094,17.375 87.75,17.5313 Q88.4063,17.6875 88.9688,17.9844 L88.9688,20.7031 Q88.3438,20.125 87.75,19.8594 Q87.1563,19.5781 86.5313,19.5781 Q85.1875,19.5781 84.5,20.6563 Q83.8125,21.7188 83.8125,23.8125 Q83.8125,25.9063 84.5,26.9844 Q85.1875,28.0469 86.5313,28.0469 Q87.1563,28.0469 87.75,27.7813 Q88.3438,27.5 88.9688,26.9219 L88.9688,29.6406 Z "/><text fill="#000000" font-family="sans-serif" font-size="12" lengthAdjust="spacingAndGlyphs" textLength="191" x="100" y="28.1543">TrackedMemorySegmentLease</text><line style="stroke: #A80036; stroke-width: 1.5;" x1="72" x2="293" y1="40" y2="40"/><line style="stroke: #A80036; stroke-width: 1.5;" x1="72" x2="293" y1="48" y2="48"/><ellipse cx="82" cy="59" fill="#84BE84" rx="3" ry="3" style="stroke: #038048; stroke-width: 1.0;"/><text fill="#000000" font-family="sans-serif" font-size="11" lengthAdjust="spacingAndGlyphs" textLength="22" x="91" y="62.2104">id();</text><ellipse cx="82" cy="71.8047" fill="#84BE84" rx="3" ry="3" style="stroke: #038048; stroke-width: 1.0;"/><text fill="#000000" font-family="sans-serif" font-size="11" lengthAdjust="spacingAndGlyphs" textLength="35" x="91" y="75.0151">refs();</text><ellipse cx="82" cy="84.6094" fill="#84BE84" rx="3" ry="3" style="stroke: #038048; stroke-width: 1.0;"/><text fill="#000000" font-family="sans-serif" font-size="11" lengthAdjust="spacingAndGlyphs" textLength="86" x="91" y="87.8198">leasedObject();</text><ellipse cx="82" cy="97.4141" fill="#84BE84" rx="3" ry="3" style="stroke: #038048; stroke-width: 1.0;"/><text fill="#000000" font-family="sans-serif" font-size="11" lengthAdjust="spacingAndGlyphs" textLength="86" x="91" y="100.6245">hasZeroRefs();</text><ellipse cx="82" cy="110.2188" fill="#84BE84" rx="3" ry="3" style="stroke: #038048; stroke-width: 1.0;"/><text fill="#000000" font-family="sans-serif" font-size="11" lengthAdjust="spacingAndGlyphs" textLength="82" x="91" y="113.4292">sliceAt(offset);</text><ellipse cx="82" cy="123.0234" fill="#84BE84" rx="3" ry="3" style="stroke: #038048; stroke-width: 1.0;"/><text fill="#000000" font-family="sans-serif" font-size="11" lengthAdjust="spacingAndGlyphs" textLength="48" x="91" y="126.2339">isStub();</text><ellipse cx="82" cy="135.8281" fill="#84BE84" rx="3" ry="3" style="stroke: #038048; stroke-width: 1.0;"/><text fill="#000000" font-family="sans-serif" font-size="11" lengthAdjust="spacingAndGlyphs" textLength="42" x="91" y="139.0386">close();</text><ellipse cx="82" cy="148.6328" fill="#84BE84" rx="3" ry="3" style="stroke: #038048; stroke-width: 1.0;"/><text fill="#000000" font-family="sans-serif" font-size="11" lengthAdjust="spacingAndGlyphs" textLength="58" x="91" y="151.8433">hasNext();</text><ellipse cx="82" cy="161.4375" fill="#84BE84" rx="3" ry="3" style="stroke: #038048; stroke-width: 1.0;"/><text fill="#000000" font-family="sans-serif" font-size="11" lengthAdjust="spacingAndGlyphs" textLength="36" x="91" y="164.6479">next();</text><ellipse cx="82" cy="174.2422" fill="#84BE84" rx="3" ry="3" style="stroke: #038048; stroke-width: 1.0;"/><text fill="#000000" font-family="sans-serif" font-size="11" lengthAdjust="spacingAndGlyphs" textLength="64" x="91" y="177.4526">write(byte);</text><ellipse cx="82" cy="187.0469" fill="#84BE84" rx="3" ry="3" style="stroke: #038048; stroke-width: 1.0;"/><text fill="#000000" font-family="sans-serif" font-size="11" lengthAdjust="spacingAndGlyphs" textLength="98" x="91" y="190.2573">currentPosition();</text><ellipse cx="82" cy="199.8516" fill="#84BE84" rx="3" ry="3" style="stroke: #038048; stroke-width: 1.0;"/><text fill="#000000" font-family="sans-serif" font-size="11" lengthAdjust="spacingAndGlyphs" textLength="78" x="91" y="203.062">position(pos);</text><ellipse cx="82" cy="212.6563" fill="#84BE84" rx="3" ry="3" style="stroke: #038048; stroke-width: 1.0;"/><text fill="#000000" font-family="sans-serif" font-size="11" lengthAdjust="spacingAndGlyphs" textLength="80" x="91" y="215.8667">currentLimit();</text><ellipse cx="82" cy="225.4609" fill="#84BE84" rx="3" ry="3" style="stroke: #038048; stroke-width: 1.0;"/><text fill="#000000" font-family="sans-serif" font-size="11" lengthAdjust="spacingAndGlyphs" textLength="53" x="91" y="228.6714">limit(lim);</text><!--MD5=[5f4147abe85723a46671276136bd6156]
class MemorySegmentLease--><rect fill="#FEFECE" filter="url(#focjgr76yuz1l)" height="48" id="MemorySegmentLease" style="stroke: #A80036; stroke-width: 1.5;" width="173" x="6" y="312"/><ellipse cx="21" cy="328" fill="#ADD1B2" rx="11" ry="11" style="stroke: #A80036; stroke-width: 1.0;"/><path d="M23.9688,333.6406 Q23.3906,333.9375 22.75,334.0781 Q22.1094,334.2344 21.4063,334.2344 Q18.9063,334.2344 17.5781,332.5938 Q16.2656,330.9375 16.2656,327.8125 Q16.2656,324.6875 17.5781,323.0313 Q18.9063,321.375 21.4063,321.375 Q22.1094,321.375 22.75,321.5313 Q23.4063,321.6875 23.9688,321.9844 L23.9688,324.7031 Q23.3438,324.125 22.75,323.8594 Q22.1563,323.5781 21.5313,323.5781 Q20.1875,323.5781 19.5,324.6563 Q18.8125,325.7188 18.8125,327.8125 Q18.8125,329.9063 19.5,330.9844 Q20.1875,332.0469 21.5313,332.0469 Q22.1563,332.0469 22.75,331.7813 Q23.3438,331.5 23.9688,330.9219 L23.9688,333.6406 Z "/><text fill="#000000" font-family="sans-serif" font-size="12" lengthAdjust="spacingAndGlyphs" textLength="141" x="35" y="332.1543">MemorySegmentLease</text><line style="stroke: #A80036; stroke-width: 1.5;" x1="7" x2="178" y1="344" y2="344"/><line style="stroke: #A80036; stroke-width: 1.5;" x1="7" x2="178" y1="352" y2="352"/><!--MD5=[da72dfd2a36830e305ac35ec0dcdab8c]
class TrackedLease--><rect fill="#FEFECE" filter="url(#focjgr76yuz1l)" height="48" id="TrackedLease" style="stroke: #A80036; stroke-width: 1.5;" width="119" x="214" y="312"/><ellipse cx="229" cy="328" fill="#ADD1B2" rx="11" ry="11" style="stroke: #A80036; stroke-width: 1.0;"/><path d="M231.9688,333.6406 Q231.3906,333.9375 230.75,334.0781 Q230.1094,334.2344 229.4063,334.2344 Q226.9063,334.2344 225.5781,332.5938 Q224.2656,330.9375 224.2656,327.8125 Q224.2656,324.6875 225.5781,323.0313 Q226.9063,321.375 229.4063,321.375 Q230.1094,321.375 230.75,321.5313 Q231.4063,321.6875 231.9688,321.9844 L231.9688,324.7031 Q231.3438,324.125 230.75,323.8594 Q230.1563,323.5781 229.5313,323.5781 Q228.1875,323.5781 227.5,324.6563 Q226.8125,325.7188 226.8125,327.8125 Q226.8125,329.9063 227.5,330.9844 Q228.1875,332.0469 229.5313,332.0469 Q230.1563,332.0469 230.75,331.7813 Q231.3438,331.5 231.9688,330.9219 L231.9688,333.6406 Z "/><text fill="#000000" font-family="sans-serif" font-size="12" lengthAdjust="spacingAndGlyphs" textLength="87" x="243" y="332.1543">TrackedLease</text><line style="stroke: #A80036; stroke-width: 1.5;" x1="215" x2="332" y1="344" y2="344"/><line style="stroke: #A80036; stroke-width: 1.5;" x1="215" x2="332" y1="352" y2="352"/><path d="M329,78.5 L329,117.5 L294.18,121.5 L329,125.5 L329,164.1641 A0,0 0 0 0 329,164.1641 L822,164.1641 A0,0 0 0 0 822,164.1641 L822,88.5 L812,78.5 L329,78.5 A0,0 0 0 0 329,78.5 " fill="#FBFB77" filter="url(#focjgr76yuz1l)" style="stroke: #A80036; stroke-width: 1.0;"/><path d="M812,78.5 L812,88.5 L822,88.5 L812,78.5 " fill="#FBFB77" style="stroke: #A80036; stroke-width: 1.0;"/><text fill="#000000" font-family="sans-serif" font-size="13" lengthAdjust="spacingAndGlyphs" textLength="101" x="335" y="95.5669">Responsibilities:</text><text fill="#000000" font-family="sans-serif" font-size="13" lengthAdjust="spacingAndGlyphs" textLength="472" x="335" y="110.6997">- Decorates MemorySegmentLease, providing position, limit and iteration.</text><text fill="#000000" font-family="sans-serif" font-size="13" lengthAdjust="spacingAndGlyphs" textLength="0" x="339" y="125.8325"/><text fill="#000000" font-family="sans-serif" font-size="13" lengthAdjust="spacingAndGlyphs" textLength="89" x="335" y="140.9653">Collaborators:</text><text fill="#000000" font-family="sans-serif" font-size="13" lengthAdjust="spacingAndGlyphs" textLength="158" x="335" y="156.0981">- MemorySegmentLease</text><!--MD5=[0dddb6dbc847be621bb4d7f9b6d9c122]
link TrackedMemorySegmentLease to MemorySegmentLease--><path d="M134.73,235.28 C123.41,262.02 112.32,288.21 104.34,307.03 " fill="none" id="TrackedMemorySegmentLease-&gt;MemorySegmentLease" style="stroke: #A80036; stroke-width: 1.0;"/><polygon fill="#A80036" points="102.39,311.66,109.5765,304.9255,104.3354,307.054,102.2069,301.8128,102.39,311.66" style="stroke: #A80036; stroke-width: 1.0;"/><text fill="#000000" font-family="sans-serif" font-size="13" lengthAdjust="spacingAndGlyphs" textLength="64" x="123.5" y="278.0669">decorates</text><!--MD5=[915319091a26225702d676e2bf99f475]
link TrackedMemorySegmentLease to TrackedLease--><path d="M230.8,235.28 C242.25,262.02 253.46,288.21 261.52,307.03 " fill="none" id="TrackedMemorySegmentLease-&gt;TrackedLease" style="stroke: #A80036; stroke-width: 1.0;"/><polygon fill="#A80036" points="263.5,311.66,263.6202,301.8119,261.5252,307.0665,256.2706,304.9715,263.5,311.66" style="stroke: #A80036; stroke-width: 1.0;"/><text fill="#000000" font-family="sans-serif" font-size="13" lengthAdjust="spacingAndGlyphs" textLength="76" x="249.5" y="278.0669">implements</text><!--MD5=[3686cd4f82078f9ae9ab26bd3f031905]
@startuml inline_umlgraph_7.svg
class TrackedMemorySegmentLease {
+ id();
+ refs();
+ leasedObject();
+ hasZeroRefs();
+ sliceAt(offset);
+ isStub();
+ close();
+ hasNext();
+ next();
+ write(byte);
+ currentPosition();
+ position(pos);
+ currentLimit();
+ limit(lim);
}

TrackedMemorySegmentLease - -> MemorySegmentLease : decorates
TrackedMemorySegmentLease - -> TrackedLease : implements

note right of TrackedMemorySegmentLease
Responsibilities:
- Decorates MemorySegmentLease, providing position, limit and iteration.

Collaborators:
- MemorySegmentLease
end note
@enduml

PlantUML version 1.2020.02(Sun Mar 01 10:22:07 UTC 2020)
(GPL source distribution)
Java Runtime: OpenJDK Runtime Environment
JVM: OpenJDK 64-Bit Server VM
Java Version: 25.0.3+9-LTS
Operating System: Linux
Default Encoding: UTF-8
Language: en
Country: null
--></g></svg>