<?xml version="1.0" encoding="UTF-8" standalone="no"?>
<!DOCTYPE svg PUBLIC "-//W3C//DTD SVG 1.1//EN"
 "http://www.w3.org/Graphics/SVG/1.1/DTD/svg11.dtd">
<!-- Generated by graphviz version 2.43.0 (0)
 -->
<!-- Title: com.teragrep.buf_01.buffer.lease.OpenableLease&lt; T &gt; Pages: 1 -->
<svg width="360pt" height="159pt"
 viewBox="0.00 0.00 359.50 159.00" xmlns="http://www.w3.org/2000/svg" xmlns:xlink="http://www.w3.org/1999/xlink">
<g id="graph0" class="graph" transform="scale(1 1) rotate(0) translate(4 155)">
<title>com.teragrep.buf_01.buffer.lease.OpenableLease&lt; T &gt;</title>
<!-- Node1 -->
<g id="Node000001" class="node">
<title>Node1</title>
<g id="a_Node000001"><a xlink:title="Lease that can be opened via the open() method provided by the Openable interface.">
<polygon fill="#999999" stroke="#666666" points="273,-30 92,-30 92,0 273,0 273,-30"/>
<text text-anchor="start" x="100" y="-18" font-family="Helvetica,sans-Serif" font-size="10.00">com.teragrep.buf_01.buffer.lease.</text>
<text text-anchor="middle" x="182.5" y="-7" font-family="Helvetica,sans-Serif" font-size="10.00">OpenableLease&lt; T &gt;</text>
</a>
</g>
</g>
<!-- Node2 -->
<g id="Node000002" class="node">
<title>Node2</title>
<g id="a_Node000002"><a xlink:href="interfacecom_1_1teragrep_1_1buf__01_1_1buffer_1_1lease_1_1Lease.html" target="_top" xlink:title="Contains reference tracking and slicing functionality for the type T encapsulated object.">
<polygon fill="white" stroke="#666666" points="181,-96 0,-96 0,-66 181,-66 181,-96"/>
<text text-anchor="start" x="8" y="-84" font-family="Helvetica,sans-Serif" font-size="10.00">com.teragrep.buf_01.buffer.lease.</text>
<text text-anchor="middle" x="90.5" y="-73" font-family="Helvetica,sans-Serif" font-size="10.00">Lease&lt; T &gt;</text>
</a>
</g>
</g>
<!-- Node2&#45;&gt;Node1 -->
<g id="edge1_Node000001_Node000002" class="edge">
<title>Node2&#45;&gt;Node1</title>
<g id="a_edge1_Node000001_Node000002"><a xlink:title=" ">
<path fill="none" stroke="#63b8ff" d="M119.21,-60.03C133.13,-50.34 149.53,-38.94 162.14,-30.16"/>
<polygon fill="#63b8ff" stroke="#63b8ff" points="117.13,-57.21 110.92,-65.8 121.13,-62.96 117.13,-57.21"/>
</a>
</g>
</g>
<!-- Node3 -->
<g id="Node000003" class="node">
<title>Node3</title>
<g id="a_Node000003"><a xlink:title=" ">
<polygon fill="white" stroke="#666666" points="89,-151 2,-151 2,-132 89,-132 89,-151"/>
<text text-anchor="middle" x="45.5" y="-139" font-family="Helvetica,sans-Serif" font-size="10.00">AutoCloseable</text>
</a>
</g>
</g>
<!-- Node3&#45;&gt;Node2 -->
<g id="edge2_Node000002_Node000003" class="edge">
<title>Node3&#45;&gt;Node2</title>
<g id="a_edge2_Node000002_Node000003"><a xlink:title=" ">
<path fill="none" stroke="#63b8ff" d="M58.28,-123.88C65.03,-115.11 73.21,-104.48 79.64,-96.11"/>
<polygon fill="#63b8ff" stroke="#63b8ff" points="55.46,-121.81 52.14,-131.87 61.01,-126.08 55.46,-121.81"/>
</a>
</g>
</g>
<!-- Node4 -->
<g id="Node000004" class="node">
<title>Node4</title>
<g id="a_Node000004"><a xlink:title=" ">
<polygon fill="white" stroke="#666666" points="166,-151 107,-151 107,-132 166,-132 166,-151"/>
<text text-anchor="middle" x="136.5" y="-139" font-family="Helvetica,sans-Serif" font-size="10.00">Stubable</text>
</a>
</g>
</g>
<!-- Node4&#45;&gt;Node2 -->
<g id="edge3_Node000002_Node000004" class="edge">
<title>Node4&#45;&gt;Node2</title>
<g id="a_edge3_Node000002_Node000004"><a xlink:title=" ">
<path fill="none" stroke="#63b8ff" d="M123.43,-123.88C116.54,-115.11 108.17,-104.48 101.6,-96.11"/>
<polygon fill="#63b8ff" stroke="#63b8ff" points="120.78,-126.17 129.71,-131.87 126.28,-121.84 120.78,-126.17"/>
</a>
</g>
</g>
<!-- Node5 -->
<g id="Node000005" class="node">
<title>Node5</title>
<g id="a_Node000005"><a xlink:href="interfacecom_1_1teragrep_1_1buf__01_1_1buffer_1_1Openable.html" target="_top" xlink:title=" ">
<polygon fill="white" stroke="#666666" points="351.5,-96 199.5,-96 199.5,-66 351.5,-66 351.5,-96"/>
<text text-anchor="start" x="207.5" y="-84" font-family="Helvetica,sans-Serif" font-size="10.00">com.teragrep.buf_01.buffer.</text>
<text text-anchor="middle" x="275.5" y="-73" font-family="Helvetica,sans-Serif" font-size="10.00">Openable</text>
</a>
</g>
</g>
<!-- Node5&#45;&gt;Node1 -->
<g id="edge4_Node000001_Node000005" class="edge">
<title>Node5&#45;&gt;Node1</title>
<g id="a_edge4_Node000001_Node000005"><a xlink:title=" ">
<path fill="none" stroke="#63b8ff" d="M246.48,-60.03C232.41,-50.34 215.83,-38.94 203.08,-30.16"/>
<polygon fill="#63b8ff" stroke="#63b8ff" points="244.64,-63.01 254.86,-65.8 248.61,-57.24 244.64,-63.01"/>
</a>
</g>
</g>
</g>
</svg>
