<?xml version="1.0" encoding="UTF-8" standalone="no"?>
<!DOCTYPE svg PUBLIC "-//W3C//DTD SVG 1.1//EN"
 "http://www.w3.org/Graphics/SVG/1.1/DTD/svg11.dtd">
<!-- Generated by graphviz version 2.43.0 (0)
 -->
<!-- Title: com.teragrep.buf_01.buffer.lease.Lease.leasedObject Pages: 1 -->
<svg width="929pt" height="205pt"
 viewBox="0.00 0.00 929.00 205.00" xmlns="http://www.w3.org/2000/svg" xmlns:xlink="http://www.w3.org/1999/xlink">
<g id="graph0" class="graph" transform="scale(1 1) rotate(0) translate(4 201)">
<title>com.teragrep.buf_01.buffer.lease.Lease.leasedObject</title>
<!-- Node1 -->
<g id="Node000001" class="node">
<title>Node1</title>
<g id="a_Node000001"><a xlink:title=" ">
<polygon fill="#999999" stroke="#666666" points="921,-137 740,-137 740,-107 921,-107 921,-137"/>
<text text-anchor="start" x="748" y="-125" font-family="Helvetica,sans-Serif" font-size="10.00">com.teragrep.buf_01.buffer.lease.</text>
<text text-anchor="middle" x="830.5" y="-114" font-family="Helvetica,sans-Serif" font-size="10.00">Lease.leasedObject</text>
</a>
</g>
</g>
<!-- Node2 -->
<g id="Node000002" class="node">
<title>Node2</title>
<g id="a_Node000002"><a xlink:href="classcom_1_1teragrep_1_1buf__01_1_1buffer_1_1lease_1_1TrackedMemorySegmentLease.html#aff53bdf091bdb827968b7c4e2bed9858" target="_top" xlink:title=" ">
<polygon fill="white" stroke="#666666" points="692,-159 483,-159 483,-129 692,-129 692,-159"/>
<text text-anchor="start" x="491" y="-147" font-family="Helvetica,sans-Serif" font-size="10.00">com.teragrep.buf_01.buffer.lease.</text>
<text text-anchor="middle" x="587.5" y="-136" font-family="Helvetica,sans-Serif" font-size="10.00">TrackedMemorySegmentLease.hasNext</text>
</a>
</g>
</g>
<!-- Node1&#45;&gt;Node2 -->
<g id="edge1_Node000001_Node000002" class="edge">
<title>Node1&#45;&gt;Node2</title>
<g id="a_edge1_Node000001_Node000002"><a xlink:title=" ">
<path fill="none" stroke="#63b8ff" d="M729.48,-131.13C717.14,-132.26 704.51,-133.41 692.13,-134.54"/>
<polygon fill="#63b8ff" stroke="#63b8ff" points="730.12,-134.59 739.76,-130.19 729.48,-127.62 730.12,-134.59"/>
</a>
</g>
</g>
<!-- Node3 -->
<g id="Node000003" class="node">
<title>Node3</title>
<g id="a_Node000003"><a xlink:href="classcom_1_1teragrep_1_1buf__01_1_1buffer_1_1lease_1_1TrackedMemorySegmentLease.html#aa9ba09bfafb6da748dab1b1cbc1764ab" target="_top" xlink:title=" ">
<polygon fill="white" stroke="#666666" points="426.5,-197 235.5,-197 235.5,-167 426.5,-167 426.5,-197"/>
<text text-anchor="start" x="243.5" y="-185" font-family="Helvetica,sans-Serif" font-size="10.00">com.teragrep.buf_01.buffer.lease.</text>
<text text-anchor="middle" x="331" y="-174" font-family="Helvetica,sans-Serif" font-size="10.00">TrackedMemorySegmentLease.next</text>
</a>
</g>
</g>
<!-- Node1&#45;&gt;Node3 -->
<g id="edge9_Node000001_Node000003" class="edge">
<title>Node1&#45;&gt;Node3</title>
<g id="a_edge9_Node000001_Node000003"><a xlink:title=" ">
<path fill="none" stroke="#63b8ff" d="M787.79,-141.03C763.81,-151.02 732.82,-162.32 704,-168 610.94,-186.33 502.33,-188.24 426.58,-186.54"/>
<polygon fill="#63b8ff" stroke="#63b8ff" points="789.45,-144.13 797.28,-137 786.71,-137.69 789.45,-144.13"/>
</a>
</g>
</g>
<!-- Node4 -->
<g id="Node000004" class="node">
<title>Node4</title>
<g id="a_Node000004"><a xlink:href="classcom_1_1teragrep_1_1buf__01_1_1buffer_1_1lease_1_1TrackedMemorySegmentLease.html#ae5b248e69f4661a3f3e94d2c64e4e3dc" target="_top" xlink:title=" ">
<polygon fill="white" stroke="#666666" points="428,-140 234,-140 234,-110 428,-110 428,-140"/>
<text text-anchor="start" x="242" y="-128" font-family="Helvetica,sans-Serif" font-size="10.00">com.teragrep.buf_01.buffer.lease.</text>
<text text-anchor="middle" x="331" y="-117" font-family="Helvetica,sans-Serif" font-size="10.00">TrackedMemorySegmentLease.write</text>
</a>
</g>
</g>
<!-- Node1&#45;&gt;Node4 -->
<g id="edge10_Node000001_Node000004" class="edge">
<title>Node1&#45;&gt;Node4</title>
<g id="a_edge10_Node000001_Node000004"><a xlink:title=" ">
<path fill="none" stroke="#63b8ff" d="M729.55,-120.26C720.91,-120.16 712.3,-120.07 704,-120 600.45,-119.17 574.54,-118.14 471,-120 457.12,-120.25 442.46,-120.64 428.07,-121.09"/>
<polygon fill="#63b8ff" stroke="#63b8ff" points="729.65,-123.76 739.7,-120.4 729.74,-116.77 729.65,-123.76"/>
</a>
</g>
</g>
<!-- Node5 -->
<g id="Node000005" class="node">
<title>Node5</title>
<g id="a_Node000005"><a xlink:href="classcom_1_1teragrep_1_1buf__01_1_1buffer_1_1lease_1_1TrackedMemorySegmentLease.html#a4e3c99ee0f5e4d2daedf21ff0764154f" target="_top" xlink:title=" ">
<polygon fill="white" stroke="#666666" points="704,-73 471,-73 471,-43 704,-43 704,-73"/>
<text text-anchor="start" x="479" y="-61" font-family="Helvetica,sans-Serif" font-size="10.00">com.teragrep.buf_01.buffer.lease.</text>
<text text-anchor="middle" x="587.5" y="-50" font-family="Helvetica,sans-Serif" font-size="10.00">TrackedMemorySegmentLease.leasedObject</text>
</a>
</g>
</g>
<!-- Node1&#45;&gt;Node5 -->
<g id="edge4_Node000001_Node000005" class="edge">
<title>Node1&#45;&gt;Node5</title>
<g id="a_edge4_Node000001_Node000005"><a xlink:title=" ">
<path fill="none" stroke="#63b8ff" d="M767.09,-104.25C746.98,-98.62 724.58,-92.45 704,-87 686.41,-82.34 667.27,-77.46 649.72,-73.06"/>
<polygon fill="#63b8ff" stroke="#63b8ff" points="766.19,-107.63 776.76,-106.96 768.08,-100.89 766.19,-107.63"/>
</a>
</g>
</g>
<!-- Node2&#45;&gt;Node3 -->
<g id="edge2_Node000002_Node000003" class="edge">
<title>Node2&#45;&gt;Node3</title>
<g id="a_edge2_Node000002_Node000003"><a xlink:title=" ">
<path fill="none" stroke="#63b8ff" d="M475.82,-160.53C459.51,-162.96 442.83,-165.45 426.88,-167.83"/>
<polygon fill="#63b8ff" stroke="#63b8ff" points="476.54,-163.96 485.91,-159.02 475.51,-157.03 476.54,-163.96"/>
</a>
</g>
</g>
<!-- Node2&#45;&gt;Node4 -->
<g id="edge3_Node000002_Node000004" class="edge">
<title>Node2&#45;&gt;Node4</title>
<g id="a_edge3_Node000002_Node000004"><a xlink:title=" ">
<path fill="none" stroke="#63b8ff" d="M472.71,-135.5C457.79,-134.39 442.62,-133.26 428.03,-132.17"/>
<polygon fill="#63b8ff" stroke="#63b8ff" points="472.75,-139.02 482.99,-136.27 473.27,-132.04 472.75,-139.02"/>
</a>
</g>
</g>
<!-- Node6 -->
<g id="Node000006" class="node">
<title>Node6</title>
<g id="a_Node000006"><a xlink:href="classcom_1_1teragrep_1_1buf__01_1_1buffer_1_1lease_1_1TrackedMemorySegmentLease.html#a844524847207d55bc758d3e2944ce085" target="_top" xlink:title=" ">
<polygon fill="white" stroke="#666666" points="191,-78 0,-78 0,-48 191,-48 191,-78"/>
<text text-anchor="start" x="8" y="-66" font-family="Helvetica,sans-Serif" font-size="10.00">com.teragrep.buf_01.buffer.lease.</text>
<text text-anchor="middle" x="95.5" y="-55" font-family="Helvetica,sans-Serif" font-size="10.00">TrackedMemorySegmentLease.limit</text>
</a>
</g>
</g>
<!-- Node5&#45;&gt;Node6 -->
<g id="edge5_Node000005_Node000006" class="edge">
<title>Node5&#45;&gt;Node6</title>
<g id="a_edge5_Node000005_Node000006"><a xlink:title=" ">
<path fill="none" stroke="#63b8ff" d="M460.87,-59.28C376.78,-60.14 267.87,-61.25 191.1,-62.03"/>
<polygon fill="#63b8ff" stroke="#63b8ff" points="461.03,-62.78 471,-59.18 460.96,-55.78 461.03,-62.78"/>
</a>
</g>
</g>
<!-- Node7 -->
<g id="Node000007" class="node">
<title>Node7</title>
<g id="a_Node000007"><a xlink:href="classcom_1_1teragrep_1_1buf__01_1_1buffer_1_1lease_1_1TrackedMemorySegmentLease.html#a40d6bf6b0b743c66cca14f0e655a6c08" target="_top" xlink:title=" ">
<polygon fill="white" stroke="#666666" points="435,-35 227,-35 227,-5 435,-5 435,-35"/>
<text text-anchor="start" x="235" y="-23" font-family="Helvetica,sans-Serif" font-size="10.00">com.teragrep.buf_01.buffer.lease.</text>
<text text-anchor="middle" x="331" y="-12" font-family="Helvetica,sans-Serif" font-size="10.00">TrackedMemorySegmentLease.position</text>
</a>
</g>
</g>
<!-- Node5&#45;&gt;Node7 -->
<g id="edge6_Node000005_Node000007" class="edge">
<title>Node5&#45;&gt;Node7</title>
<g id="a_edge6_Node000005_Node000007"><a xlink:title=" ">
<path fill="none" stroke="#63b8ff" d="M476,-41.5C461.6,-39.35 446.91,-37.16 432.69,-35.03"/>
<polygon fill="#63b8ff" stroke="#63b8ff" points="475.51,-44.97 485.91,-42.98 476.54,-38.04 475.51,-44.97"/>
</a>
</g>
</g>
<!-- Node7&#45;&gt;Node6 -->
<g id="edge8_Node000007_Node000006" class="edge">
<title>Node7&#45;&gt;Node6</title>
<g id="a_edge8_Node000007_Node000006"><a xlink:title=" ">
<path fill="none" stroke="#63b8ff" d="M238.36,-36.88C218.48,-40.54 197.58,-44.39 178.12,-47.97"/>
<polygon fill="#63b8ff" stroke="#63b8ff" points="239.13,-40.29 248.33,-35.04 237.86,-33.41 239.13,-40.29"/>
</a>
</g>
</g>
<!-- Node8 -->
<g id="Node000008" class="node">
<title>Node8</title>
<g id="a_Node000008"><a xlink:href="classcom_1_1teragrep_1_1buf__01_1_1buffer_1_1lease_1_1TrackedMemorySegmentLease.html#af2bd0a8507750ee4fce6b1e162e9d9b0" target="_top" xlink:title=" ">
<polygon fill="white" stroke="#666666" points="187.5,-30 3.5,-30 3.5,0 187.5,0 187.5,-30"/>
<text text-anchor="start" x="11.5" y="-18" font-family="Helvetica,sans-Serif" font-size="10.00">com.teragrep.buf_01.buffer.lease.</text>
<text text-anchor="middle" x="95.5" y="-7" font-family="Helvetica,sans-Serif" font-size="10.00">TrackedMemorySegmentLease.flip</text>
</a>
</g>
</g>
<!-- Node7&#45;&gt;Node8 -->
<g id="edge7_Node000007_Node000008" class="edge">
<title>Node7&#45;&gt;Node8</title>
<g id="a_edge7_Node000007_Node000008"><a xlink:title=" ">
<path fill="none" stroke="#63b8ff" d="M216.76,-17.58C207,-17.37 197.21,-17.16 187.66,-16.95"/>
<polygon fill="#63b8ff" stroke="#63b8ff" points="216.83,-21.08 226.9,-17.79 216.98,-14.08 216.83,-21.08"/>
</a>
</g>
</g>
</g>
</svg>
