<?xml version="1.0" encoding="UTF-8" standalone="no"?>
<!DOCTYPE svg PUBLIC "-//W3C//DTD SVG 1.1//EN"
 "http://www.w3.org/Graphics/SVG/1.1/DTD/svg11.dtd">
<!-- Generated by graphviz version 2.43.0 (0)
 -->
<!-- Title: Graphical Class Hierarchy Pages: 1 -->
<svg width="598pt" height="182pt"
 viewBox="0.00 0.00 598.00 182.00" xmlns="http://www.w3.org/2000/svg" xmlns:xlink="http://www.w3.org/1999/xlink">
<g id="graph0" class="graph" transform="scale(1 1) rotate(0) translate(4 178)">
<title>Graphical Class Hierarchy</title>
<!-- Node0 -->
<g id="Node000000" class="node">
<title>Node0</title>
<g id="a_Node000000"><a xlink:title=" ">
<polygon fill="#e0e0e0" stroke="#999999" points="87,-114.5 0,-114.5 0,-95.5 87,-95.5 87,-114.5"/>
<text text-anchor="middle" x="43.5" y="-102.5" font-family="Helvetica,sans-Serif" font-size="10.00">AutoCloseable</text>
</a>
</g>
</g>
<!-- Node1 -->
<g id="Node000001" class="node">
<title>Node1</title>
<g id="a_Node000001"><a xlink:href="interfacecom_1_1teragrep_1_1buf__01_1_1buffer_1_1lease_1_1Lease.html" target="_top" xlink:title="Contains reference tracking and slicing functionality for the type T encapsulated object.">
<polygon fill="white" stroke="#666666" points="329,-126 148,-126 148,-96 329,-96 329,-126"/>
<text text-anchor="start" x="156" y="-114" font-family="Helvetica,sans-Serif" font-size="10.00">com.teragrep.buf_01.buffer.lease.</text>
<text text-anchor="middle" x="238.5" y="-103" font-family="Helvetica,sans-Serif" font-size="10.00">Lease&lt; T &gt;</text>
</a>
</g>
</g>
<!-- Node0&#45;&gt;Node1 -->
<g id="edge1_Node000000_Node000001" class="edge">
<title>Node0&#45;&gt;Node1</title>
<g id="a_edge1_Node000000_Node000001"><a xlink:title=" ">
<path fill="none" stroke="#63b8ff" d="M97.74,-106.66C113.25,-107.14 130.64,-107.68 147.75,-108.21"/>
<polygon fill="#63b8ff" stroke="#63b8ff" points="97.44,-103.14 87.33,-106.33 97.22,-110.14 97.44,-103.14"/>
</a>
</g>
</g>
<!-- Node9 -->
<g id="Node000009" class="node">
<title>Node9</title>
<g id="a_Node000009"><a xlink:href="interfacecom_1_1teragrep_1_1buf__01_1_1buffer_1_1lease_1_1collection_1_1TrackedLeaseCollection.html" target="_top" xlink:title=" ">
<polygon fill="white" stroke="#666666" points="354,-78 123,-78 123,-48 354,-48 354,-78"/>
<text text-anchor="start" x="131" y="-66" font-family="Helvetica,sans-Serif" font-size="10.00">com.teragrep.buf_01.buffer.lease.collection.</text>
<text text-anchor="middle" x="238.5" y="-55" font-family="Helvetica,sans-Serif" font-size="10.00">TrackedLeaseCollection&lt; T &gt;</text>
</a>
</g>
</g>
<!-- Node0&#45;&gt;Node9 -->
<g id="edge4_Node000000_Node000009" class="edge">
<title>Node0&#45;&gt;Node9</title>
<g id="a_edge4_Node000000_Node000009"><a xlink:title=" ">
<path fill="none" stroke="#63b8ff" d="M95.41,-93.18C104.59,-91.09 114.07,-88.96 123,-87 136.49,-84.04 150.89,-80.96 164.77,-78.03"/>
<polygon fill="#63b8ff" stroke="#63b8ff" points="94.58,-89.78 85.62,-95.42 96.14,-96.6 94.58,-89.78"/>
</a>
</g>
</g>
<!-- Node2 -->
<g id="Node000002" class="node">
<title>Node2</title>
<g id="a_Node000002"><a xlink:href="interfacecom_1_1teragrep_1_1buf__01_1_1buffer_1_1lease_1_1OpenableLease.html" target="_top" xlink:title="Lease that can be opened via the open() method provided by the Openable interface.">
<polygon fill="white" stroke="#666666" points="580.5,-174 399.5,-174 399.5,-144 580.5,-144 580.5,-174"/>
<text text-anchor="start" x="407.5" y="-162" font-family="Helvetica,sans-Serif" font-size="10.00">com.teragrep.buf_01.buffer.lease.</text>
<text text-anchor="middle" x="490" y="-151" font-family="Helvetica,sans-Serif" font-size="10.00">OpenableLease&lt; T &gt;</text>
</a>
</g>
</g>
<!-- Node1&#45;&gt;Node2 -->
<g id="edge2_Node000001_Node000002" class="edge">
<title>Node1&#45;&gt;Node2</title>
<g id="a_edge2_Node000001_Node000002"><a xlink:title=" ">
<path fill="none" stroke="#63b8ff" d="M327.65,-127.96C354.84,-133.19 384.57,-138.91 411.02,-144"/>
<polygon fill="#63b8ff" stroke="#63b8ff" points="328.24,-124.51 317.76,-126.06 326.92,-131.38 328.24,-124.51"/>
</a>
</g>
</g>
<!-- Node4 -->
<g id="Node000004" class="node">
<title>Node4</title>
<g id="a_Node000004"><a xlink:href="interfacecom_1_1teragrep_1_1buf__01_1_1buffer_1_1lease_1_1TrackedLease.html" target="_top" xlink:title="Provides an interface to read and write bytes from Lease with state for position and limit.">
<polygon fill="white" stroke="#666666" points="580.5,-126 399.5,-126 399.5,-96 580.5,-96 580.5,-126"/>
<text text-anchor="start" x="407.5" y="-114" font-family="Helvetica,sans-Serif" font-size="10.00">com.teragrep.buf_01.buffer.lease.</text>
<text text-anchor="middle" x="490" y="-103" font-family="Helvetica,sans-Serif" font-size="10.00">TrackedLease&lt; T &gt;</text>
</a>
</g>
</g>
<!-- Node1&#45;&gt;Node4 -->
<g id="edge3_Node000001_Node000004" class="edge">
<title>Node1&#45;&gt;Node4</title>
<g id="a_edge3_Node000001_Node000004"><a xlink:title=" ">
<path fill="none" stroke="#63b8ff" d="M339.46,-111C359.22,-111 379.84,-111 399.24,-111"/>
<polygon fill="#63b8ff" stroke="#63b8ff" points="339.22,-107.5 329.22,-111 339.22,-114.5 339.22,-107.5"/>
</a>
</g>
</g>
<!-- Node3 -->
<g id="Node000003" class="node">
<title>Node3</title>
<g id="a_Node000003"><a xlink:href="interfacecom_1_1teragrep_1_1buf__01_1_1buffer_1_1Openable.html" target="_top" xlink:title=" ">
<polygon fill="white" stroke="#666666" points="314.5,-174 162.5,-174 162.5,-144 314.5,-144 314.5,-174"/>
<text text-anchor="start" x="170.5" y="-162" font-family="Helvetica,sans-Serif" font-size="10.00">com.teragrep.buf_01.buffer.</text>
<text text-anchor="middle" x="238.5" y="-151" font-family="Helvetica,sans-Serif" font-size="10.00">Openable</text>
</a>
</g>
</g>
<!-- Node3&#45;&gt;Node2 -->
<g id="edge5_Node000003_Node000002" class="edge">
<title>Node3&#45;&gt;Node2</title>
<g id="a_edge5_Node000003_Node000002"><a xlink:title=" ">
<path fill="none" stroke="#63b8ff" d="M324.86,-159C348.92,-159 375.16,-159 399.45,-159"/>
<polygon fill="#63b8ff" stroke="#63b8ff" points="324.7,-155.5 314.7,-159 324.7,-162.5 324.7,-155.5"/>
</a>
</g>
</g>
<!-- Node5 -->
<g id="Node000005" class="node">
<title>Node5</title>
<g id="a_Node000005"><a xlink:title=" ">
<polygon fill="#e0e0e0" stroke="#999999" points="73,-72.5 14,-72.5 14,-53.5 73,-53.5 73,-72.5"/>
<text text-anchor="middle" x="43.5" y="-60.5" font-family="Helvetica,sans-Serif" font-size="10.00">Stubable</text>
</a>
</g>
</g>
<!-- Node5&#45;&gt;Node1 -->
<g id="edge9_Node000005_Node000001" class="edge">
<title>Node5&#45;&gt;Node1</title>
<g id="a_edge9_Node000005_Node000001"><a xlink:title=" ">
<path fill="none" stroke="#63b8ff" d="M82.84,-75.48C95.55,-79.41 109.82,-83.61 123,-87 135.2,-90.14 148.2,-93.16 160.91,-95.94"/>
<polygon fill="#63b8ff" stroke="#63b8ff" points="83.62,-72.05 73.03,-72.4 81.53,-78.73 83.62,-72.05"/>
</a>
</g>
</g>
<!-- Node5&#45;&gt;Node9 -->
<g id="edge10_Node000005_Node000009" class="edge">
<title>Node5&#45;&gt;Node9</title>
<g id="a_edge10_Node000005_Node000009"><a xlink:title=" ">
<path fill="none" stroke="#63b8ff" d="M83.57,-63C95.23,-63 108.64,-63 122.59,-63"/>
<polygon fill="#63b8ff" stroke="#63b8ff" points="83.39,-59.5 73.39,-63 83.39,-66.5 83.39,-59.5"/>
</a>
</g>
</g>
<!-- Node6 -->
<g id="Node000006" class="node">
<title>Node6</title>
<g id="a_Node000006"><a xlink:href="interfacecom_1_1teragrep_1_1buf__01_1_1buffer_1_1container_1_1MemorySegmentContainer.html" target="_top" xlink:title="Contains the MemorySegment, providing an id and stub functionality.">
<polygon fill="white" stroke="#666666" points="338.5,-30 138.5,-30 138.5,0 338.5,0 338.5,-30"/>
<text text-anchor="start" x="146.5" y="-18" font-family="Helvetica,sans-Serif" font-size="10.00">com.teragrep.buf_01.buffer.container.</text>
<text text-anchor="middle" x="238.5" y="-7" font-family="Helvetica,sans-Serif" font-size="10.00">MemorySegmentContainer</text>
</a>
</g>
</g>
<!-- Node5&#45;&gt;Node6 -->
<g id="edge6_Node000005_Node000006" class="edge">
<title>Node5&#45;&gt;Node6</title>
<g id="a_edge6_Node000005_Node000006"><a xlink:title=" ">
<path fill="none" stroke="#63b8ff" d="M82.84,-50.52C95.55,-46.59 109.82,-42.39 123,-39 135.2,-35.86 148.2,-32.84 160.91,-30.06"/>
<polygon fill="#63b8ff" stroke="#63b8ff" points="81.53,-47.27 73.03,-53.6 83.62,-53.95 81.53,-47.27"/>
</a>
</g>
</g>
<!-- Node7 -->
<g id="Node000007" class="node">
<title>Node7</title>
<g id="a_Node000007"><a xlink:href="classcom_1_1teragrep_1_1buf__01_1_1buffer_1_1container_1_1MemorySegmentContainerImpl.html" target="_top" xlink:title="Implementation of the MemorySegmentContainer interface.">
<polygon fill="white" stroke="#666666" points="590,-78 390,-78 390,-48 590,-48 590,-78"/>
<text text-anchor="start" x="398" y="-66" font-family="Helvetica,sans-Serif" font-size="10.00">com.teragrep.buf_01.buffer.container.</text>
<text text-anchor="middle" x="490" y="-55" font-family="Helvetica,sans-Serif" font-size="10.00">MemorySegmentContainerImpl</text>
</a>
</g>
</g>
<!-- Node6&#45;&gt;Node7 -->
<g id="edge7_Node000006_Node000007" class="edge">
<title>Node6&#45;&gt;Node7</title>
<g id="a_edge7_Node000006_Node000007"><a xlink:title=" ">
<path fill="none" stroke="#63b8ff" d="M327.65,-31.96C354.84,-37.19 384.57,-42.91 411.02,-48"/>
<polygon fill="#63b8ff" stroke="#63b8ff" points="328.24,-28.51 317.76,-30.06 326.92,-35.38 328.24,-28.51"/>
</a>
</g>
</g>
<!-- Node8 -->
<g id="Node000008" class="node">
<title>Node8</title>
<g id="a_Node000008"><a xlink:href="classcom_1_1teragrep_1_1buf__01_1_1buffer_1_1container_1_1MemorySegmentContainerStub.html" target="_top" xlink:title="Stub implementation of the MemorySegmentContainer.">
<polygon fill="white" stroke="#666666" points="590,-30 390,-30 390,0 590,0 590,-30"/>
<text text-anchor="start" x="398" y="-18" font-family="Helvetica,sans-Serif" font-size="10.00">com.teragrep.buf_01.buffer.container.</text>
<text text-anchor="middle" x="490" y="-7" font-family="Helvetica,sans-Serif" font-size="10.00">MemorySegmentContainerStub</text>
</a>
</g>
</g>
<!-- Node6&#45;&gt;Node8 -->
<g id="edge8_Node000006_Node000008" class="edge">
<title>Node6&#45;&gt;Node8</title>
<g id="a_edge8_Node000006_Node000008"><a xlink:title=" ">
<path fill="none" stroke="#63b8ff" d="M349.08,-15C362.56,-15 376.29,-15 389.61,-15"/>
<polygon fill="#63b8ff" stroke="#63b8ff" points="348.83,-11.5 338.83,-15 348.83,-18.5 348.83,-11.5"/>
</a>
</g>
</g>
</g>
</svg>
