<?xml version="1.0" encoding="UTF-8" standalone="no"?>
<!DOCTYPE svg PUBLIC "-//W3C//DTD SVG 1.1//EN"
 "http://www.w3.org/Graphics/SVG/1.1/DTD/svg11.dtd">
<!-- Generated by graphviz version 2.43.0 (0)
 -->
<!-- Title: Graphical Class Hierarchy Pages: 1 -->
<svg width="423pt" height="86pt"
 viewBox="0.00 0.00 423.00 86.00" xmlns="http://www.w3.org/2000/svg" xmlns:xlink="http://www.w3.org/1999/xlink">
<g id="graph0" class="graph" transform="scale(1 1) rotate(0) translate(4 82)">
<title>Graphical Class Hierarchy</title>
<!-- Node0 -->
<g id="Node000000" class="node">
<title>Node0</title>
<g id="a_Node000000"><a xlink:href="interfacecom_1_1teragrep_1_1buf__01_1_1buffer_1_1lease_1_1OpenableLease.html" target="_top" xlink:title=" ">
<polygon fill="white" stroke="#666666" points="198,-54 0,-54 0,-24 198,-24 198,-54"/>
<text text-anchor="start" x="8" y="-42" font-family="Helvetica,sans-Serif" font-size="10.00">com.teragrep.buf_01.buffer.lease.</text>
<text text-anchor="middle" x="99" y="-31" font-family="Helvetica,sans-Serif" font-size="10.00">OpenableLease&lt; MemorySegment &gt;</text>
</a>
</g>
</g>
<!-- Node1 -->
<g id="Node000001" class="node">
<title>Node1</title>
<g id="a_Node000001"><a xlink:href="classcom_1_1teragrep_1_1buf__01_1_1buffer_1_1lease_1_1MemorySegmentLease.html" target="_top" xlink:title="Decorator for MemorySegmentContainer that zeroes the encapsulated MemorySegment on close().">
<polygon fill="white" stroke="#666666" points="415,-78 234,-78 234,-48 415,-48 415,-78"/>
<text text-anchor="start" x="242" y="-66" font-family="Helvetica,sans-Serif" font-size="10.00">com.teragrep.buf_01.buffer.lease.</text>
<text text-anchor="middle" x="324.5" y="-55" font-family="Helvetica,sans-Serif" font-size="10.00">MemorySegmentLease</text>
</a>
</g>
</g>
<!-- Node0&#45;&gt;Node1 -->
<g id="edge9_Node000000_Node000001" class="edge">
<title>Node0&#45;&gt;Node1</title>
<g id="a_edge9_Node000000_Node000001"><a xlink:title=" ">
<path fill="none" stroke="#63b8ff" d="M208.16,-50.61C216.82,-51.54 225.5,-52.48 234,-53.39"/>
<polygon fill="#63b8ff" stroke="#63b8ff" points="208.35,-47.11 198.03,-49.53 207.6,-54.07 208.35,-47.11"/>
</a>
</g>
</g>
<!-- Node2 -->
<g id="Node000002" class="node">
<title>Node2</title>
<g id="a_Node000002"><a xlink:href="classcom_1_1teragrep_1_1buf__01_1_1buffer_1_1lease_1_1MemorySegmentLeaseStub.html" target="_top" xlink:title="Stub implementation of the Lease.">
<polygon fill="white" stroke="#666666" points="415,-30 234,-30 234,0 415,0 415,-30"/>
<text text-anchor="start" x="242" y="-18" font-family="Helvetica,sans-Serif" font-size="10.00">com.teragrep.buf_01.buffer.lease.</text>
<text text-anchor="middle" x="324.5" y="-7" font-family="Helvetica,sans-Serif" font-size="10.00">MemorySegmentLeaseStub</text>
</a>
</g>
</g>
<!-- Node0&#45;&gt;Node2 -->
<g id="edge10_Node000000_Node000002" class="edge">
<title>Node0&#45;&gt;Node2</title>
<g id="a_edge10_Node000000_Node000002"><a xlink:title=" ">
<path fill="none" stroke="#63b8ff" d="M208.16,-27.39C216.82,-26.46 225.5,-25.52 234,-24.61"/>
<polygon fill="#63b8ff" stroke="#63b8ff" points="207.6,-23.93 198.03,-28.47 208.35,-30.89 207.6,-23.93"/>
</a>
</g>
</g>
</g>
</svg>
