<?xml version="1.0" encoding="UTF-8" standalone="no"?>
<!DOCTYPE svg PUBLIC "-//W3C//DTD SVG 1.1//EN"
 "http://www.w3.org/Graphics/SVG/1.1/DTD/svg11.dtd">
<!-- Generated by graphviz version 2.43.0 (0)
 -->
<!-- Title: Graphical Class Hierarchy Pages: 1 -->
<svg width="567pt" height="158pt"
 viewBox="0.00 0.00 567.00 158.00" xmlns="http://www.w3.org/2000/svg" xmlns:xlink="http://www.w3.org/1999/xlink">
<g id="graph0" class="graph" transform="scale(1 1) rotate(0) translate(4 154)">
<title>Graphical Class Hierarchy</title>
<!-- Node0 -->
<g id="Node000000" class="node">
<title>Node0</title>
<g id="a_Node000000"><a xlink:title=" ">
<polygon fill="#e0e0e0" stroke="#999999" points="87,-144.5 0,-144.5 0,-125.5 87,-125.5 87,-144.5"/>
<text text-anchor="middle" x="43.5" y="-132.5" font-family="Helvetica,sans-Serif" font-size="10.00">AutoCloseable</text>
</a>
</g>
</g>
<!-- Node1 -->
<g id="Node000001" class="node">
<title>Node1</title>
<g id="a_Node000001"><a xlink:href="interfacecom_1_1teragrep_1_1buf__01_1_1buffer_1_1lease_1_1Lease.html" target="_top" xlink:title="Contains reference tracking and slicing functionality for the type T encapsulated object.">
<polygon fill="white" stroke="#666666" points="313.5,-150 132.5,-150 132.5,-120 313.5,-120 313.5,-150"/>
<text text-anchor="start" x="140.5" y="-138" font-family="Helvetica,sans-Serif" font-size="10.00">com.teragrep.buf_01.buffer.lease.</text>
<text text-anchor="middle" x="223" y="-127" font-family="Helvetica,sans-Serif" font-size="10.00">Lease&lt; T &gt;</text>
</a>
</g>
</g>
<!-- Node0&#45;&gt;Node1 -->
<g id="edge1_Node000000_Node000001" class="edge">
<title>Node0&#45;&gt;Node1</title>
<g id="a_edge1_Node000000_Node000001"><a xlink:title=" ">
<path fill="none" stroke="#63b8ff" d="M97.33,-135C108.41,-135 120.39,-135 132.39,-135"/>
<polygon fill="#63b8ff" stroke="#63b8ff" points="97.02,-131.5 87.02,-135 97.02,-138.5 97.02,-131.5"/>
</a>
</g>
</g>
<!-- Node2 -->
<g id="Node000002" class="node">
<title>Node2</title>
<g id="a_Node000002"><a xlink:href="interfacecom_1_1teragrep_1_1buf__01_1_1buffer_1_1lease_1_1OpenableLease.html" target="_top" xlink:title="Lease that can be opened via the open() method provided by the Openable interface.">
<polygon fill="white" stroke="#666666" points="549.5,-138 368.5,-138 368.5,-108 549.5,-108 549.5,-138"/>
<text text-anchor="start" x="376.5" y="-126" font-family="Helvetica,sans-Serif" font-size="10.00">com.teragrep.buf_01.buffer.lease.</text>
<text text-anchor="middle" x="459" y="-115" font-family="Helvetica,sans-Serif" font-size="10.00">OpenableLease&lt; T &gt;</text>
</a>
</g>
</g>
<!-- Node1&#45;&gt;Node2 -->
<g id="edge2_Node000001_Node000002" class="edge">
<title>Node1&#45;&gt;Node2</title>
<g id="a_edge2_Node000001_Node000002"><a xlink:title=" ">
<path fill="none" stroke="#63b8ff" d="M323.96,-129.87C338.74,-129.12 353.89,-128.34 368.44,-127.59"/>
<polygon fill="#63b8ff" stroke="#63b8ff" points="323.61,-126.39 313.8,-130.39 323.97,-133.38 323.61,-126.39"/>
</a>
</g>
</g>
<!-- Node3 -->
<g id="Node000003" class="node">
<title>Node3</title>
<g id="a_Node000003"><a xlink:href="interfacecom_1_1teragrep_1_1buf__01_1_1buffer_1_1Openable.html" target="_top" xlink:title=" ">
<polygon fill="white" stroke="#666666" points="299,-102 147,-102 147,-72 299,-72 299,-102"/>
<text text-anchor="start" x="155" y="-90" font-family="Helvetica,sans-Serif" font-size="10.00">com.teragrep.buf_01.buffer.</text>
<text text-anchor="middle" x="223" y="-79" font-family="Helvetica,sans-Serif" font-size="10.00">Openable</text>
</a>
</g>
</g>
<!-- Node3&#45;&gt;Node2 -->
<g id="edge3_Node000003_Node000002" class="edge">
<title>Node3&#45;&gt;Node2</title>
<g id="a_edge3_Node000003_Node000002"><a xlink:title=" ">
<path fill="none" stroke="#63b8ff" d="M308.97,-100.07C328.26,-103.04 348.81,-106.2 368.29,-109.2"/>
<polygon fill="#63b8ff" stroke="#63b8ff" points="309.42,-96.6 299,-98.54 308.36,-103.52 309.42,-96.6"/>
</a>
</g>
</g>
<!-- Node4 -->
<g id="Node000004" class="node">
<title>Node4</title>
<g id="a_Node000004"><a xlink:title=" ">
<polygon fill="#e0e0e0" stroke="#999999" points="73,-78.5 14,-78.5 14,-59.5 73,-59.5 73,-78.5"/>
<text text-anchor="middle" x="43.5" y="-66.5" font-family="Helvetica,sans-Serif" font-size="10.00">Stubable</text>
</a>
</g>
</g>
<!-- Node4&#45;&gt;Node1 -->
<g id="edge7_Node000004_Node000001" class="edge">
<title>Node4&#45;&gt;Node1</title>
<g id="a_edge7_Node000004_Node000001"><a xlink:title=" ">
<path fill="none" stroke="#63b8ff" d="M68.32,-83.79C83.51,-92.7 103.87,-103.7 123,-111 131.76,-114.34 141.13,-117.33 150.49,-119.96"/>
<polygon fill="#63b8ff" stroke="#63b8ff" points="69.97,-80.7 59.59,-78.57 66.37,-86.71 69.97,-80.7"/>
</a>
</g>
</g>
<!-- Node5 -->
<g id="Node000005" class="node">
<title>Node5</title>
<g id="a_Node000005"><a xlink:href="interfacecom_1_1teragrep_1_1buf__01_1_1buffer_1_1container_1_1MemorySegmentContainer.html" target="_top" xlink:title="Contains the MemorySegment, providing an id and stub functionality.">
<polygon fill="white" stroke="#666666" points="323,-54 123,-54 123,-24 323,-24 323,-54"/>
<text text-anchor="start" x="131" y="-42" font-family="Helvetica,sans-Serif" font-size="10.00">com.teragrep.buf_01.buffer.container.</text>
<text text-anchor="middle" x="223" y="-31" font-family="Helvetica,sans-Serif" font-size="10.00">MemorySegmentContainer</text>
</a>
</g>
</g>
<!-- Node4&#45;&gt;Node5 -->
<g id="edge4_Node000004_Node000005" class="edge">
<title>Node4&#45;&gt;Node5</title>
<g id="a_edge4_Node000004_Node000005"><a xlink:title=" ">
<path fill="none" stroke="#63b8ff" d="M83.23,-62.45C97.96,-59.96 115.43,-57.01 132.91,-54.06"/>
<polygon fill="#63b8ff" stroke="#63b8ff" points="82.3,-59.06 73.02,-64.18 83.46,-65.96 82.3,-59.06"/>
</a>
</g>
</g>
<!-- Node6 -->
<g id="Node000006" class="node">
<title>Node6</title>
<g id="a_Node000006"><a xlink:href="classcom_1_1teragrep_1_1buf__01_1_1buffer_1_1container_1_1MemorySegmentContainerImpl.html" target="_top" xlink:title="Implementation of the MemorySegmentContainer interface.">
<polygon fill="white" stroke="#666666" points="559,-78 359,-78 359,-48 559,-48 559,-78"/>
<text text-anchor="start" x="367" y="-66" font-family="Helvetica,sans-Serif" font-size="10.00">com.teragrep.buf_01.buffer.container.</text>
<text text-anchor="middle" x="459" y="-55" font-family="Helvetica,sans-Serif" font-size="10.00">MemorySegmentContainerImpl</text>
</a>
</g>
</g>
<!-- Node5&#45;&gt;Node6 -->
<g id="edge5_Node000005_Node000006" class="edge">
<title>Node5&#45;&gt;Node6</title>
<g id="a_edge5_Node000005_Node000006"><a xlink:title=" ">
<path fill="none" stroke="#63b8ff" d="M333.27,-50.21C341.85,-51.09 350.48,-51.97 358.98,-52.84"/>
<polygon fill="#63b8ff" stroke="#63b8ff" points="333.54,-46.72 323.24,-49.18 332.83,-53.68 333.54,-46.72"/>
</a>
</g>
</g>
<!-- Node7 -->
<g id="Node000007" class="node">
<title>Node7</title>
<g id="a_Node000007"><a xlink:href="classcom_1_1teragrep_1_1buf__01_1_1buffer_1_1container_1_1MemorySegmentContainerStub.html" target="_top" xlink:title="Stub implementation of the MemorySegmentContainer.">
<polygon fill="white" stroke="#666666" points="559,-30 359,-30 359,0 559,0 559,-30"/>
<text text-anchor="start" x="367" y="-18" font-family="Helvetica,sans-Serif" font-size="10.00">com.teragrep.buf_01.buffer.container.</text>
<text text-anchor="middle" x="459" y="-7" font-family="Helvetica,sans-Serif" font-size="10.00">MemorySegmentContainerStub</text>
</a>
</g>
</g>
<!-- Node5&#45;&gt;Node7 -->
<g id="edge6_Node000005_Node000007" class="edge">
<title>Node5&#45;&gt;Node7</title>
<g id="a_edge6_Node000005_Node000007"><a xlink:title=" ">
<path fill="none" stroke="#63b8ff" d="M333.27,-27.79C341.85,-26.91 350.48,-26.03 358.98,-25.16"/>
<polygon fill="#63b8ff" stroke="#63b8ff" points="332.83,-24.32 323.24,-28.82 333.54,-31.28 332.83,-24.32"/>
</a>
</g>
</g>
</g>
</svg>
