<?xml version="1.0" encoding="UTF-8" standalone="no"?>
<!DOCTYPE svg PUBLIC "-//W3C//DTD SVG 1.1//EN"
 "http://www.w3.org/Graphics/SVG/1.1/DTD/svg11.dtd">
<!-- Generated by graphviz version 2.43.0 (0)
 -->
<!-- Title: Graphical Class Hierarchy Pages: 1 -->
<svg width="567pt" height="182pt"
 viewBox="0.00 0.00 567.00 182.00" xmlns="http://www.w3.org/2000/svg" xmlns:xlink="http://www.w3.org/1999/xlink">
<g id="graph0" class="graph" transform="scale(1 1) rotate(0) translate(4 178)">
<title>Graphical Class Hierarchy</title>
<!-- Node0 -->
<g id="Node000000" class="node">
<title>Node0</title>
<g id="a_Node000000"><a xlink:title=" ">
<polygon fill="#e0e0e0" stroke="#999999" points="87,-120.5 0,-120.5 0,-101.5 87,-101.5 87,-120.5"/>
<text text-anchor="middle" x="43.5" y="-108.5" font-family="Helvetica,sans-Serif" font-size="10.00">AutoCloseable</text>
</a>
</g>
</g>
<!-- Node1 -->
<g id="Node000001" class="node">
<title>Node1</title>
<g id="a_Node000001"><a xlink:href="interfacecom_1_1teragrep_1_1buf__01_1_1buffer_1_1lease_1_1Lease.html" target="_top" xlink:title="Contains reference tracking and slicing functionality for the type T encapsulated object.">
<polygon fill="white" stroke="#666666" points="313.5,-126 132.5,-126 132.5,-96 313.5,-96 313.5,-126"/>
<text text-anchor="start" x="140.5" y="-114" font-family="Helvetica,sans-Serif" font-size="10.00">com.teragrep.buf_01.buffer.lease.</text>
<text text-anchor="middle" x="223" y="-103" font-family="Helvetica,sans-Serif" font-size="10.00">Lease&lt; T &gt;</text>
</a>
</g>
</g>
<!-- Node0&#45;&gt;Node1 -->
<g id="edge1_Node000000_Node000001" class="edge">
<title>Node0&#45;&gt;Node1</title>
<g id="a_edge1_Node000000_Node000001"><a xlink:title=" ">
<path fill="none" stroke="#63b8ff" d="M97.33,-111C108.41,-111 120.39,-111 132.39,-111"/>
<polygon fill="#63b8ff" stroke="#63b8ff" points="97.02,-107.5 87.02,-111 97.02,-114.5 97.02,-107.5"/>
</a>
</g>
</g>
<!-- Node2 -->
<g id="Node000002" class="node">
<title>Node2</title>
<g id="a_Node000002"><a xlink:href="interfacecom_1_1teragrep_1_1buf__01_1_1buffer_1_1lease_1_1OpenableLease.html" target="_top" xlink:title="Lease that can be opened via the open() method provided by the Openable interface.">
<polygon fill="white" stroke="#666666" points="549.5,-174 368.5,-174 368.5,-144 549.5,-144 549.5,-174"/>
<text text-anchor="start" x="376.5" y="-162" font-family="Helvetica,sans-Serif" font-size="10.00">com.teragrep.buf_01.buffer.lease.</text>
<text text-anchor="middle" x="459" y="-151" font-family="Helvetica,sans-Serif" font-size="10.00">OpenableLease&lt; T &gt;</text>
</a>
</g>
</g>
<!-- Node1&#45;&gt;Node2 -->
<g id="edge2_Node000001_Node000002" class="edge">
<title>Node1&#45;&gt;Node2</title>
<g id="a_edge2_Node000001_Node000002"><a xlink:title=" ">
<path fill="none" stroke="#63b8ff" d="M307.34,-128.1C332.66,-133.29 360.27,-138.95 384.86,-144"/>
<polygon fill="#63b8ff" stroke="#63b8ff" points="307.9,-124.64 297.4,-126.06 306.49,-131.49 307.9,-124.64"/>
</a>
</g>
</g>
<!-- Node4 -->
<g id="Node000004" class="node">
<title>Node4</title>
<g id="a_Node000004"><a xlink:href="interfacecom_1_1teragrep_1_1buf__01_1_1buffer_1_1lease_1_1TrackedLease.html" target="_top" xlink:title="Provides an interface to read and write bytes from Lease with state for position and limit.">
<polygon fill="white" stroke="#666666" points="549.5,-126 368.5,-126 368.5,-96 549.5,-96 549.5,-126"/>
<text text-anchor="start" x="376.5" y="-114" font-family="Helvetica,sans-Serif" font-size="10.00">com.teragrep.buf_01.buffer.lease.</text>
<text text-anchor="middle" x="459" y="-103" font-family="Helvetica,sans-Serif" font-size="10.00">TrackedLease&lt; T &gt;</text>
</a>
</g>
</g>
<!-- Node1&#45;&gt;Node4 -->
<g id="edge3_Node000001_Node000004" class="edge">
<title>Node1&#45;&gt;Node4</title>
<g id="a_edge3_Node000001_Node000004"><a xlink:title=" ">
<path fill="none" stroke="#63b8ff" d="M323.96,-111C338.74,-111 353.89,-111 368.44,-111"/>
<polygon fill="#63b8ff" stroke="#63b8ff" points="323.8,-107.5 313.8,-111 323.8,-114.5 323.8,-107.5"/>
</a>
</g>
</g>
<!-- Node3 -->
<g id="Node000003" class="node">
<title>Node3</title>
<g id="a_Node000003"><a xlink:href="interfacecom_1_1teragrep_1_1buf__01_1_1buffer_1_1Openable.html" target="_top" xlink:title=" ">
<polygon fill="white" stroke="#666666" points="299,-174 147,-174 147,-144 299,-144 299,-174"/>
<text text-anchor="start" x="155" y="-162" font-family="Helvetica,sans-Serif" font-size="10.00">com.teragrep.buf_01.buffer.</text>
<text text-anchor="middle" x="223" y="-151" font-family="Helvetica,sans-Serif" font-size="10.00">Openable</text>
</a>
</g>
</g>
<!-- Node3&#45;&gt;Node2 -->
<g id="edge4_Node000003_Node000002" class="edge">
<title>Node3&#45;&gt;Node2</title>
<g id="a_edge4_Node000003_Node000002"><a xlink:title=" ">
<path fill="none" stroke="#63b8ff" d="M309.23,-159C328.45,-159 348.9,-159 368.29,-159"/>
<polygon fill="#63b8ff" stroke="#63b8ff" points="309,-155.5 299,-159 309,-162.5 309,-155.5"/>
</a>
</g>
</g>
<!-- Node5 -->
<g id="Node000005" class="node">
<title>Node5</title>
<g id="a_Node000005"><a xlink:title=" ">
<polygon fill="#e0e0e0" stroke="#999999" points="73,-78.5 14,-78.5 14,-59.5 73,-59.5 73,-78.5"/>
<text text-anchor="middle" x="43.5" y="-66.5" font-family="Helvetica,sans-Serif" font-size="10.00">Stubable</text>
</a>
</g>
</g>
<!-- Node5&#45;&gt;Node1 -->
<g id="edge8_Node000005_Node000001" class="edge">
<title>Node5&#45;&gt;Node1</title>
<g id="a_edge8_Node000005_Node000001"><a xlink:title=" ">
<path fill="none" stroke="#63b8ff" d="M83,-78.11C105.07,-83.33 133.32,-90.02 158.59,-96"/>
<polygon fill="#63b8ff" stroke="#63b8ff" points="83.56,-74.64 73.02,-75.75 81.94,-81.46 83.56,-74.64"/>
</a>
</g>
</g>
<!-- Node6 -->
<g id="Node000006" class="node">
<title>Node6</title>
<g id="a_Node000006"><a xlink:href="interfacecom_1_1teragrep_1_1buf__01_1_1buffer_1_1container_1_1MemorySegmentContainer.html" target="_top" xlink:title="Contains the MemorySegment, providing an id and stub functionality.">
<polygon fill="white" stroke="#666666" points="323,-78 123,-78 123,-48 323,-48 323,-78"/>
<text text-anchor="start" x="131" y="-66" font-family="Helvetica,sans-Serif" font-size="10.00">com.teragrep.buf_01.buffer.container.</text>
<text text-anchor="middle" x="223" y="-55" font-family="Helvetica,sans-Serif" font-size="10.00">MemorySegmentContainer</text>
</a>
</g>
</g>
<!-- Node5&#45;&gt;Node6 -->
<g id="edge5_Node000005_Node000006" class="edge">
<title>Node5&#45;&gt;Node6</title>
<g id="a_edge5_Node000005_Node000006"><a xlink:title=" ">
<path fill="none" stroke="#63b8ff" d="M83.02,-67.7C94.97,-67.29 108.73,-66.83 122.84,-66.35"/>
<polygon fill="#63b8ff" stroke="#63b8ff" points="82.89,-64.2 73.02,-68.04 83.13,-71.2 82.89,-64.2"/>
</a>
</g>
</g>
<!-- Node7 -->
<g id="Node000007" class="node">
<title>Node7</title>
<g id="a_Node000007"><a xlink:href="classcom_1_1teragrep_1_1buf__01_1_1buffer_1_1container_1_1MemorySegmentContainerImpl.html" target="_top" xlink:title="Implementation of the MemorySegmentContainer interface.">
<polygon fill="white" stroke="#666666" points="559,-78 359,-78 359,-48 559,-48 559,-78"/>
<text text-anchor="start" x="367" y="-66" font-family="Helvetica,sans-Serif" font-size="10.00">com.teragrep.buf_01.buffer.container.</text>
<text text-anchor="middle" x="459" y="-55" font-family="Helvetica,sans-Serif" font-size="10.00">MemorySegmentContainerImpl</text>
</a>
</g>
</g>
<!-- Node6&#45;&gt;Node7 -->
<g id="edge6_Node000006_Node000007" class="edge">
<title>Node6&#45;&gt;Node7</title>
<g id="a_edge6_Node000006_Node000007"><a xlink:title=" ">
<path fill="none" stroke="#63b8ff" d="M333.27,-63C341.85,-63 350.48,-63 358.98,-63"/>
<polygon fill="#63b8ff" stroke="#63b8ff" points="333.24,-59.5 323.24,-63 333.24,-66.5 333.24,-59.5"/>
</a>
</g>
</g>
<!-- Node8 -->
<g id="Node000008" class="node">
<title>Node8</title>
<g id="a_Node000008"><a xlink:href="classcom_1_1teragrep_1_1buf__01_1_1buffer_1_1container_1_1MemorySegmentContainerStub.html" target="_top" xlink:title="Stub implementation of the MemorySegmentContainer.">
<polygon fill="white" stroke="#666666" points="559,-30 359,-30 359,0 559,0 559,-30"/>
<text text-anchor="start" x="367" y="-18" font-family="Helvetica,sans-Serif" font-size="10.00">com.teragrep.buf_01.buffer.container.</text>
<text text-anchor="middle" x="459" y="-7" font-family="Helvetica,sans-Serif" font-size="10.00">MemorySegmentContainerStub</text>
</a>
</g>
</g>
<!-- Node6&#45;&gt;Node8 -->
<g id="edge7_Node000006_Node000008" class="edge">
<title>Node6&#45;&gt;Node8</title>
<g id="a_edge7_Node000006_Node000008"><a xlink:title=" ">
<path fill="none" stroke="#63b8ff" d="M307.34,-45.9C332.66,-40.71 360.27,-35.05 384.86,-30"/>
<polygon fill="#63b8ff" stroke="#63b8ff" points="306.49,-42.51 297.4,-47.94 307.9,-49.36 306.49,-42.51"/>
</a>
</g>
</g>
</g>
</svg>
