<?xml version="1.0" encoding="UTF-8" standalone="no"?><svg xmlns="http://www.w3.org/2000/svg" xmlns:xlink="http://www.w3.org/1999/xlink" contentScriptType="application/ecmascript" contentStyleType="text/css" height="260px" preserveAspectRatio="none" style="width:707px;height:260px;" version="1.1" viewBox="0 0 707 260" width="707px" zoomAndPan="magnify"><defs><filter height="300%" id="feh34c1mpvtqu" width="300%" x="-1" y="-1"><feGaussianBlur result="blurOut" stdDeviation="2.0"/><feColorMatrix in="blurOut" result="blurOut2" type="matrix" values="0 0 0 0 0 0 0 0 0 0 0 0 0 0 0 0 0 0 .4 0"/><feOffset dx="4.0" dy="4.0" in="blurOut2" result="blurOut3"/><feBlend in="SourceGraphic" in2="blurOut3" mode="normal"/></filter></defs><g><!--MD5=[69b522baeefa040c60f0aead6ab26a7b]
class ArenaMemorySegmentLeaseSupplier--><rect fill="#FEFECE" filter="url(#feh34c1mpvtqu)" height="86.4141" id="ArenaMemorySegmentLeaseSupplier" style="stroke: #A80036; stroke-width: 1.5;" width="261" x="6" y="23"/><ellipse cx="21" cy="39" fill="#ADD1B2" rx="11" ry="11" style="stroke: #A80036; stroke-width: 1.0;"/><path d="M23.9688,44.6406 Q23.3906,44.9375 22.75,45.0781 Q22.1094,45.2344 21.4063,45.2344 Q18.9063,45.2344 17.5781,43.5938 Q16.2656,41.9375 16.2656,38.8125 Q16.2656,35.6875 17.5781,34.0313 Q18.9063,32.375 21.4063,32.375 Q22.1094,32.375 22.75,32.5313 Q23.4063,32.6875 23.9688,32.9844 L23.9688,35.7031 Q23.3438,35.125 22.75,34.8594 Q22.1563,34.5781 21.5313,34.5781 Q20.1875,34.5781 19.5,35.6563 Q18.8125,36.7188 18.8125,38.8125 Q18.8125,40.9063 19.5,41.9844 Q20.1875,43.0469 21.5313,43.0469 Q22.1563,43.0469 22.75,42.7813 Q23.3438,42.5 23.9688,41.9219 L23.9688,44.6406 Z "/><text fill="#000000" font-family="sans-serif" font-size="12" lengthAdjust="spacingAndGlyphs" textLength="229" x="35" y="43.1543">ArenaMemorySegmentLeaseSupplier</text><line style="stroke: #A80036; stroke-width: 1.5;" x1="7" x2="266" y1="55" y2="55"/><line style="stroke: #A80036; stroke-width: 1.5;" x1="7" x2="266" y1="63" y2="63"/><ellipse cx="17" cy="74" fill="#84BE84" rx="3" ry="3" style="stroke: #038048; stroke-width: 1.0;"/><text fill="#000000" font-family="sans-serif" font-size="11" lengthAdjust="spacingAndGlyphs" textLength="84" x="26" y="77.2104">apply(poolRef);</text><ellipse cx="17" cy="86.8047" fill="#84BE84" rx="3" ry="3" style="stroke: #038048; stroke-width: 1.0;"/><text fill="#000000" font-family="sans-serif" font-size="11" lengthAdjust="spacingAndGlyphs" textLength="80" x="26" y="90.0151">accept(lease);</text><ellipse cx="17" cy="99.6094" fill="#84BE84" rx="3" ry="3" style="stroke: #038048; stroke-width: 1.0;"/><text fill="#000000" font-family="sans-serif" font-size="11" lengthAdjust="spacingAndGlyphs" textLength="42" x="26" y="102.8198">close();</text><!--MD5=[5f4147abe85723a46671276136bd6156]
class MemorySegmentLease--><rect fill="#FEFECE" filter="url(#feh34c1mpvtqu)" height="48" id="MemorySegmentLease" style="stroke: #A80036; stroke-width: 1.5;" width="173" x="50" y="201"/><ellipse cx="65" cy="217" fill="#ADD1B2" rx="11" ry="11" style="stroke: #A80036; stroke-width: 1.0;"/><path d="M67.9688,222.6406 Q67.3906,222.9375 66.75,223.0781 Q66.1094,223.2344 65.4063,223.2344 Q62.9063,223.2344 61.5781,221.5938 Q60.2656,219.9375 60.2656,216.8125 Q60.2656,213.6875 61.5781,212.0313 Q62.9063,210.375 65.4063,210.375 Q66.1094,210.375 66.75,210.5313 Q67.4063,210.6875 67.9688,210.9844 L67.9688,213.7031 Q67.3438,213.125 66.75,212.8594 Q66.1563,212.5781 65.5313,212.5781 Q64.1875,212.5781 63.5,213.6563 Q62.8125,214.7188 62.8125,216.8125 Q62.8125,218.9063 63.5,219.9844 Q64.1875,221.0469 65.5313,221.0469 Q66.1563,221.0469 66.75,220.7813 Q67.3438,220.5 67.9688,219.9219 L67.9688,222.6406 Z "/><text fill="#000000" font-family="sans-serif" font-size="12" lengthAdjust="spacingAndGlyphs" textLength="141" x="79" y="221.1543">MemorySegmentLease</text><line style="stroke: #A80036; stroke-width: 1.5;" x1="51" x2="222" y1="233" y2="233"/><line style="stroke: #A80036; stroke-width: 1.5;" x1="51" x2="222" y1="241" y2="241"/><path d="M302,8 L302,62 L267.3,66 L302,70 L302,123.9297 A0,0 0 0 0 302,123.9297 L695,123.9297 A0,0 0 0 0 695,123.9297 L695,18 L685,8 L302,8 A0,0 0 0 0 302,8 " fill="#FBFB77" filter="url(#feh34c1mpvtqu)" style="stroke: #A80036; stroke-width: 1.0;"/><path d="M685,8 L685,18 L695,18 L685,8 " fill="#FBFB77" style="stroke: #A80036; stroke-width: 1.0;"/><text fill="#000000" font-family="sans-serif" font-size="13" lengthAdjust="spacingAndGlyphs" textLength="101" x="308" y="25.0669">Responsibilities:</text><text fill="#000000" font-family="sans-serif" font-size="13" lengthAdjust="spacingAndGlyphs" textLength="372" x="308" y="40.1997">- Provides new MemorySegment and corresponding Lease</text><text fill="#000000" font-family="sans-serif" font-size="13" lengthAdjust="spacingAndGlyphs" textLength="150" x="308" y="55.3325">- Closes Arena on close</text><text fill="#000000" font-family="sans-serif" font-size="13" lengthAdjust="spacingAndGlyphs" textLength="0" x="312" y="70.4653"/><text fill="#000000" font-family="sans-serif" font-size="13" lengthAdjust="spacingAndGlyphs" textLength="89" x="308" y="85.5981">Collaborators:</text><text fill="#000000" font-family="sans-serif" font-size="13" lengthAdjust="spacingAndGlyphs" textLength="158" x="308" y="100.731">- MemorySegmentLease</text><text fill="#000000" font-family="sans-serif" font-size="13" lengthAdjust="spacingAndGlyphs" textLength="36" x="308" y="115.8638">- Pool</text><!--MD5=[26b996263bfdae5b4224ed69cb68a3c8]
link ArenaMemorySegmentLeaseSupplier to MemorySegmentLease--><path d="M136.5,109.07 C136.5,136.43 136.5,171.38 136.5,195.51 " fill="none" id="ArenaMemorySegmentLeaseSupplier-&gt;MemorySegmentLease" style="stroke: #A80036; stroke-width: 1.0;"/><polygon fill="#A80036" points="136.5,200.8,140.5,191.8,136.5,195.8,132.5,191.8,136.5,200.8" style="stroke: #A80036; stroke-width: 1.0;"/><text fill="#000000" font-family="sans-serif" font-size="13" lengthAdjust="spacingAndGlyphs" textLength="54" x="137.5" y="167.0669">provides</text><!--MD5=[f57dff2510b208c518e9a365da0bc256]
@startuml inline_umlgraph_12.svg
class ArenaMemorySegmentLeaseSupplier {
+ apply(poolRef);
+ accept(lease);
+ close();
}

ArenaMemorySegmentLeaseSupplier - -> MemorySegmentLease : provides

note right of ArenaMemorySegmentLeaseSupplier
Responsibilities:
- Provides new MemorySegment and corresponding Lease
- Closes Arena on close

Collaborators:
- MemorySegmentLease
- Pool
end note
@enduml

PlantUML version 1.2020.02(Sun Mar 01 10:22:07 UTC 2020)
(GPL source distribution)
Java Runtime: OpenJDK Runtime Environment
JVM: OpenJDK 64-Bit Server VM
Java Version: 25.0.2+10-LTS
Operating System: Linux
Default Encoding: UTF-8
Language: en
Country: null
--></g></svg>