<?xml version="1.0" encoding="UTF-8" standalone="no"?><svg xmlns="http://www.w3.org/2000/svg" xmlns:xlink="http://www.w3.org/1999/xlink" contentScriptType="application/ecmascript" contentStyleType="text/css" height="230px" preserveAspectRatio="none" style="width:761px;height:230px;" version="1.1" viewBox="0 0 761 230" width="761px" zoomAndPan="magnify"><defs><filter height="300%" id="fe7pj0ecwrxjr" width="300%" x="-1" y="-1"><feGaussianBlur result="blurOut" stdDeviation="2.0"/><feColorMatrix in="blurOut" result="blurOut2" type="matrix" values="0 0 0 0 0 0 0 0 0 0 0 0 0 0 0 0 0 0 .4 0"/><feOffset dx="4.0" dy="4.0" in="blurOut2" result="blurOut3"/><feBlend in="SourceGraphic" in2="blurOut3" mode="normal"/></filter></defs><g><!--MD5=[9e1380a4fd64cf6adcd43ce4cf8842a1]
class MultiGet--><rect fill="#FEFECE" filter="url(#fe7pj0ecwrxjr)" height="60.8047" id="MultiGet" style="stroke: #A80036; stroke-width: 1.5;" width="87" x="22.5" y="20.5"/><ellipse cx="39.3" cy="36.5" fill="#B4A7E5" rx="11" ry="11" style="stroke: #A80036; stroke-width: 1.0;"/><path d="M35.2219,32.2656 L35.2219,30.1094 L42.6125,30.1094 L42.6125,32.2656 L40.1438,32.2656 L40.1438,40.3438 L42.6125,40.3438 L42.6125,42.5 L35.2219,42.5 L35.2219,40.3438 L37.6906,40.3438 L37.6906,32.2656 L35.2219,32.2656 Z "/><text fill="#000000" font-family="sans-serif" font-size="12" font-style="italic" lengthAdjust="spacingAndGlyphs" textLength="51" x="53.7" y="40.6543">MultiGet</text><line style="stroke: #A80036; stroke-width: 1.5;" x1="23.5" x2="108.5" y1="52.5" y2="52.5"/><line style="stroke: #A80036; stroke-width: 1.5;" x1="23.5" x2="108.5" y1="60.5" y2="60.5"/><ellipse cx="33.5" cy="71.5" fill="#84BE84" rx="3" ry="3" style="stroke: #038048; stroke-width: 1.0;"/><text fill="#000000" font-family="sans-serif" font-size="11" lengthAdjust="spacingAndGlyphs" textLength="61" x="42.5" y="74.7104">get(count);</text><!--MD5=[389a5dd6bd29410ac434f3b565db7bf5]
class LeaseMultiGet--><rect fill="#FEFECE" filter="url(#fe7pj0ecwrxjr)" height="48" id="LeaseMultiGet" style="stroke: #A80036; stroke-width: 1.5;" width="120" x="6" y="171"/><ellipse cx="21" cy="187" fill="#ADD1B2" rx="11" ry="11" style="stroke: #A80036; stroke-width: 1.0;"/><path d="M23.9688,192.6406 Q23.3906,192.9375 22.75,193.0781 Q22.1094,193.2344 21.4063,193.2344 Q18.9063,193.2344 17.5781,191.5938 Q16.2656,189.9375 16.2656,186.8125 Q16.2656,183.6875 17.5781,182.0313 Q18.9063,180.375 21.4063,180.375 Q22.1094,180.375 22.75,180.5313 Q23.4063,180.6875 23.9688,180.9844 L23.9688,183.7031 Q23.3438,183.125 22.75,182.8594 Q22.1563,182.5781 21.5313,182.5781 Q20.1875,182.5781 19.5,183.6563 Q18.8125,184.7188 18.8125,186.8125 Q18.8125,188.9063 19.5,189.9844 Q20.1875,191.0469 21.5313,191.0469 Q22.1563,191.0469 22.75,190.7813 Q23.3438,190.5 23.9688,189.9219 L23.9688,192.6406 Z "/><text fill="#000000" font-family="sans-serif" font-size="12" lengthAdjust="spacingAndGlyphs" textLength="88" x="35" y="191.1543">LeaseMultiGet</text><line style="stroke: #A80036; stroke-width: 1.5;" x1="7" x2="125" y1="203" y2="203"/><line style="stroke: #A80036; stroke-width: 1.5;" x1="7" x2="125" y1="211" y2="211"/><path d="M145,8 L145,47 L109.53,51 L145,55 L145,93.6641 A0,0 0 0 0 145,93.6641 L749,93.6641 A0,0 0 0 0 749,93.6641 L749,18 L739,8 L145,8 A0,0 0 0 0 145,8 " fill="#FBFB77" filter="url(#fe7pj0ecwrxjr)" style="stroke: #A80036; stroke-width: 1.0;"/><path d="M739,8 L739,18 L749,18 L739,8 " fill="#FBFB77" style="stroke: #A80036; stroke-width: 1.0;"/><text fill="#000000" font-family="sans-serif" font-size="13" lengthAdjust="spacingAndGlyphs" textLength="101" x="151" y="25.0669">Responsibilities:</text><text fill="#000000" font-family="sans-serif" font-size="13" lengthAdjust="spacingAndGlyphs" textLength="583" x="151" y="40.1997">- Provides multiple of given type for the requested count (could be byte count, for example)</text><text fill="#000000" font-family="sans-serif" font-size="13" lengthAdjust="spacingAndGlyphs" textLength="89" x="151" y="55.3325">Collaborators:</text><text fill="#000000" font-family="sans-serif" font-size="13" lengthAdjust="spacingAndGlyphs" textLength="100" x="151" y="70.4653">- LeaseMultiGet</text><text fill="#000000" font-family="sans-serif" font-size="13" lengthAdjust="spacingAndGlyphs" textLength="36" x="151" y="85.5981">- Pool</text><!--MD5=[d379628d585b3daf835799ca1f6cc487]
link MultiGet to LeaseMultiGet--><path d="M66,81.77 C66,106.52 66,141.5 66,165.81 " fill="none" id="MultiGet-&gt;LeaseMultiGet" style="stroke: #A80036; stroke-width: 1.0;"/><polygon fill="#A80036" points="66,170.82,70,161.82,66,165.82,62,161.82,66,170.82" style="stroke: #A80036; stroke-width: 1.0;"/><text fill="#000000" font-family="sans-serif" font-size="13" lengthAdjust="spacingAndGlyphs" textLength="104" x="67" y="137.0669">implemented by</text><!--MD5=[d31b51d5c97e1e47e74633090bb8de31]
@startuml inline_umlgraph_8.svg
interface MultiGet {
+ get(count);
}
MultiGet - -> LeaseMultiGet : implemented by
note right of MultiGet
Responsibilities:
- Provides multiple of given type for the requested count (could be byte count, for example)
Collaborators:
- LeaseMultiGet
- Pool
end note
@enduml

PlantUML version 1.2020.02(Sun Mar 01 10:22:07 UTC 2020)
(GPL source distribution)
Java Runtime: OpenJDK Runtime Environment
JVM: OpenJDK 64-Bit Server VM
Java Version: 25.0.2+10-LTS
Operating System: Linux
Default Encoding: UTF-8
Language: en
Country: null
--></g></svg>