<?xml version="1.0" encoding="UTF-8" standalone="no"?><svg xmlns="http://www.w3.org/2000/svg" xmlns:xlink="http://www.w3.org/1999/xlink" contentScriptType="application/ecmascript" contentStyleType="text/css" height="282px" preserveAspectRatio="none" style="width:570px;height:282px;" version="1.1" viewBox="0 0 570 282" width="570px" zoomAndPan="magnify"><defs><filter height="300%" id="fkd2m42vw3ksw" width="300%" x="-1" y="-1"><feGaussianBlur result="blurOut" stdDeviation="2.0"/><feColorMatrix in="blurOut" result="blurOut2" type="matrix" values="0 0 0 0 0 0 0 0 0 0 0 0 0 0 0 0 0 0 .4 0"/><feOffset dx="4.0" dy="4.0" in="blurOut2" result="blurOut3"/><feBlend in="SourceGraphic" in2="blurOut3" mode="normal"/></filter></defs><g><!--MD5=[2a1de4af88ba61b6ea57fe67241b5324]
class MemorySegmentSubLease--><rect fill="#FEFECE" filter="url(#fkd2m42vw3ksw)" height="137.6328" id="MemorySegmentSubLease" style="stroke: #A80036; stroke-width: 1.5;" width="197" x="6" y="8"/><ellipse cx="21" cy="24" fill="#ADD1B2" rx="11" ry="11" style="stroke: #A80036; stroke-width: 1.0;"/><path d="M23.9688,29.6406 Q23.3906,29.9375 22.75,30.0781 Q22.1094,30.2344 21.4063,30.2344 Q18.9063,30.2344 17.5781,28.5938 Q16.2656,26.9375 16.2656,23.8125 Q16.2656,20.6875 17.5781,19.0313 Q18.9063,17.375 21.4063,17.375 Q22.1094,17.375 22.75,17.5313 Q23.4063,17.6875 23.9688,17.9844 L23.9688,20.7031 Q23.3438,20.125 22.75,19.8594 Q22.1563,19.5781 21.5313,19.5781 Q20.1875,19.5781 19.5,20.6563 Q18.8125,21.7188 18.8125,23.8125 Q18.8125,25.9063 19.5,26.9844 Q20.1875,28.0469 21.5313,28.0469 Q22.1563,28.0469 22.75,27.7813 Q23.3438,27.5 23.9688,26.9219 L23.9688,29.6406 Z "/><text fill="#000000" font-family="sans-serif" font-size="12" lengthAdjust="spacingAndGlyphs" textLength="165" x="35" y="28.1543">MemorySegmentSubLease</text><line style="stroke: #A80036; stroke-width: 1.5;" x1="7" x2="202" y1="40" y2="40"/><line style="stroke: #A80036; stroke-width: 1.5;" x1="7" x2="202" y1="48" y2="48"/><ellipse cx="17" cy="59" fill="#84BE84" rx="3" ry="3" style="stroke: #038048; stroke-width: 1.0;"/><text fill="#000000" font-family="sans-serif" font-size="11" lengthAdjust="spacingAndGlyphs" textLength="82" x="26" y="62.2104">sliceAt(offset);</text><ellipse cx="17" cy="71.8047" fill="#84BE84" rx="3" ry="3" style="stroke: #038048; stroke-width: 1.0;"/><text fill="#000000" font-family="sans-serif" font-size="11" lengthAdjust="spacingAndGlyphs" textLength="22" x="26" y="75.0151">id();</text><ellipse cx="17" cy="84.6094" fill="#84BE84" rx="3" ry="3" style="stroke: #038048; stroke-width: 1.0;"/><text fill="#000000" font-family="sans-serif" font-size="11" lengthAdjust="spacingAndGlyphs" textLength="35" x="26" y="87.8198">refs();</text><ellipse cx="17" cy="97.4141" fill="#84BE84" rx="3" ry="3" style="stroke: #038048; stroke-width: 1.0;"/><text fill="#000000" font-family="sans-serif" font-size="11" lengthAdjust="spacingAndGlyphs" textLength="86" x="26" y="100.6245">leasedObject();</text><ellipse cx="17" cy="110.2188" fill="#84BE84" rx="3" ry="3" style="stroke: #038048; stroke-width: 1.0;"/><text fill="#000000" font-family="sans-serif" font-size="11" lengthAdjust="spacingAndGlyphs" textLength="86" x="26" y="113.4292">hasZeroRefs();</text><ellipse cx="17" cy="123.0234" fill="#84BE84" rx="3" ry="3" style="stroke: #038048; stroke-width: 1.0;"/><text fill="#000000" font-family="sans-serif" font-size="11" lengthAdjust="spacingAndGlyphs" textLength="48" x="26" y="126.2339">isStub();</text><ellipse cx="17" cy="135.8281" fill="#84BE84" rx="3" ry="3" style="stroke: #038048; stroke-width: 1.0;"/><text fill="#000000" font-family="sans-serif" font-size="11" lengthAdjust="spacingAndGlyphs" textLength="42" x="26" y="139.0386">close();</text><!--MD5=[5f4147abe85723a46671276136bd6156]
class MemorySegmentLease--><rect fill="#FEFECE" filter="url(#fkd2m42vw3ksw)" height="48" id="MemorySegmentLease" style="stroke: #A80036; stroke-width: 1.5;" width="173" x="18" y="223"/><ellipse cx="33" cy="239" fill="#ADD1B2" rx="11" ry="11" style="stroke: #A80036; stroke-width: 1.0;"/><path d="M35.9688,244.6406 Q35.3906,244.9375 34.75,245.0781 Q34.1094,245.2344 33.4063,245.2344 Q30.9063,245.2344 29.5781,243.5938 Q28.2656,241.9375 28.2656,238.8125 Q28.2656,235.6875 29.5781,234.0313 Q30.9063,232.375 33.4063,232.375 Q34.1094,232.375 34.75,232.5313 Q35.4063,232.6875 35.9688,232.9844 L35.9688,235.7031 Q35.3438,235.125 34.75,234.8594 Q34.1563,234.5781 33.5313,234.5781 Q32.1875,234.5781 31.5,235.6563 Q30.8125,236.7188 30.8125,238.8125 Q30.8125,240.9063 31.5,241.9844 Q32.1875,243.0469 33.5313,243.0469 Q34.1563,243.0469 34.75,242.7813 Q35.3438,242.5 35.9688,241.9219 L35.9688,244.6406 Z "/><text fill="#000000" font-family="sans-serif" font-size="12" lengthAdjust="spacingAndGlyphs" textLength="141" x="47" y="243.1543">MemorySegmentLease</text><line style="stroke: #A80036; stroke-width: 1.5;" x1="19" x2="190" y1="255" y2="255"/><line style="stroke: #A80036; stroke-width: 1.5;" x1="19" x2="190" y1="263" y2="263"/><path d="M238.5,41.5 L238.5,73 L203.27,77 L238.5,81 L238.5,112.0313 A0,0 0 0 0 238.5,112.0313 L558.5,112.0313 A0,0 0 0 0 558.5,112.0313 L558.5,51.5 L548.5,41.5 L238.5,41.5 A0,0 0 0 0 238.5,41.5 " fill="#FBFB77" filter="url(#fkd2m42vw3ksw)" style="stroke: #A80036; stroke-width: 1.0;"/><path d="M548.5,41.5 L548.5,51.5 L558.5,51.5 L548.5,41.5 " fill="#FBFB77" style="stroke: #A80036; stroke-width: 1.0;"/><text fill="#000000" font-family="sans-serif" font-size="13" lengthAdjust="spacingAndGlyphs" textLength="101" x="244.5" y="58.5669">Responsibilities:</text><text fill="#000000" font-family="sans-serif" font-size="13" lengthAdjust="spacingAndGlyphs" textLength="299" x="244.5" y="73.6997">- Provides a sublease, which cannot be reused.</text><text fill="#000000" font-family="sans-serif" font-size="13" lengthAdjust="spacingAndGlyphs" textLength="89" x="244.5" y="88.8325">Collaborators:</text><text fill="#000000" font-family="sans-serif" font-size="13" lengthAdjust="spacingAndGlyphs" textLength="158" x="244.5" y="103.9653">- MemorySegmentLease</text><!--MD5=[e824e3420c7e2446c5e564519d80f161]
link MemorySegmentSubLease to MemorySegmentLease--><path d="M104.5,146.33 C104.5,171.24 104.5,198.06 104.5,217.6 " fill="none" id="MemorySegmentSubLease-&gt;MemorySegmentLease" style="stroke: #A80036; stroke-width: 1.0;"/><polygon fill="#A80036" points="104.5,222.9,108.5,213.9,104.5,217.9,100.5,213.9,104.5,222.9" style="stroke: #A80036; stroke-width: 1.0;"/><text fill="#000000" font-family="sans-serif" font-size="13" lengthAdjust="spacingAndGlyphs" textLength="44" x="105.5" y="189.0669">slice of</text><!--MD5=[fb01a1e4841907e9ea2f51bc3a5e1567]
@startuml inline_umlgraph_4.svg
class MemorySegmentSubLease {
+ sliceAt(offset);
+ id();
+ refs();
+ leasedObject();
+ hasZeroRefs();
+ isStub();
+ close();
}
MemorySegmentSubLease - -> MemorySegmentLease : slice of
note right of MemorySegmentSubLease
Responsibilities:
- Provides a sublease, which cannot be reused.
Collaborators:
- MemorySegmentLease
end note
@enduml

PlantUML version 1.2020.02(Sun Mar 01 10:22:07 UTC 2020)
(GPL source distribution)
Java Runtime: OpenJDK Runtime Environment
JVM: OpenJDK 64-Bit Server VM
Java Version: 25.0.2+10-LTS
Operating System: Linux
Default Encoding: UTF-8
Language: en
Country: null
--></g></svg>