<?xml version="1.0" encoding="UTF-8" standalone="no"?><svg xmlns="http://www.w3.org/2000/svg" xmlns:xlink="http://www.w3.org/1999/xlink" contentScriptType="application/ecmascript" contentStyleType="text/css" height="260px" preserveAspectRatio="none" style="width:566px;height:260px;" version="1.1" viewBox="0 0 566 260" width="566px" zoomAndPan="magnify"><defs><filter height="300%" id="f10gkg9ztbwdmh" width="300%" x="-1" y="-1"><feGaussianBlur result="blurOut" stdDeviation="2.0"/><feColorMatrix in="blurOut" result="blurOut2" type="matrix" values="0 0 0 0 0 0 0 0 0 0 0 0 0 0 0 0 0 0 .4 0"/><feOffset dx="4.0" dy="4.0" in="blurOut2" result="blurOut3"/><feBlend in="SourceGraphic" in2="blurOut3" mode="normal"/></filter></defs><g><!--MD5=[6a238c3ff9e730477301de7c2bfcc723]
class Pool--><rect fill="#FEFECE" filter="url(#f10gkg9ztbwdmh)" height="48" id="Pool" style="stroke: #A80036; stroke-width: 1.5;" width="58" x="6" y="201"/><ellipse cx="21" cy="217" fill="#B4A7E5" rx="11" ry="11" style="stroke: #A80036; stroke-width: 1.0;"/><path d="M16.9219,212.7656 L16.9219,210.6094 L24.3125,210.6094 L24.3125,212.7656 L21.8438,212.7656 L21.8438,220.8438 L24.3125,220.8438 L24.3125,223 L16.9219,223 L16.9219,220.8438 L19.3906,220.8438 L19.3906,212.7656 L16.9219,212.7656 Z "/><text fill="#000000" font-family="sans-serif" font-size="12" font-style="italic" lengthAdjust="spacingAndGlyphs" textLength="26" x="35" y="221.1543">Pool</text><line style="stroke: #A80036; stroke-width: 1.5;" x1="7" x2="63" y1="233" y2="233"/><line style="stroke: #A80036; stroke-width: 1.5;" x1="7" x2="63" y1="241" y2="241"/><!--MD5=[646e4dd7a5c347f1ee4b10dc64fad4e6]
class Lease--><rect fill="#FEFECE" filter="url(#f10gkg9ztbwdmh)" height="112.0234" id="Lease" style="stroke: #A80036; stroke-width: 1.5;" width="112" x="60" y="10"/><ellipse cx="94.35" cy="26" fill="#B4A7E5" rx="11" ry="11" style="stroke: #A80036; stroke-width: 1.0;"/><path d="M90.2719,21.7656 L90.2719,19.6094 L97.6625,19.6094 L97.6625,21.7656 L95.1938,21.7656 L95.1938,29.8438 L97.6625,29.8438 L97.6625,32 L90.2719,32 L90.2719,29.8438 L92.7406,29.8438 L92.7406,21.7656 L90.2719,21.7656 Z "/><text fill="#000000" font-family="sans-serif" font-size="12" font-style="italic" lengthAdjust="spacingAndGlyphs" textLength="37" x="112.65" y="30.1543">Lease</text><line style="stroke: #A80036; stroke-width: 1.5;" x1="61" x2="171" y1="42" y2="42"/><line style="stroke: #A80036; stroke-width: 1.5;" x1="61" x2="171" y1="50" y2="50"/><ellipse cx="71" cy="61" fill="#84BE84" rx="3" ry="3" style="stroke: #038048; stroke-width: 1.0;"/><text fill="#000000" font-family="sans-serif" font-size="11" lengthAdjust="spacingAndGlyphs" textLength="22" x="80" y="64.2104">id();</text><ellipse cx="71" cy="73.8047" fill="#84BE84" rx="3" ry="3" style="stroke: #038048; stroke-width: 1.0;"/><text fill="#000000" font-family="sans-serif" font-size="11" lengthAdjust="spacingAndGlyphs" textLength="35" x="80" y="77.0151">refs();</text><ellipse cx="71" cy="86.6094" fill="#84BE84" rx="3" ry="3" style="stroke: #038048; stroke-width: 1.0;"/><text fill="#000000" font-family="sans-serif" font-size="11" lengthAdjust="spacingAndGlyphs" textLength="86" x="80" y="89.8198">leasedObject();</text><ellipse cx="71" cy="99.4141" fill="#84BE84" rx="3" ry="3" style="stroke: #038048; stroke-width: 1.0;"/><text fill="#000000" font-family="sans-serif" font-size="11" lengthAdjust="spacingAndGlyphs" textLength="86" x="80" y="102.6245">hasZeroRefs();</text><ellipse cx="71" cy="112.2188" fill="#84BE84" rx="3" ry="3" style="stroke: #038048; stroke-width: 1.0;"/><text fill="#000000" font-family="sans-serif" font-size="11" lengthAdjust="spacingAndGlyphs" textLength="82" x="80" y="115.4292">sliceAt(offset);</text><!--MD5=[243b7bee447fe7adb0b85af03775761f]
class MemorySegmentContainer--><rect fill="#FEFECE" filter="url(#f10gkg9ztbwdmh)" height="48" id="MemorySegmentContainer" style="stroke: #A80036; stroke-width: 1.5;" width="197" x="99.5" y="201"/><ellipse cx="114.5" cy="217" fill="#ADD1B2" rx="11" ry="11" style="stroke: #A80036; stroke-width: 1.0;"/><path d="M117.4688,222.6406 Q116.8906,222.9375 116.25,223.0781 Q115.6094,223.2344 114.9063,223.2344 Q112.4063,223.2344 111.0781,221.5938 Q109.7656,219.9375 109.7656,216.8125 Q109.7656,213.6875 111.0781,212.0313 Q112.4063,210.375 114.9063,210.375 Q115.6094,210.375 116.25,210.5313 Q116.9063,210.6875 117.4688,210.9844 L117.4688,213.7031 Q116.8438,213.125 116.25,212.8594 Q115.6563,212.5781 115.0313,212.5781 Q113.6875,212.5781 113,213.6563 Q112.3125,214.7188 112.3125,216.8125 Q112.3125,218.9063 113,219.9844 Q113.6875,221.0469 115.0313,221.0469 Q115.6563,221.0469 116.25,220.7813 Q116.8438,220.5 117.4688,219.9219 L117.4688,222.6406 Z "/><text fill="#000000" font-family="sans-serif" font-size="12" lengthAdjust="spacingAndGlyphs" textLength="165" x="128.5" y="221.1543">MemorySegmentContainer</text><line style="stroke: #A80036; stroke-width: 1.5;" x1="100.5" x2="295.5" y1="233" y2="233"/><line style="stroke: #A80036; stroke-width: 1.5;" x1="100.5" x2="295.5" y1="241" y2="241"/><path d="M207.5,8 L207.5,62 L172.16,66 L207.5,70 L207.5,123.9297 A0,0 0 0 0 207.5,123.9297 L554.5,123.9297 A0,0 0 0 0 554.5,123.9297 L554.5,18 L544.5,8 L207.5,8 A0,0 0 0 0 207.5,8 " fill="#FBFB77" filter="url(#f10gkg9ztbwdmh)" style="stroke: #A80036; stroke-width: 1.0;"/><path d="M544.5,8 L544.5,18 L554.5,18 L544.5,8 " fill="#FBFB77" style="stroke: #A80036; stroke-width: 1.0;"/><text fill="#000000" font-family="sans-serif" font-size="13" lengthAdjust="spacingAndGlyphs" textLength="101" x="213.5" y="25.0669">Responsibilities:</text><text fill="#000000" font-family="sans-serif" font-size="13" lengthAdjust="spacingAndGlyphs" textLength="128" x="213.5" y="40.1997">- Reference tracking</text><text fill="#000000" font-family="sans-serif" font-size="13" lengthAdjust="spacingAndGlyphs" textLength="307" x="213.5" y="55.3325">- Provides access to encapsulated leased object</text><text fill="#000000" font-family="sans-serif" font-size="13" lengthAdjust="spacingAndGlyphs" textLength="326" x="213.5" y="70.4653">- Zero references removes access to leased object</text><text fill="#000000" font-family="sans-serif" font-size="13" lengthAdjust="spacingAndGlyphs" textLength="89" x="213.5" y="85.5981">Collaborators:</text><text fill="#000000" font-family="sans-serif" font-size="13" lengthAdjust="spacingAndGlyphs" textLength="36" x="213.5" y="100.731">- Pool</text><text fill="#000000" font-family="sans-serif" font-size="13" lengthAdjust="spacingAndGlyphs" textLength="182" x="213.5" y="115.8638">- MemorySegmentContainer</text><!--MD5=[c9b0e1646111f135cf9464964a7cd006]
link Lease to Pool--><path d="M77.9,122.06 C71.49,132.43 65.24,143.36 60,154 C53.46,167.29 47.76,182.73 43.46,195.72 " fill="none" id="Lease-&gt;Pool" style="stroke: #A80036; stroke-width: 1.0;"/><polygon fill="#A80036" points="41.82,200.76,48.4014,193.433,43.3625,196.0039,40.7917,190.965,41.82,200.76" style="stroke: #A80036; stroke-width: 1.0;"/><text fill="#000000" font-family="sans-serif" font-size="13" lengthAdjust="spacingAndGlyphs" textLength="93" x="61" y="167.0669">returned lease</text><!--MD5=[f4f5cb57a56eb65f7267b920250ada6e]
link Lease to MemorySegmentContainer--><path d="M144.91,122.35 C158.03,147.47 172.96,176.05 183.64,196.5 " fill="none" id="Lease-&gt;MemorySegmentContainer" style="stroke: #A80036; stroke-width: 1.0;"/><polygon fill="#A80036" points="185.99,201,185.3667,191.1709,183.6742,196.5686,178.2765,194.8761,185.99,201" style="stroke: #A80036; stroke-width: 1.0;"/><text fill="#000000" font-family="sans-serif" font-size="13" lengthAdjust="spacingAndGlyphs" textLength="161" x="170" y="167.0669">reference tracked access</text><!--MD5=[5560edda56e0ecee9bc30b586a899b55]
@startuml inline_umlgraph_2.svg
interface Pool
interface Lease {
+ id();
+ refs();
+ leasedObject();
+ hasZeroRefs();
+ sliceAt(offset);
}
Lease - -> Pool : returned lease
Lease - -> MemorySegmentContainer : reference tracked access
note right of Lease
Responsibilities:
- Reference tracking
- Provides access to encapsulated leased object
- Zero references removes access to leased object
Collaborators:
- Pool
- MemorySegmentContainer
end note
@enduml

PlantUML version 1.2020.02(Sun Mar 01 10:22:07 UTC 2020)
(GPL source distribution)
Java Runtime: OpenJDK Runtime Environment
JVM: OpenJDK 64-Bit Server VM
Java Version: 25.0.3+9-LTS
Operating System: Linux
Default Encoding: UTF-8
Language: en
Country: null
--></g></svg>