<?xml version="1.0" encoding="UTF-8" standalone="no"?><svg xmlns="http://www.w3.org/2000/svg" xmlns:xlink="http://www.w3.org/1999/xlink" contentScriptType="application/ecmascript" contentStyleType="text/css" height="269px" preserveAspectRatio="none" style="width:400px;height:269px;" version="1.1" viewBox="0 0 400 269" width="400px" zoomAndPan="magnify"><defs><filter height="300%" id="fgb9cg3e2lllm" width="300%" x="-1" y="-1"><feGaussianBlur result="blurOut" stdDeviation="2.0"/><feColorMatrix in="blurOut" result="blurOut2" type="matrix" values="0 0 0 0 0 0 0 0 0 0 0 0 0 0 0 0 0 0 .4 0"/><feOffset dx="4.0" dy="4.0" in="blurOut2" result="blurOut3"/><feBlend in="SourceGraphic" in2="blurOut3" mode="normal"/></filter></defs><g><!--MD5=[6a238c3ff9e730477301de7c2bfcc723]
class Pool--><rect fill="#FEFECE" filter="url(#fgb9cg3e2lllm)" height="48" id="Pool" style="stroke: #A80036; stroke-width: 1.5;" width="58" x="6" y="210"/><ellipse cx="21" cy="226" fill="#B4A7E5" rx="11" ry="11" style="stroke: #A80036; stroke-width: 1.0;"/><path d="M16.9219,221.7656 L16.9219,219.6094 L24.3125,219.6094 L24.3125,221.7656 L21.8438,221.7656 L21.8438,229.8438 L24.3125,229.8438 L24.3125,232 L16.9219,232 L16.9219,229.8438 L19.3906,229.8438 L19.3906,221.7656 L16.9219,221.7656 Z "/><text fill="#000000" font-family="sans-serif" font-size="12" font-style="italic" lengthAdjust="spacingAndGlyphs" textLength="26" x="35" y="230.1543">Pool</text><line style="stroke: #A80036; stroke-width: 1.5;" x1="7" x2="63" y1="242" y2="242"/><line style="stroke: #A80036; stroke-width: 1.5;" x1="7" x2="63" y1="250" y2="250"/><!--MD5=[84037acf0ab87c4dcb6629c501233e92]
class OpenableLease--><rect fill="#FEFECE" filter="url(#fgb9cg3e2lllm)" height="124.8281" id="OpenableLease" style="stroke: #A80036; stroke-width: 1.5;" width="128" x="46" y="8"/><ellipse cx="61" cy="24" fill="#B4A7E5" rx="11" ry="11" style="stroke: #A80036; stroke-width: 1.0;"/><path d="M56.9219,19.7656 L56.9219,17.6094 L64.3125,17.6094 L64.3125,19.7656 L61.8438,19.7656 L61.8438,27.8438 L64.3125,27.8438 L64.3125,30 L56.9219,30 L56.9219,27.8438 L59.3906,27.8438 L59.3906,19.7656 L56.9219,19.7656 Z "/><text fill="#000000" font-family="sans-serif" font-size="12" font-style="italic" lengthAdjust="spacingAndGlyphs" textLength="96" x="75" y="28.1543">OpenableLease</text><line style="stroke: #A80036; stroke-width: 1.5;" x1="47" x2="173" y1="40" y2="40"/><line style="stroke: #A80036; stroke-width: 1.5;" x1="47" x2="173" y1="48" y2="48"/><ellipse cx="57" cy="59" fill="#84BE84" rx="3" ry="3" style="stroke: #038048; stroke-width: 1.0;"/><text fill="#000000" font-family="sans-serif" font-size="11" lengthAdjust="spacingAndGlyphs" textLength="67" x="66" y="62.2104">void open();</text><ellipse cx="57" cy="71.8047" fill="#84BE84" rx="3" ry="3" style="stroke: #038048; stroke-width: 1.0;"/><text fill="#000000" font-family="sans-serif" font-size="11" lengthAdjust="spacingAndGlyphs" textLength="22" x="66" y="75.0151">id();</text><ellipse cx="57" cy="84.6094" fill="#84BE84" rx="3" ry="3" style="stroke: #038048; stroke-width: 1.0;"/><text fill="#000000" font-family="sans-serif" font-size="11" lengthAdjust="spacingAndGlyphs" textLength="35" x="66" y="87.8198">refs();</text><ellipse cx="57" cy="97.4141" fill="#84BE84" rx="3" ry="3" style="stroke: #038048; stroke-width: 1.0;"/><text fill="#000000" font-family="sans-serif" font-size="11" lengthAdjust="spacingAndGlyphs" textLength="86" x="66" y="100.6245">leasedObject();</text><ellipse cx="57" cy="110.2188" fill="#84BE84" rx="3" ry="3" style="stroke: #038048; stroke-width: 1.0;"/><text fill="#000000" font-family="sans-serif" font-size="11" lengthAdjust="spacingAndGlyphs" textLength="86" x="66" y="113.4292">hasZeroRefs();</text><ellipse cx="57" cy="123.0234" fill="#84BE84" rx="3" ry="3" style="stroke: #038048; stroke-width: 1.0;"/><text fill="#000000" font-family="sans-serif" font-size="11" lengthAdjust="spacingAndGlyphs" textLength="82" x="66" y="126.2339">sliceAt(offset);</text><!--MD5=[5f4147abe85723a46671276136bd6156]
class MemorySegmentLease--><rect fill="#FEFECE" filter="url(#fgb9cg3e2lllm)" height="48" id="MemorySegmentLease" style="stroke: #A80036; stroke-width: 1.5;" width="173" x="99.5" y="210"/><ellipse cx="114.5" cy="226" fill="#ADD1B2" rx="11" ry="11" style="stroke: #A80036; stroke-width: 1.0;"/><path d="M117.4688,231.6406 Q116.8906,231.9375 116.25,232.0781 Q115.6094,232.2344 114.9063,232.2344 Q112.4063,232.2344 111.0781,230.5938 Q109.7656,228.9375 109.7656,225.8125 Q109.7656,222.6875 111.0781,221.0313 Q112.4063,219.375 114.9063,219.375 Q115.6094,219.375 116.25,219.5313 Q116.9063,219.6875 117.4688,219.9844 L117.4688,222.7031 Q116.8438,222.125 116.25,221.8594 Q115.6563,221.5781 115.0313,221.5781 Q113.6875,221.5781 113,222.6563 Q112.3125,223.7188 112.3125,225.8125 Q112.3125,227.9063 113,228.9844 Q113.6875,230.0469 115.0313,230.0469 Q115.6563,230.0469 116.25,229.7813 Q116.8438,229.5 117.4688,228.9219 L117.4688,231.6406 Z "/><text fill="#000000" font-family="sans-serif" font-size="12" lengthAdjust="spacingAndGlyphs" textLength="141" x="128.5" y="230.1543">MemorySegmentLease</text><line style="stroke: #A80036; stroke-width: 1.5;" x1="100.5" x2="271.5" y1="242" y2="242"/><line style="stroke: #A80036; stroke-width: 1.5;" x1="100.5" x2="271.5" y1="250" y2="250"/><path d="M209.5,27.5 L209.5,66.5 L174.23,70.5 L209.5,74.5 L209.5,113.1641 A0,0 0 0 0 209.5,113.1641 L388.5,113.1641 A0,0 0 0 0 388.5,113.1641 L388.5,37.5 L378.5,27.5 L209.5,27.5 A0,0 0 0 0 209.5,27.5 " fill="#FBFB77" filter="url(#fgb9cg3e2lllm)" style="stroke: #A80036; stroke-width: 1.0;"/><path d="M378.5,27.5 L378.5,37.5 L388.5,37.5 L378.5,27.5 " fill="#FBFB77" style="stroke: #A80036; stroke-width: 1.0;"/><text fill="#000000" font-family="sans-serif" font-size="13" lengthAdjust="spacingAndGlyphs" textLength="101" x="215.5" y="44.5669">Responsibilities:</text><text fill="#000000" font-family="sans-serif" font-size="13" lengthAdjust="spacingAndGlyphs" textLength="100" x="215.5" y="59.6997">- Opening lease</text><text fill="#000000" font-family="sans-serif" font-size="13" lengthAdjust="spacingAndGlyphs" textLength="89" x="215.5" y="74.8325">Collaborators:</text><text fill="#000000" font-family="sans-serif" font-size="13" lengthAdjust="spacingAndGlyphs" textLength="36" x="215.5" y="89.9653">- Pool</text><text fill="#000000" font-family="sans-serif" font-size="13" lengthAdjust="spacingAndGlyphs" textLength="158" x="215.5" y="105.0981">- MemorySegmentLease</text><!--MD5=[bd614b3b3f8dcee84c9ff8e13c9f42c2]
link OpenableLease to Pool--><path d="M62.33,133.21 C56.47,142.81 51.11,152.91 47,163 C41.63,176.21 38.66,191.77 37.02,204.86 " fill="none" id="OpenableLease-&gt;Pool" style="stroke: #A80036; stroke-width: 1.0;"/><polygon fill="#A80036" points="36.44,209.93,41.4656,201.4598,37.025,204.9643,33.5205,200.5238,36.44,209.93" style="stroke: #A80036; stroke-width: 1.0;"/><text fill="#000000" font-family="sans-serif" font-size="13" lengthAdjust="spacingAndGlyphs" textLength="94" x="48" y="176.0669">returns to pool</text><!--MD5=[c299df762cf73aa0fcc026eca8ad98db]
link OpenableLease to MemorySegmentLease--><path d="M138.95,133.02 C150.68,157.94 163.63,185.46 172.97,205.3 " fill="none" id="OpenableLease-&gt;MemorySegmentLease" style="stroke: #A80036; stroke-width: 1.0;"/><polygon fill="#A80036" points="175.14,209.92,174.9062,200.0739,173.0014,205.4004,167.6749,203.4957,175.14,209.92" style="stroke: #A80036; stroke-width: 1.0;"/><text fill="#000000" font-family="sans-serif" font-size="13" lengthAdjust="spacingAndGlyphs" textLength="101" x="160" y="176.0669">implementation</text><!--MD5=[867ef7c2aa08a860f1b7c2b0ba0c5696]
@startuml inline_umlgraph_5.svg
interface Pool
interface OpenableLease {
+ void open();
+ id();
+ refs();
+ leasedObject();
+ hasZeroRefs();
+ sliceAt(offset);
}
OpenableLease - -> Pool : returns to pool
OpenableLease - -> MemorySegmentLease : implementation
note right of OpenableLease
Responsibilities:
- Opening lease
Collaborators:
- Pool
- MemorySegmentLease
end note
@enduml

PlantUML version 1.2020.02(Sun Mar 01 10:22:07 UTC 2020)
(GPL source distribution)
Java Runtime: OpenJDK Runtime Environment
JVM: OpenJDK 64-Bit Server VM
Java Version: 25.0.2+10-LTS
Operating System: Linux
Default Encoding: UTF-8
Language: en
Country: null
--></g></svg>