<?xml version="1.0" encoding="UTF-8" standalone="no"?><svg xmlns="http://www.w3.org/2000/svg" xmlns:xlink="http://www.w3.org/1999/xlink" contentScriptType="application/ecmascript" contentStyleType="text/css" height="230px" preserveAspectRatio="none" style="width:719px;height:230px;" version="1.1" viewBox="0 0 719 230" width="719px" zoomAndPan="magnify"><defs><filter height="300%" id="f6apaxaxsap6m" width="300%" x="-1" y="-1"><feGaussianBlur result="blurOut" stdDeviation="2.0"/><feColorMatrix in="blurOut" result="blurOut2" type="matrix" values="0 0 0 0 0 0 0 0 0 0 0 0 0 0 0 0 0 0 .4 0"/><feOffset dx="4.0" dy="4.0" in="blurOut2" result="blurOut3"/><feBlend in="SourceGraphic" in2="blurOut3" mode="normal"/></filter></defs><g><!--MD5=[9e1380a4fd64cf6adcd43ce4cf8842a1]
class MultiGet--><rect fill="#FEFECE" filter="url(#f6apaxaxsap6m)" height="48" id="MultiGet" style="stroke: #A80036; stroke-width: 1.5;" width="83" x="6" y="171"/><ellipse cx="21" cy="187" fill="#B4A7E5" rx="11" ry="11" style="stroke: #A80036; stroke-width: 1.0;"/><path d="M16.9219,182.7656 L16.9219,180.6094 L24.3125,180.6094 L24.3125,182.7656 L21.8438,182.7656 L21.8438,190.8438 L24.3125,190.8438 L24.3125,193 L16.9219,193 L16.9219,190.8438 L19.3906,190.8438 L19.3906,182.7656 L16.9219,182.7656 Z "/><text fill="#000000" font-family="sans-serif" font-size="12" font-style="italic" lengthAdjust="spacingAndGlyphs" textLength="51" x="35" y="191.1543">MultiGet</text><line style="stroke: #A80036; stroke-width: 1.5;" x1="7" x2="88" y1="203" y2="203"/><line style="stroke: #A80036; stroke-width: 1.5;" x1="7" x2="88" y1="211" y2="211"/><!--MD5=[6a238c3ff9e730477301de7c2bfcc723]
class Pool--><rect fill="#FEFECE" filter="url(#f6apaxaxsap6m)" height="48" id="Pool" style="stroke: #A80036; stroke-width: 1.5;" width="58" x="136.5" y="171"/><ellipse cx="151.5" cy="187" fill="#B4A7E5" rx="11" ry="11" style="stroke: #A80036; stroke-width: 1.0;"/><path d="M147.4219,182.7656 L147.4219,180.6094 L154.8125,180.6094 L154.8125,182.7656 L152.3438,182.7656 L152.3438,190.8438 L154.8125,190.8438 L154.8125,193 L147.4219,193 L147.4219,190.8438 L149.8906,190.8438 L149.8906,182.7656 L147.4219,182.7656 Z "/><text fill="#000000" font-family="sans-serif" font-size="12" font-style="italic" lengthAdjust="spacingAndGlyphs" textLength="26" x="165.5" y="191.1543">Pool</text><line style="stroke: #A80036; stroke-width: 1.5;" x1="137.5" x2="193.5" y1="203" y2="203"/><line style="stroke: #A80036; stroke-width: 1.5;" x1="137.5" x2="193.5" y1="211" y2="211"/><!--MD5=[389a5dd6bd29410ac434f3b565db7bf5]
class LeaseMultiGet--><rect fill="#FEFECE" filter="url(#f6apaxaxsap6m)" height="60.8047" id="LeaseMultiGet" style="stroke: #A80036; stroke-width: 1.5;" width="120" x="46.5" y="20.5"/><ellipse cx="61.5" cy="36.5" fill="#ADD1B2" rx="11" ry="11" style="stroke: #A80036; stroke-width: 1.0;"/><path d="M64.4688,42.1406 Q63.8906,42.4375 63.25,42.5781 Q62.6094,42.7344 61.9063,42.7344 Q59.4063,42.7344 58.0781,41.0938 Q56.7656,39.4375 56.7656,36.3125 Q56.7656,33.1875 58.0781,31.5313 Q59.4063,29.875 61.9063,29.875 Q62.6094,29.875 63.25,30.0313 Q63.9063,30.1875 64.4688,30.4844 L64.4688,33.2031 Q63.8438,32.625 63.25,32.3594 Q62.6563,32.0781 62.0313,32.0781 Q60.6875,32.0781 60,33.1563 Q59.3125,34.2188 59.3125,36.3125 Q59.3125,38.4063 60,39.4844 Q60.6875,40.5469 62.0313,40.5469 Q62.6563,40.5469 63.25,40.2813 Q63.8438,40 64.4688,39.4219 L64.4688,42.1406 Z "/><text fill="#000000" font-family="sans-serif" font-size="12" lengthAdjust="spacingAndGlyphs" textLength="88" x="75.5" y="40.6543">LeaseMultiGet</text><line style="stroke: #A80036; stroke-width: 1.5;" x1="47.5" x2="165.5" y1="52.5" y2="52.5"/><line style="stroke: #A80036; stroke-width: 1.5;" x1="47.5" x2="165.5" y1="60.5" y2="60.5"/><ellipse cx="57.5" cy="71.5" fill="#84BE84" rx="3" ry="3" style="stroke: #038048; stroke-width: 1.0;"/><text fill="#000000" font-family="sans-serif" font-size="11" lengthAdjust="spacingAndGlyphs" textLength="94" x="66.5" y="74.7104">get(bytesCount);</text><path d="M202,8 L202,47 L166.65,51 L202,55 L202,93.6641 A0,0 0 0 0 202,93.6641 L707,93.6641 A0,0 0 0 0 707,93.6641 L707,18 L697,8 L202,8 A0,0 0 0 0 202,8 " fill="#FBFB77" filter="url(#f6apaxaxsap6m)" style="stroke: #A80036; stroke-width: 1.0;"/><path d="M697,8 L697,18 L707,18 L697,8 " fill="#FBFB77" style="stroke: #A80036; stroke-width: 1.0;"/><text fill="#000000" font-family="sans-serif" font-size="13" lengthAdjust="spacingAndGlyphs" textLength="101" x="208" y="25.0669">Responsibilities:</text><text fill="#000000" font-family="sans-serif" font-size="13" lengthAdjust="spacingAndGlyphs" textLength="484" x="208" y="40.1997">- Provides enough OpenableLeases to cover the requested amount of bytes</text><text fill="#000000" font-family="sans-serif" font-size="13" lengthAdjust="spacingAndGlyphs" textLength="89" x="208" y="55.3325">Collaborators:</text><text fill="#000000" font-family="sans-serif" font-size="13" lengthAdjust="spacingAndGlyphs" textLength="62" x="208" y="70.4653">- MultiGet</text><text fill="#000000" font-family="sans-serif" font-size="13" lengthAdjust="spacingAndGlyphs" textLength="36" x="208" y="85.5981">- Pool</text><!--MD5=[e735c5ac9146540fe1cb175384e26042]
reverse link LeaseMultiGet to MultiGet--><path d="M59.59,97.12 C53.42,105.43 48.02,114.51 44.5,124 C38.95,138.94 39.87,156.92 42.09,170.92 " fill="none" id="LeaseMultiGet&lt;-MultiGet" style="stroke: #A80036; stroke-width: 1.0;"/><polygon fill="none" points="54.32,92.51,72.54,81.69,65.04,101.51,54.32,92.51" style="stroke: #A80036; stroke-width: 1.0;"/><text fill="#000000" font-family="sans-serif" font-size="13" lengthAdjust="spacingAndGlyphs" textLength="76" x="45.5" y="137.0669">implements</text><!--MD5=[c406a52befaef344432ff8222a839948]
link LeaseMultiGet to Pool--><path d="M118.87,81.77 C129.2,106.62 143.81,141.8 153.91,166.11 " fill="none" id="LeaseMultiGet-&gt;Pool" style="stroke: #A80036; stroke-width: 1.0;"/><polygon fill="#A80036" points="155.87,170.82,156.09,160.9736,153.9419,166.2067,148.7087,164.0586,155.87,170.82" style="stroke: #A80036; stroke-width: 1.0;"/><text fill="#000000" font-family="sans-serif" font-size="13" lengthAdjust="spacingAndGlyphs" textLength="139" x="143.5" y="137.0669">retrieves Leases from</text><!--MD5=[0fdbf55412b225cda8004df0589ae6e5]
@startuml inline_umlgraph_7.svg
interface MultiGet
interface Pool
class LeaseMultiGet {
+ get(bytesCount);
}
LeaseMultiGet <|- - MultiGet : implements
LeaseMultiGet - -> Pool : retrieves Leases from
note right of LeaseMultiGet
Responsibilities:
- Provides enough OpenableLeases to cover the requested amount of bytes
Collaborators:
- MultiGet
- Pool
end note
@enduml

PlantUML version 1.2020.02(Sun Mar 01 10:22:07 UTC 2020)
(GPL source distribution)
Java Runtime: OpenJDK Runtime Environment
JVM: OpenJDK 64-Bit Server VM
Java Version: 25.0.2+10-LTS
Operating System: Linux
Default Encoding: UTF-8
Language: en
Country: null
--></g></svg>