<?xml version="1.0" encoding="UTF-8" standalone="no"?><svg xmlns="http://www.w3.org/2000/svg" xmlns:xlink="http://www.w3.org/1999/xlink" contentScriptType="application/ecmascript" contentStyleType="text/css" height="245px" preserveAspectRatio="none" style="width:886px;height:245px;" version="1.1" viewBox="0 0 886 245" width="886px" zoomAndPan="magnify"><defs><filter height="300%" id="f1f5kyx14h7n1c" width="300%" x="-1" y="-1"><feGaussianBlur result="blurOut" stdDeviation="2.0"/><feColorMatrix in="blurOut" result="blurOut2" type="matrix" values="0 0 0 0 0 0 0 0 0 0 0 0 0 0 0 0 0 0 .4 0"/><feOffset dx="4.0" dy="4.0" in="blurOut2" result="blurOut3"/><feBlend in="SourceGraphic" in2="blurOut3" mode="normal"/></filter></defs><g><!--MD5=[1a4ee4ef14d38fa1028fc98c9fd2884a]
class DebugMemorySegmentLeasePool--><rect fill="#FEFECE" filter="url(#f1f5kyx14h7n1c)" height="86.4141" id="DebugMemorySegmentLeasePool" style="stroke: #A80036; stroke-width: 1.5;" width="241" x="142" y="15.5"/><ellipse cx="157" cy="31.5" fill="#ADD1B2" rx="11" ry="11" style="stroke: #A80036; stroke-width: 1.0;"/><path d="M159.9688,37.1406 Q159.3906,37.4375 158.75,37.5781 Q158.1094,37.7344 157.4063,37.7344 Q154.9063,37.7344 153.5781,36.0938 Q152.2656,34.4375 152.2656,31.3125 Q152.2656,28.1875 153.5781,26.5313 Q154.9063,24.875 157.4063,24.875 Q158.1094,24.875 158.75,25.0313 Q159.4063,25.1875 159.9688,25.4844 L159.9688,28.2031 Q159.3438,27.625 158.75,27.3594 Q158.1563,27.0781 157.5313,27.0781 Q156.1875,27.0781 155.5,28.1563 Q154.8125,29.2188 154.8125,31.3125 Q154.8125,33.4063 155.5,34.4844 Q156.1875,35.5469 157.5313,35.5469 Q158.1563,35.5469 158.75,35.2813 Q159.3438,35 159.9688,34.4219 L159.9688,37.1406 Z "/><text fill="#000000" font-family="sans-serif" font-size="12" lengthAdjust="spacingAndGlyphs" textLength="209" x="171" y="35.6543">DebugMemorySegmentLeasePool</text><line style="stroke: #A80036; stroke-width: 1.5;" x1="143" x2="382" y1="47.5" y2="47.5"/><line style="stroke: #A80036; stroke-width: 1.5;" x1="143" x2="382" y1="55.5" y2="55.5"/><ellipse cx="153" cy="66.5" fill="#84BE84" rx="3" ry="3" style="stroke: #038048; stroke-width: 1.0;"/><text fill="#000000" font-family="sans-serif" font-size="11" lengthAdjust="spacingAndGlyphs" textLength="30" x="162" y="69.7104">get();</text><ellipse cx="153" cy="79.3047" fill="#84BE84" rx="3" ry="3" style="stroke: #038048; stroke-width: 1.0;"/><text fill="#000000" font-family="sans-serif" font-size="11" lengthAdjust="spacingAndGlyphs" textLength="70" x="162" y="82.5151">offer(lease);</text><ellipse cx="153" cy="92.1094" fill="#84BE84" rx="3" ry="3" style="stroke: #038048; stroke-width: 1.0;"/><text fill="#000000" font-family="sans-serif" font-size="11" lengthAdjust="spacingAndGlyphs" textLength="42" x="162" y="95.3198">close();</text><!--MD5=[69b522baeefa040c60f0aead6ab26a7b]
class ArenaMemorySegmentLeaseSupplier--><rect fill="#FEFECE" filter="url(#f1f5kyx14h7n1c)" height="48" id="ArenaMemorySegmentLeaseSupplier" style="stroke: #A80036; stroke-width: 1.5;" width="261" x="6" y="186"/><ellipse cx="21" cy="202" fill="#ADD1B2" rx="11" ry="11" style="stroke: #A80036; stroke-width: 1.0;"/><path d="M23.9688,207.6406 Q23.3906,207.9375 22.75,208.0781 Q22.1094,208.2344 21.4063,208.2344 Q18.9063,208.2344 17.5781,206.5938 Q16.2656,204.9375 16.2656,201.8125 Q16.2656,198.6875 17.5781,197.0313 Q18.9063,195.375 21.4063,195.375 Q22.1094,195.375 22.75,195.5313 Q23.4063,195.6875 23.9688,195.9844 L23.9688,198.7031 Q23.3438,198.125 22.75,197.8594 Q22.1563,197.5781 21.5313,197.5781 Q20.1875,197.5781 19.5,198.6563 Q18.8125,199.7188 18.8125,201.8125 Q18.8125,203.9063 19.5,204.9844 Q20.1875,206.0469 21.5313,206.0469 Q22.1563,206.0469 22.75,205.7813 Q23.3438,205.5 23.9688,204.9219 L23.9688,207.6406 Z "/><text fill="#000000" font-family="sans-serif" font-size="12" lengthAdjust="spacingAndGlyphs" textLength="229" x="35" y="206.1543">ArenaMemorySegmentLeaseSupplier</text><line style="stroke: #A80036; stroke-width: 1.5;" x1="7" x2="266" y1="218" y2="218"/><line style="stroke: #A80036; stroke-width: 1.5;" x1="7" x2="266" y1="226" y2="226"/><!--MD5=[5f4147abe85723a46671276136bd6156]
class MemorySegmentLease--><rect fill="#FEFECE" filter="url(#f1f5kyx14h7n1c)" height="48" id="MemorySegmentLease" style="stroke: #A80036; stroke-width: 1.5;" width="173" x="302" y="186"/><ellipse cx="317" cy="202" fill="#ADD1B2" rx="11" ry="11" style="stroke: #A80036; stroke-width: 1.0;"/><path d="M319.9688,207.6406 Q319.3906,207.9375 318.75,208.0781 Q318.1094,208.2344 317.4063,208.2344 Q314.9063,208.2344 313.5781,206.5938 Q312.2656,204.9375 312.2656,201.8125 Q312.2656,198.6875 313.5781,197.0313 Q314.9063,195.375 317.4063,195.375 Q318.1094,195.375 318.75,195.5313 Q319.4063,195.6875 319.9688,195.9844 L319.9688,198.7031 Q319.3438,198.125 318.75,197.8594 Q318.1563,197.5781 317.5313,197.5781 Q316.1875,197.5781 315.5,198.6563 Q314.8125,199.7188 314.8125,201.8125 Q314.8125,203.9063 315.5,204.9844 Q316.1875,206.0469 317.5313,206.0469 Q318.1563,206.0469 318.75,205.7813 Q319.3438,205.5 319.9688,204.9219 L319.9688,207.6406 Z "/><text fill="#000000" font-family="sans-serif" font-size="12" lengthAdjust="spacingAndGlyphs" textLength="141" x="331" y="206.1543">MemorySegmentLease</text><line style="stroke: #A80036; stroke-width: 1.5;" x1="303" x2="474" y1="218" y2="218"/><line style="stroke: #A80036; stroke-width: 1.5;" x1="303" x2="474" y1="226" y2="226"/><path d="M418.5,8 L418.5,54.5 L383.25,58.5 L418.5,62.5 L418.5,108.7969 A0,0 0 0 0 418.5,108.7969 L874.5,108.7969 A0,0 0 0 0 874.5,108.7969 L874.5,18 L864.5,8 L418.5,8 A0,0 0 0 0 418.5,8 " fill="#FBFB77" filter="url(#f1f5kyx14h7n1c)" style="stroke: #A80036; stroke-width: 1.0;"/><path d="M864.5,8 L864.5,18 L874.5,18 L864.5,8 " fill="#FBFB77" style="stroke: #A80036; stroke-width: 1.0;"/><text fill="#000000" font-family="sans-serif" font-size="13" lengthAdjust="spacingAndGlyphs" textLength="101" x="424.5" y="25.0669">Responsibilities:</text><text fill="#000000" font-family="sans-serif" font-size="13" lengthAdjust="spacingAndGlyphs" textLength="310" x="424.5" y="40.1997">- Provide new supplier for each MemorySegment</text><text fill="#000000" font-family="sans-serif" font-size="13" lengthAdjust="spacingAndGlyphs" textLength="435" x="424.5" y="55.3325">- Close matching supplier and MemorySegment on returning to Pool</text><text fill="#000000" font-family="sans-serif" font-size="13" lengthAdjust="spacingAndGlyphs" textLength="89" x="424.5" y="70.4653">Collaborators:</text><text fill="#000000" font-family="sans-serif" font-size="13" lengthAdjust="spacingAndGlyphs" textLength="248" x="424.5" y="85.5981">- ArenaMemorySegmentLeaseSupplier</text><text fill="#000000" font-family="sans-serif" font-size="13" lengthAdjust="spacingAndGlyphs" textLength="158" x="424.5" y="100.731">- MemorySegmentLease</text><!--MD5=[edbc6dff9966c8a19d524518e8dc7c4b]
link DebugMemorySegmentLeasePool to ArenaMemorySegmentLeaseSupplier--><path d="M167.83,101.53 C154.07,111.79 141.77,124.18 133.5,139 C126.54,151.47 126.59,167.23 128.69,180.63 " fill="none" id="DebugMemorySegmentLeasePool-&gt;ArenaMemorySegmentLeaseSupplier" style="stroke: #A80036; stroke-width: 1.0;"/><polygon fill="#A80036" points="129.63,185.83,131.975,176.2644,128.7456,180.9088,124.1012,177.6794,129.63,185.83" style="stroke: #A80036; stroke-width: 1.0;"/><text fill="#000000" font-family="sans-serif" font-size="13" lengthAdjust="spacingAndGlyphs" textLength="210" x="134.5" y="152.0669">gets new MemorySegmentLease</text><!--MD5=[e97460ad9b66a80ffe7368dd60ea8760]
link DebugMemorySegmentLeasePool to MemorySegmentLease--><path d="M314.01,101.52 C326.42,112.96 339.09,125.84 349.5,139 C359.65,151.83 368.7,167.63 375.52,180.98 " fill="none" id="DebugMemorySegmentLeasePool-&gt;MemorySegmentLease" style="stroke: #A80036; stroke-width: 1.0;"/><polygon fill="#A80036" points="377.93,185.78,377.4702,175.9419,375.6882,181.3107,370.3194,179.5287,377.93,185.78" style="stroke: #A80036; stroke-width: 1.0;"/><text fill="#000000" font-family="sans-serif" font-size="13" lengthAdjust="spacingAndGlyphs" textLength="267" x="361.5" y="152.0669">provides an Opened lease, closes on offer</text><!--MD5=[bb039ffd5bc55e8c842718ab308f6328]
@startuml inline_umlgraph_6.svg
class DebugMemorySegmentLeasePool {
+ get();
+ offer(lease);
+ close();
}
DebugMemorySegmentLeasePool - -> ArenaMemorySegmentLeaseSupplier : gets new MemorySegmentLease
DebugMemorySegmentLeasePool - -> MemorySegmentLease : provides an Opened lease, closes on offer
note right of DebugMemorySegmentLeasePool
Responsibilities:
- Provide new supplier for each MemorySegment
- Close matching supplier and MemorySegment on returning to Pool
Collaborators:
- ArenaMemorySegmentLeaseSupplier
- MemorySegmentLease
end note
@enduml

PlantUML version 1.2020.02(Sun Mar 01 10:22:07 UTC 2020)
(GPL source distribution)
Java Runtime: OpenJDK Runtime Environment
JVM: OpenJDK 64-Bit Server VM
Java Version: 25.0.2+10-LTS
Operating System: Linux
Default Encoding: UTF-8
Language: en
Country: null
--></g></svg>