<?xml version="1.0" encoding="UTF-8" standalone="no"?>
<!DOCTYPE svg PUBLIC "-//W3C//DTD SVG 1.1//EN"
 "http://www.w3.org/Graphics/SVG/1.1/DTD/svg11.dtd">
<!-- Generated by graphviz version 2.43.0 (0)
 -->
<!-- Title: com.teragrep.buf_01.buffer.lease.TrackedMemorySegmentLease.currentPosition Pages: 1 -->
<svg width="477pt" height="86pt"
 viewBox="0.00 0.00 477.00 86.00" xmlns="http://www.w3.org/2000/svg" xmlns:xlink="http://www.w3.org/1999/xlink">
<g id="graph0" class="graph" transform="scale(1 1) rotate(0) translate(4 82)">
<title>com.teragrep.buf_01.buffer.lease.TrackedMemorySegmentLease.currentPosition</title>
<!-- Node1 -->
<g id="Node000001" class="node">
<title>Node1</title>
<g id="a_Node000001"><a xlink:title=" ">
<polygon fill="#999999" stroke="#666666" points="469,-54 227,-54 227,-24 469,-24 469,-54"/>
<text text-anchor="start" x="235" y="-42" font-family="Helvetica,sans-Serif" font-size="10.00">com.teragrep.buf_01.buffer.lease.</text>
<text text-anchor="middle" x="348" y="-31" font-family="Helvetica,sans-Serif" font-size="10.00">TrackedMemorySegmentLease.currentPosition</text>
</a>
</g>
</g>
<!-- Node2 -->
<g id="Node000002" class="node">
<title>Node2</title>
<g id="a_Node000002"><a xlink:href="classcom_1_1teragrep_1_1buf__01_1_1buffer_1_1lease_1_1TrackedMemorySegmentLease.html#af2bd0a8507750ee4fce6b1e162e9d9b0" target="_top" xlink:title=" ">
<polygon fill="white" stroke="#666666" points="187.5,-78 3.5,-78 3.5,-48 187.5,-48 187.5,-78"/>
<text text-anchor="start" x="11.5" y="-66" font-family="Helvetica,sans-Serif" font-size="10.00">com.teragrep.buf_01.buffer.lease.</text>
<text text-anchor="middle" x="95.5" y="-55" font-family="Helvetica,sans-Serif" font-size="10.00">TrackedMemorySegmentLease.flip</text>
</a>
</g>
</g>
<!-- Node1&#45;&gt;Node2 -->
<g id="edge1_Node000001_Node000002" class="edge">
<title>Node1&#45;&gt;Node2</title>
<g id="a_edge1_Node000001_Node000002"><a xlink:title=" ">
<path fill="none" stroke="#63b8ff" d="M216.68,-51.49C206.9,-52.42 197.15,-53.36 187.69,-54.26"/>
<polygon fill="#63b8ff" stroke="#63b8ff" points="217.27,-54.95 226.89,-50.51 216.6,-47.98 217.27,-54.95"/>
</a>
</g>
</g>
<!-- Node3 -->
<g id="Node000003" class="node">
<title>Node3</title>
<g id="a_Node000003"><a xlink:href="classcom_1_1teragrep_1_1buf__01_1_1buffer_1_1lease_1_1TrackedMemorySegmentLease.html#a844524847207d55bc758d3e2944ce085" target="_top" xlink:title=" ">
<polygon fill="white" stroke="#666666" points="191,-30 0,-30 0,0 191,0 191,-30"/>
<text text-anchor="start" x="8" y="-18" font-family="Helvetica,sans-Serif" font-size="10.00">com.teragrep.buf_01.buffer.lease.</text>
<text text-anchor="middle" x="95.5" y="-7" font-family="Helvetica,sans-Serif" font-size="10.00">TrackedMemorySegmentLease.limit</text>
</a>
</g>
</g>
<!-- Node1&#45;&gt;Node3 -->
<g id="edge2_Node000001_Node000003" class="edge">
<title>Node1&#45;&gt;Node3</title>
<g id="a_edge2_Node000001_Node000003"><a xlink:title=" ">
<path fill="none" stroke="#63b8ff" d="M216.82,-26.53C208.24,-25.71 199.7,-24.89 191.35,-24.09"/>
<polygon fill="#63b8ff" stroke="#63b8ff" points="216.6,-30.02 226.89,-27.49 217.27,-23.05 216.6,-30.02"/>
</a>
</g>
</g>
</g>
</svg>
