<?xml version="1.0" encoding="UTF-8" standalone="no"?>
<!DOCTYPE svg PUBLIC "-//W3C//DTD SVG 1.1//EN"
 "http://www.w3.org/Graphics/SVG/1.1/DTD/svg11.dtd">
<!-- Generated by graphviz version 2.43.0 (0)
 -->
<!-- Title: com.teragrep.buf_01.buffer.pool.get.TrackedLeaseMultiGet Pages: 1 -->
<svg width="532pt" height="86pt"
 viewBox="0.00 0.00 532.00 86.00" xmlns="http://www.w3.org/2000/svg" xmlns:xlink="http://www.w3.org/1999/xlink">
<g id="graph0" class="graph" transform="scale(1 1) rotate(0) translate(4 82)">
<title>com.teragrep.buf_01.buffer.pool.get.TrackedLeaseMultiGet</title>
<!-- Node1 -->
<g id="Node000001" class="node">
<title>Node1</title>
<g id="a_Node000001"><a xlink:title=" ">
<polygon fill="#999999" stroke="#666666" points="524,-54 330,-54 330,-24 524,-24 524,-54"/>
<text text-anchor="start" x="338" y="-42" font-family="Helvetica,sans-Serif" font-size="10.00">com.teragrep.buf_01.buffer.pool.get.</text>
<text text-anchor="middle" x="427" y="-31" font-family="Helvetica,sans-Serif" font-size="10.00">TrackedLeaseMultiGet</text>
</a>
</g>
</g>
<!-- Node2 -->
<g id="Node000002" class="node">
<title>Node2</title>
<g id="a_Node000002"><a xlink:href="interfacecom_1_1teragrep_1_1buf__01_1_1buffer_1_1pool_1_1get_1_1MultiGet.html" target="_top" xlink:title=" ">
<polygon fill="white" stroke="#666666" points="258,-78 5,-78 5,-48 258,-48 258,-78"/>
<text text-anchor="start" x="13" y="-66" font-family="Helvetica,sans-Serif" font-size="10.00">com.teragrep.buf_01.buffer.pool.get.</text>
<text text-anchor="middle" x="131.5" y="-55" font-family="Helvetica,sans-Serif" font-size="10.00">MultiGet&lt; TrackedLease&lt; MemorySegment &gt; &gt;</text>
</a>
</g>
</g>
<!-- Node2&#45;&gt;Node1 -->
<g id="edge1_Node000001_Node000002" class="edge">
<title>Node2&#45;&gt;Node1</title>
<g id="a_edge1_Node000001_Node000002"><a xlink:title=" ">
<path fill="none" stroke="#63b8ff" d="M268.39,-51.89C289.12,-50.19 310.15,-48.47 329.79,-46.87"/>
<polygon fill="#63b8ff" stroke="#63b8ff" points="267.93,-48.41 258.25,-52.72 268.5,-55.39 267.93,-48.41"/>
</a>
</g>
</g>
<!-- Node3 -->
<g id="Node000003" class="node">
<title>Node3</title>
<g id="a_Node000003"><a xlink:href="interfacecom_1_1teragrep_1_1buf__01_1_1buffer_1_1pool_1_1get_1_1MultiGet.html" target="_top" xlink:title=" ">
<polygon fill="white" stroke="#666666" points="263,-30 0,-30 0,0 263,0 263,-30"/>
<text text-anchor="start" x="8" y="-18" font-family="Helvetica,sans-Serif" font-size="10.00">com.teragrep.buf_01.buffer.pool.get.</text>
<text text-anchor="middle" x="131.5" y="-7" font-family="Helvetica,sans-Serif" font-size="10.00">MultiGet&lt; OpenableLease&lt; MemorySegment &gt; &gt;</text>
</a>
</g>
</g>
<!-- Node3&#45;&gt;Node1 -->
<g id="edge2_Node000001_Node000003" class="edge">
<title>Node3&#45;&gt;Node1</title>
<g id="a_edge2_Node000001_Node000003"><a xlink:title=" ">
<path fill="none" stroke="#9a32cd" stroke-dasharray="5,2" d="M273.6,-26.54C292.6,-28.09 311.73,-29.66 329.71,-31.13"/>
<polygon fill="#9a32cd" stroke="#9a32cd" points="273.62,-23.03 263.37,-25.7 273.05,-30 273.62,-23.03"/>
</a>
</g>
<text text-anchor="middle" x="296.5" y="-32" font-family="Helvetica,sans-Serif" font-size="10.00" fill="grey"> origin</text>
</g>
</g>
</svg>
