<?xml version="1.0" encoding="UTF-8" standalone="no"?>
<!DOCTYPE svg PUBLIC "-//W3C//DTD SVG 1.1//EN"
 "http://www.w3.org/Graphics/SVG/1.1/DTD/svg11.dtd">
<!-- Generated by graphviz version 2.43.0 (0)
 -->
<!-- Title: com.teragrep.buf_01.buffer.lease.collection.TrackedMemorySegmentLeaseCollection Pages: 1 -->
<svg width="547pt" height="86pt"
 viewBox="0.00 0.00 547.00 86.00" xmlns="http://www.w3.org/2000/svg" xmlns:xlink="http://www.w3.org/1999/xlink">
<g id="graph0" class="graph" transform="scale(1 1) rotate(0) translate(4 82)">
<title>com.teragrep.buf_01.buffer.lease.collection.TrackedMemorySegmentLeaseCollection</title>
<!-- Node1 -->
<g id="Node000001" class="node">
<title>Node1</title>
<g id="a_Node000001"><a xlink:title=" ">
<polygon fill="#999999" stroke="#666666" points="539,-54 308,-54 308,-24 539,-24 539,-54"/>
<text text-anchor="start" x="316" y="-42" font-family="Helvetica,sans-Serif" font-size="10.00">com.teragrep.buf_01.buffer.lease.collection.</text>
<text text-anchor="middle" x="423.5" y="-31" font-family="Helvetica,sans-Serif" font-size="10.00">TrackedMemorySegmentLeaseCollection</text>
</a>
</g>
</g>
<!-- Node2 -->
<g id="Node000002" class="node">
<title>Node2</title>
<g id="a_Node000002"><a xlink:href="interfacecom_1_1teragrep_1_1buf__01_1_1buffer_1_1lease_1_1collection_1_1TrackedLeaseCollection.html" target="_top" xlink:title=" ">
<polygon fill="white" stroke="#666666" points="237,-78 0,-78 0,-48 237,-48 237,-78"/>
<text text-anchor="start" x="8" y="-66" font-family="Helvetica,sans-Serif" font-size="10.00">com.teragrep.buf_01.buffer.lease.collection.</text>
<text text-anchor="middle" x="118.5" y="-55" font-family="Helvetica,sans-Serif" font-size="10.00">TrackedLeaseCollection&lt; MemorySegment &gt;</text>
</a>
</g>
</g>
<!-- Node2&#45;&gt;Node1 -->
<g id="edge1_Node000001_Node000002" class="edge">
<title>Node2&#45;&gt;Node1</title>
<g id="a_edge1_Node000001_Node000002"><a xlink:title=" ">
<path fill="none" stroke="#63b8ff" d="M247.24,-52.88C267.4,-51.28 288.14,-49.64 307.97,-48.07"/>
<polygon fill="#63b8ff" stroke="#63b8ff" points="246.77,-49.41 237.08,-53.69 247.33,-56.39 246.77,-49.41"/>
</a>
</g>
</g>
<!-- Node3 -->
<g id="Node000003" class="node">
<title>Node3</title>
<g id="a_Node000003"><a xlink:href="interfacecom_1_1teragrep_1_1buf__01_1_1buffer_1_1lease_1_1TrackedLease.html" target="_top" xlink:title=" ">
<polygon fill="white" stroke="#666666" points="212.5,-30 24.5,-30 24.5,0 212.5,0 212.5,-30"/>
<text text-anchor="start" x="32.5" y="-18" font-family="Helvetica,sans-Serif" font-size="10.00">com.teragrep.buf_01.buffer.lease.</text>
<text text-anchor="middle" x="118.5" y="-7" font-family="Helvetica,sans-Serif" font-size="10.00">TrackedLease&lt; MemorySegment &gt;</text>
</a>
</g>
</g>
<!-- Node3&#45;&gt;Node1 -->
<g id="edge2_Node000001_Node000003" class="edge">
<title>Node3&#45;&gt;Node1</title>
<g id="a_edge2_Node000001_Node000003"><a xlink:title=" ">
<path fill="none" stroke="#9a32cd" stroke-dasharray="5,2" d="M223.21,-23.21C250.46,-25.37 280.01,-27.71 307.8,-29.91"/>
<polygon fill="#9a32cd" stroke="#9a32cd" points="223.13,-19.7 212.88,-22.4 222.57,-26.68 223.13,-19.7"/>
</a>
</g>
<text text-anchor="middle" x="272.5" y="-31" font-family="Helvetica,sans-Serif" font-size="10.00" fill="grey"> leases</text>
</g>
</g>
</svg>
