<?xml version="1.0" encoding="UTF-8" standalone="no"?>
<!DOCTYPE svg PUBLIC "-//W3C//DTD SVG 1.1//EN"
 "http://www.w3.org/Graphics/SVG/1.1/DTD/svg11.dtd">
<!-- Generated by graphviz version 2.43.0 (0)
 -->
<!-- Title: com.teragrep.buf_01.buffer.container.MemorySegmentContainer Pages: 1 -->
<svg width="539pt" height="86pt"
 viewBox="0.00 0.00 539.00 86.00" xmlns="http://www.w3.org/2000/svg" xmlns:xlink="http://www.w3.org/1999/xlink">
<g id="graph0" class="graph" transform="scale(1 1) rotate(0) translate(4 82)">
<title>com.teragrep.buf_01.buffer.container.MemorySegmentContainer</title>
<!-- Node1 -->
<g id="Node000001" class="node">
<title>Node1</title>
<g id="a_Node000001"><a xlink:title="Contains the MemorySegment, providing an id and stub functionality.">
<polygon fill="#999999" stroke="#666666" points="295,-54 95,-54 95,-24 295,-24 295,-54"/>
<text text-anchor="start" x="103" y="-42" font-family="Helvetica,sans-Serif" font-size="10.00">com.teragrep.buf_01.buffer.container.</text>
<text text-anchor="middle" x="195" y="-31" font-family="Helvetica,sans-Serif" font-size="10.00">MemorySegmentContainer</text>
</a>
</g>
</g>
<!-- Node3 -->
<g id="Node000003" class="node">
<title>Node3</title>
<g id="a_Node000003"><a xlink:href="classcom_1_1teragrep_1_1buf__01_1_1buffer_1_1container_1_1MemorySegmentContainerImpl.html" target="_top" xlink:title="Implementation of the MemorySegmentContainer interface.">
<polygon fill="white" stroke="#666666" points="531,-78 331,-78 331,-48 531,-48 531,-78"/>
<text text-anchor="start" x="339" y="-66" font-family="Helvetica,sans-Serif" font-size="10.00">com.teragrep.buf_01.buffer.container.</text>
<text text-anchor="middle" x="431" y="-55" font-family="Helvetica,sans-Serif" font-size="10.00">MemorySegmentContainerImpl</text>
</a>
</g>
</g>
<!-- Node1&#45;&gt;Node3 -->
<g id="edge2_Node000001_Node000003" class="edge">
<title>Node1&#45;&gt;Node3</title>
<g id="a_edge2_Node000001_Node000003"><a xlink:title=" ">
<path fill="none" stroke="#63b8ff" d="M305.27,-50.21C313.85,-51.09 322.48,-51.97 330.98,-52.84"/>
<polygon fill="#63b8ff" stroke="#63b8ff" points="305.54,-46.72 295.24,-49.18 304.83,-53.68 305.54,-46.72"/>
</a>
</g>
</g>
<!-- Node4 -->
<g id="Node000004" class="node">
<title>Node4</title>
<g id="a_Node000004"><a xlink:href="classcom_1_1teragrep_1_1buf__01_1_1buffer_1_1container_1_1MemorySegmentContainerStub.html" target="_top" xlink:title="Stub implementation of the MemorySegmentContainer.">
<polygon fill="white" stroke="#666666" points="531,-30 331,-30 331,0 531,0 531,-30"/>
<text text-anchor="start" x="339" y="-18" font-family="Helvetica,sans-Serif" font-size="10.00">com.teragrep.buf_01.buffer.container.</text>
<text text-anchor="middle" x="431" y="-7" font-family="Helvetica,sans-Serif" font-size="10.00">MemorySegmentContainerStub</text>
</a>
</g>
</g>
<!-- Node1&#45;&gt;Node4 -->
<g id="edge3_Node000001_Node000004" class="edge">
<title>Node1&#45;&gt;Node4</title>
<g id="a_edge3_Node000001_Node000004"><a xlink:title=" ">
<path fill="none" stroke="#63b8ff" d="M305.27,-27.79C313.85,-26.91 322.48,-26.03 330.98,-25.16"/>
<polygon fill="#63b8ff" stroke="#63b8ff" points="304.83,-24.32 295.24,-28.82 305.54,-31.28 304.83,-24.32"/>
</a>
</g>
</g>
<!-- Node2 -->
<g id="Node000002" class="node">
<title>Node2</title>
<g id="a_Node000002"><a xlink:title=" ">
<polygon fill="white" stroke="#666666" points="59,-48.5 0,-48.5 0,-29.5 59,-29.5 59,-48.5"/>
<text text-anchor="middle" x="29.5" y="-36.5" font-family="Helvetica,sans-Serif" font-size="10.00">Stubable</text>
</a>
</g>
</g>
<!-- Node2&#45;&gt;Node1 -->
<g id="edge1_Node000001_Node000002" class="edge">
<title>Node2&#45;&gt;Node1</title>
<g id="a_edge1_Node000001_Node000002"><a xlink:title=" ">
<path fill="none" stroke="#63b8ff" d="M69.51,-39C77.32,-39 85.85,-39 94.66,-39"/>
<polygon fill="#63b8ff" stroke="#63b8ff" points="69.35,-35.5 59.35,-39 69.35,-42.5 69.35,-35.5"/>
</a>
</g>
</g>
</g>
</svg>
